<svg width="401" height="210" viewBox="0 0 401 210" fill="none" xmlns="http://www.w3.org/2000/svg">
<path d="M189.609 176.301C188.235 176.301 187.072 175.243 186.964 173.85C186.851 172.387 187.945 171.11 189.407 170.997C225.069 168.235 253.005 138.017 253.005 102.202C253.005 82.4163 244.49 63.553 229.643 50.4497C228.543 49.4789 228.438 47.8007 229.409 46.7011C230.38 45.6011 232.058 45.4966 233.158 46.4673C249.146 60.5789 258.316 80.8935 258.316 102.203C258.316 121.039 251.257 139.005 238.439 152.792C225.689 166.506 208.421 174.852 189.817 176.293C189.747 176.298 189.678 176.301 189.609 176.301Z" fill="#E89606"/>
<path d="M242.505 57.1531C242.352 57.6254 242.227 58.1015 242.121 58.5782C241.672 58.3857 241.213 58.2104 240.74 58.0582C239.307 57.5968 237.847 57.3538 236.398 57.3132C241.345 63.0913 245.279 69.6205 248.074 76.6175C248.873 76.0105 249.623 75.3243 250.307 74.554C251.154 74.467 251.98 74.3103 252.783 74.0941C250.234 67.8591 246.846 61.9741 242.688 56.6185C242.624 56.7956 242.563 56.9733 242.505 57.1531Z" fill="#E08506"/>
<path d="M255.725 82.7675C255.442 83.0766 255.168 83.3983 254.907 83.7335C254.602 84.125 254.321 84.5289 254.058 84.9407C253.703 84.6056 253.331 84.2835 252.939 83.9786C252.023 83.266 251.048 82.6692 250.032 82.1876C251.982 88.6147 253.004 95.3529 253.004 102.203C253.004 102.827 252.993 103.449 252.977 104.07C254.107 103.759 255.216 103.323 256.28 102.748C256.953 102.918 257.629 103.041 258.305 103.122C258.309 102.815 258.315 102.509 258.315 102.203C258.316 95.576 257.428 89.0454 255.725 82.7675Z" fill="#E08506"/>
<path d="M256.057 111.647C255.64 111.916 255.241 112.203 254.857 112.506C254.632 112.072 254.387 111.646 254.118 111.228C253.669 110.533 253.172 109.884 252.634 109.282C251.871 116.621 249.938 123.65 247.02 130.166C247.543 130.22 248.07 130.254 248.602 130.254C249.419 130.254 250.243 130.186 251.068 130.054C251.553 130.375 252.052 130.665 252.56 130.926C255.258 124.487 257.038 117.672 257.835 110.659C257.229 110.947 256.634 111.275 256.057 111.647Z" fill="#E08506"/>
<path d="M248.117 139.797C247.858 139.805 247.598 139.817 247.338 139.838C246.843 139.878 246.355 139.943 245.874 140.027C245.881 139.538 245.868 139.047 245.828 138.552C245.714 137.118 245.405 135.737 244.929 134.434C241.373 141.104 236.756 147.146 231.296 152.315C232.215 152.868 233.199 153.334 234.241 153.696C234.628 154.414 235.071 155.088 235.553 155.724C236.538 154.775 237.502 153.8 238.438 152.792C242.163 148.787 245.397 144.426 248.117 139.797Z" fill="#E08506"/>
<path d="M228.016 161.558C227.547 161.395 227.075 161.259 226.6 161.142C226.802 160.698 226.988 160.242 227.151 159.773C227.669 158.281 227.949 156.754 228.005 155.236C222.21 160.069 215.616 163.979 208.445 166.719C209.03 167.522 209.696 168.279 210.444 168.974C210.514 169.84 210.657 170.688 210.863 171.512C217.142 169.079 223.071 165.795 228.493 161.733C228.335 161.673 228.177 161.614 228.016 161.558Z" fill="#E08506"/>
<path d="M226.959 66.2356C226.842 65.5361 227.07 64.8279 227.573 64.3285C230.64 61.2839 235.256 60.0137 239.654 61.4296C244.052 62.8455 247.059 66.5711 247.773 70.8332C247.89 71.5328 247.662 72.2409 247.159 72.7403C244.092 75.7849 239.476 77.0554 235.078 75.6392C230.681 74.2229 227.674 70.4977 226.959 66.2356Z" fill="#FFB408"/>
<path d="M257.186 50.7339C256.687 50.2306 255.978 50.0027 255.279 50.1199C251.017 50.8339 247.292 53.8417 245.876 58.2386C244.459 62.6362 245.73 67.2524 248.774 70.3193C249.274 70.8226 249.982 71.0505 250.682 70.9333C254.944 70.2193 258.669 67.2115 260.085 62.8146C261.501 58.4177 260.231 53.8011 257.186 50.7339Z" fill="#FFB408"/>
<path d="M237.191 86.9375C237.32 86.2404 237.777 85.6533 238.421 85.3563C242.346 83.5471 247.118 83.9359 250.764 86.7736C254.409 89.6112 255.958 94.1415 255.168 98.3902C255.038 99.0874 254.581 99.6745 253.937 99.9718C250.013 101.781 245.24 101.392 241.595 98.5546C237.949 95.7169 236.4 91.1863 237.191 86.9375Z" fill="#FFB408"/>
<path d="M270.9 82.7345C270.603 82.0904 270.016 81.6335 269.319 81.5039C265.07 80.714 260.539 82.2626 257.702 85.908C254.865 89.5535 254.476 94.3258 256.285 98.2504C256.581 98.8945 257.169 99.3514 257.866 99.4813C262.115 100.271 266.646 98.7223 269.483 95.0769C272.32 91.4314 272.709 86.6591 270.9 82.7345Z" fill="#FFB408"/>
<path d="M238.276 108.821C238.629 108.205 239.254 107.802 239.96 107.735C244.262 107.323 248.638 109.266 251.142 113.148C253.646 117.03 253.611 121.818 251.463 125.567C251.11 126.183 250.485 126.586 249.779 126.653C245.478 127.065 241.101 125.122 238.597 121.24C236.093 117.358 236.128 112.57 238.276 108.821Z" fill="#FFB408"/>
<path d="M271.482 115.985C271.414 115.279 271.011 114.654 270.396 114.302C266.646 112.153 261.858 112.119 257.976 114.622C254.094 117.127 252.152 121.503 252.563 125.804C252.631 126.51 253.034 127.135 253.649 127.488C257.398 129.637 262.186 129.671 266.068 127.167C269.95 124.663 271.893 120.287 271.482 115.985Z" fill="#FFB408"/>
<path d="M233.014 128.931C233.616 128.556 234.357 128.497 235.011 128.771C238.995 130.445 241.93 134.228 242.298 138.833C242.666 143.438 240.369 147.639 236.701 149.924C236.099 150.299 235.358 150.359 234.704 150.084C230.72 148.41 227.785 144.627 227.417 140.022C227.049 135.417 229.346 131.216 233.014 128.931Z" fill="#FFB408"/>
<path d="M258.87 150.962C259.145 150.308 259.086 149.566 258.711 148.964C256.425 145.297 252.224 143 247.619 143.367C243.014 143.735 239.231 146.67 237.557 150.654C237.282 151.308 237.341 152.05 237.717 152.652C240.002 156.32 244.203 158.617 248.808 158.249C253.413 157.881 257.197 154.946 258.87 150.962Z" fill="#FFB408"/>
<path d="M219.286 145.813C219.988 145.711 220.691 145.955 221.179 146.47C224.154 149.604 225.32 154.248 223.805 158.612C222.291 162.977 218.499 165.9 214.222 166.517C213.52 166.619 212.817 166.375 212.329 165.86C209.354 162.726 208.187 158.082 209.702 153.718C211.217 149.354 215.008 146.431 219.286 145.813Z" fill="#FFB408"/>
<path d="M234.103 176.38C234.618 175.892 234.862 175.189 234.76 174.487C234.142 170.21 231.219 166.418 226.855 164.903C222.49 163.389 217.847 164.555 214.712 167.53C214.198 168.018 213.954 168.721 214.055 169.423C214.673 173.7 217.597 177.492 221.961 179.007C226.325 180.521 230.969 179.355 234.103 176.38Z" fill="#FFB408"/>
<path d="M229.409 46.7014C228.438 47.8011 228.543 49.4796 229.643 50.45C230.359 51.0825 231.056 51.7326 231.744 52.3912C232.326 52.0804 232.893 51.7319 233.442 51.3417L234.611 50.5105L234.873 49.1005C234.93 48.7904 234.976 48.4797 235.014 48.1699C234.405 47.5942 233.789 47.0242 233.157 46.4677C232.058 45.4966 230.379 45.6011 229.409 46.7014Z" fill="#E08506"/>
<path d="M212.575 37.6343C212.639 36.9283 213.04 36.3006 213.653 35.9451C217.392 33.7782 222.18 33.7214 226.074 36.2064C229.968 38.692 231.932 43.0587 231.541 47.3624C231.477 48.0688 231.077 48.6962 230.463 49.0516C226.724 51.2183 221.936 51.2753 218.042 48.79C214.148 46.3047 212.184 41.9381 212.575 37.6343Z" fill="#FFB408"/>
<path d="M178.391 176.301C179.765 176.301 180.929 175.243 181.036 173.85C181.15 172.387 180.055 171.11 178.593 170.997C142.931 168.235 114.996 138.017 114.996 102.202C114.996 82.4163 123.511 63.553 138.358 50.4497C139.457 49.4789 139.562 47.8007 138.591 46.7011C137.621 45.6011 135.942 45.4966 134.843 46.4673C118.854 60.5789 109.684 80.8935 109.684 102.203C109.684 121.039 116.743 139.005 129.561 152.792C142.311 166.506 159.579 174.852 178.183 176.293C178.253 176.298 178.323 176.301 178.391 176.301Z" fill="#E89606"/>
<path d="M125.495 57.1531C125.647 57.6254 125.773 58.1015 125.878 58.5782C126.327 58.3857 126.787 58.2104 127.26 58.0582C128.692 57.5968 130.153 57.3538 131.601 57.3132C126.654 63.0913 122.72 69.6205 119.925 76.6175C119.126 76.0105 118.376 75.3243 117.692 74.554C116.845 74.467 116.019 74.3103 115.216 74.0941C117.765 67.8591 121.154 61.9741 125.312 56.6185C125.375 56.7956 125.437 56.9733 125.495 57.1531Z" fill="#E08506"/>
<path d="M112.275 82.7675C112.558 83.0766 112.831 83.3983 113.092 83.7335C113.397 84.125 113.678 84.5289 113.941 84.9407C114.297 84.6056 114.669 84.2835 115.06 83.9786C115.976 83.266 116.952 82.6692 117.968 82.1876C116.018 88.6147 114.996 95.3529 114.996 102.203C114.996 102.827 115.006 103.449 115.023 104.07C113.892 103.759 112.783 103.323 111.72 102.748C111.047 102.918 110.371 103.041 109.695 103.122C109.691 102.815 109.684 102.509 109.684 102.203C109.684 95.576 110.572 89.0454 112.275 82.7675Z" fill="#E08506"/>
<path d="M111.942 111.647C112.36 111.916 112.758 112.203 113.142 112.506C113.368 112.072 113.612 111.646 113.882 111.228C114.33 110.533 114.828 109.884 115.365 109.282C116.128 116.621 118.062 123.65 120.98 130.166C120.456 130.22 119.929 130.254 119.398 130.254C118.581 130.254 117.756 130.186 116.931 130.054C116.446 130.375 115.948 130.665 115.439 130.926C112.741 124.487 110.961 117.672 110.165 110.659C110.771 110.947 111.366 111.275 111.942 111.647Z" fill="#E08506"/>
<path d="M119.883 139.797C120.142 139.805 120.401 139.817 120.662 139.838C121.156 139.878 121.644 139.943 122.125 140.027C122.119 139.538 122.132 139.047 122.171 138.552C122.286 137.118 122.595 135.737 123.071 134.434C126.626 141.104 131.243 147.146 136.703 152.315C135.785 152.868 134.801 153.334 133.759 153.696C133.372 154.414 132.928 155.088 132.446 155.724C131.462 154.775 130.498 153.8 129.561 152.792C125.837 148.787 122.603 144.426 119.883 139.797Z" fill="#E08506"/>
<path d="M139.984 161.558C140.452 161.395 140.925 161.259 141.4 161.142C141.197 160.698 141.011 160.242 140.849 159.773C140.331 158.281 140.051 156.754 139.995 155.236C145.79 160.069 152.384 163.979 159.555 166.719C158.97 167.522 158.304 168.279 157.556 168.974C157.486 169.84 157.343 170.688 157.137 171.512C150.858 169.079 144.929 165.795 139.507 161.733C139.664 161.673 139.823 161.614 139.984 161.558Z" fill="#E08506"/>
<path d="M141.04 66.2356C141.157 65.5361 140.929 64.8279 140.426 64.3285C137.359 61.2839 132.743 60.0137 128.345 61.4296C123.948 62.8455 120.94 66.5711 120.226 70.8332C120.109 71.5328 120.337 72.2409 120.84 72.7403C123.907 75.7849 128.524 77.0554 132.921 75.6392C137.318 74.2229 140.326 70.4977 141.04 66.2356Z" fill="#FFB408"/>
<path d="M110.814 50.7339C111.313 50.2306 112.021 50.0027 112.721 50.1199C116.983 50.8339 120.708 53.8417 122.124 58.2386C123.541 62.6362 122.27 67.2524 119.225 70.3193C118.726 70.8226 118.017 71.0505 117.318 70.9333C113.056 70.2193 109.331 67.2115 107.915 62.8146C106.498 58.4177 107.769 53.8011 110.814 50.7339Z" fill="#FFB408"/>
<path d="M130.808 86.9375C130.679 86.2404 130.222 85.6533 129.578 85.3563C125.653 83.5471 120.881 83.9359 117.236 86.7736C113.59 89.6112 112.041 94.1415 112.831 98.3902C112.961 99.0874 113.418 99.6745 114.062 99.9718C117.987 101.781 122.759 101.392 126.404 98.5546C130.049 95.7169 131.598 91.1863 130.808 86.9375Z" fill="#FFB408"/>
<path d="M97.1 82.7345C97.3966 82.0904 97.9841 81.6335 98.6812 81.5039C102.93 80.714 107.461 82.2626 110.298 85.908C113.135 89.5535 113.524 94.3258 111.715 98.2504C111.419 98.8945 110.831 99.3514 110.134 99.4813C105.885 100.271 101.354 98.7223 98.5169 95.0769C95.6796 91.4314 95.2908 86.6591 97.1 82.7345Z" fill="#FFB408"/>
<path d="M129.723 108.821C129.371 108.205 128.746 107.802 128.04 107.735C123.738 107.323 119.362 109.266 116.858 113.148C114.354 117.03 114.388 121.818 116.537 125.567C116.89 126.183 117.515 126.586 118.221 126.653C122.522 127.065 126.899 125.122 129.402 121.24C131.906 117.358 131.872 112.57 129.723 108.821Z" fill="#FFB408"/>
<path d="M96.5176 115.985C96.5853 115.279 96.9885 114.654 97.6038 114.302C101.353 112.153 106.141 112.119 110.023 114.622C113.905 117.127 115.848 121.503 115.437 125.804C115.369 126.51 114.966 127.135 114.35 127.488C110.601 129.637 105.813 129.671 101.931 127.167C98.049 124.663 96.1061 120.287 96.5176 115.985Z" fill="#FFB408"/>
<path d="M134.985 128.931C134.384 128.556 133.642 128.497 132.988 128.771C129.004 130.445 126.069 134.228 125.701 138.833C125.333 143.438 127.63 147.639 131.298 149.924C131.9 150.299 132.641 150.359 133.296 150.084C137.28 148.41 140.214 144.627 140.582 140.022C140.95 135.417 138.653 131.216 134.985 128.931Z" fill="#FFB408"/>
<path d="M109.129 150.962C108.855 150.308 108.914 149.566 109.289 148.964C111.575 145.297 115.775 143 120.381 143.367C124.986 143.735 128.768 146.67 130.443 150.654C130.717 151.308 130.658 152.05 130.283 152.652C127.997 156.32 123.797 158.617 119.191 158.249C114.586 157.881 110.803 154.946 109.129 150.962Z" fill="#FFB408"/>
<path d="M148.714 145.813C148.012 145.711 147.309 145.955 146.821 146.47C143.846 149.604 142.68 154.248 144.195 158.612C145.709 162.977 149.501 165.9 153.778 166.517C154.48 166.619 155.183 166.375 155.671 165.86C158.646 162.726 159.813 158.082 158.298 153.718C156.783 149.354 152.991 146.431 148.714 145.813Z" fill="#FFB408"/>
<path d="M133.896 176.38C133.382 175.892 133.138 175.189 133.239 174.487C133.857 170.21 136.781 166.418 141.145 164.903C145.509 163.389 150.153 164.555 153.287 167.53C153.802 168.018 154.046 168.721 153.944 169.423C153.326 173.7 150.403 177.492 146.039 179.007C141.674 180.521 137.031 179.355 133.896 176.38Z" fill="#FFB408"/>
<path d="M138.591 46.7014C139.562 47.8011 139.457 49.4796 138.357 50.45C137.641 51.0825 136.943 51.7326 136.256 52.3912C135.674 52.0804 135.106 51.7319 134.557 51.3417L133.388 50.5105L133.127 49.1005C133.07 48.7904 133.024 48.4797 132.986 48.1699C133.595 47.5942 134.211 47.0242 134.842 46.4677C135.942 45.4966 137.62 45.6011 138.591 46.7014Z" fill="#E08506"/>
<path d="M155.425 37.6343C155.361 36.9283 154.96 36.3006 154.347 35.9451C150.608 33.7782 145.82 33.7214 141.926 36.2064C138.031 38.692 136.068 43.0587 136.458 47.3624C136.522 48.0688 136.923 48.6962 137.537 49.0516C141.276 51.2183 146.064 51.2753 149.958 48.79C153.852 46.3047 155.815 41.9381 155.425 37.6343Z" fill="#FFB408"/>
<g clip-path="url(#clip0)">
<path d="M71.8749 18.4126C71.5607 17.4406 70.6986 16.7503 69.6787 16.6584L55.8245 15.4004L50.3463 2.57792C49.9423 1.6382 49.0224 1.02991 48.0002 1.02991C46.9781 1.02991 46.0582 1.6382 45.6542 2.58012L40.1759 15.4004L26.3196 16.6584C25.3015 16.7525 24.4417 17.4406 24.1256 18.4126C23.8096 19.3845 24.1014 20.4506 24.8716 21.1226L35.3437 30.3067L32.2557 43.9092C32.0297 44.9093 32.4179 45.9432 33.2478 46.543C33.6938 46.8653 34.2157 47.0294 34.742 47.0294C35.1957 47.0294 35.6458 46.9071 36.0497 46.6654L48.0002 39.523L59.9464 46.6654C60.8205 47.1912 61.9225 47.1433 62.7505 46.543C63.5807 45.9413 63.9685 44.9071 63.7426 43.9092L60.6546 30.3067L71.1267 21.1244C71.8969 20.4506 72.1909 19.3863 71.8749 18.4126Z" fill="#FFC107"/>
</g>
<g clip-path="url(#clip1)">
<path d="M257.937 180.206C257.78 179.72 257.349 179.375 256.839 179.329L249.912 178.7L247.173 172.289C246.971 171.819 246.511 171.515 246 171.515C245.489 171.515 245.029 171.819 244.827 172.29L242.088 178.7L235.16 179.329C234.651 179.376 234.221 179.72 234.063 180.206C233.905 180.692 234.051 181.225 234.436 181.561L239.672 186.153L238.128 192.955C238.015 193.455 238.209 193.972 238.624 194.272C238.847 194.433 239.108 194.515 239.371 194.515C239.598 194.515 239.823 194.454 240.025 194.333L246 190.762L251.973 194.333C252.41 194.596 252.961 194.572 253.375 194.272C253.79 193.971 253.984 193.454 253.871 192.955L252.327 186.153L257.563 181.562C257.948 181.225 258.095 180.693 257.937 180.206Z" fill="#FFC107"/>
</g>
<g clip-path="url(#clip2)">
<path d="M95.9192 190.891C95.7163 190.264 95.1595 189.818 94.5008 189.759L85.5534 188.946L82.0153 180.665C81.7544 180.058 81.1603 179.665 80.5002 179.665C79.84 179.665 79.2459 180.058 78.985 180.666L75.447 188.946L66.4981 189.759C65.8406 189.819 65.2852 190.264 65.0811 190.891C64.877 191.519 65.0655 192.208 65.5629 192.642L72.3261 198.573L70.3318 207.358C70.1859 208.004 70.4366 208.672 70.9725 209.059C71.2606 209.267 71.5976 209.373 71.9375 209.373C72.2306 209.373 72.5212 209.294 72.7821 209.138L80.5002 204.525L88.2154 209.138C88.7799 209.478 89.4916 209.447 90.0264 209.059C90.5626 208.67 90.813 208.003 90.6671 207.358L88.6728 198.573L95.436 192.643C95.9334 192.208 96.1233 191.52 95.9192 190.891Z" fill="#FFC107"/>
</g>
<g clip-path="url(#clip3)">
<path d="M310.937 61.2063C310.78 60.7204 310.349 60.3752 309.839 60.3292L302.912 59.7003L300.173 53.289C299.971 52.8192 299.511 52.515 299 52.515C298.489 52.515 298.029 52.8192 297.827 53.2901L295.088 59.7003L288.16 60.3292C287.651 60.3763 287.221 60.7204 287.063 61.2063C286.905 61.6923 287.051 62.2253 287.436 62.5614L292.672 67.1534L291.128 73.9547C291.015 74.4547 291.209 74.9716 291.624 75.2716C291.847 75.4327 292.108 75.5147 292.371 75.5147C292.598 75.5147 292.823 75.4536 293.025 75.3327L299 71.7615L304.973 75.3327C305.41 75.5957 305.961 75.5717 306.375 75.2716C306.79 74.9707 306.984 74.4536 306.871 73.9547L305.327 67.1534L310.563 62.5623C310.948 62.2253 311.095 61.6932 310.937 61.2063Z" fill="#FFC107"/>
</g>
<g clip-path="url(#clip4)">
<path d="M400.937 166.206C400.78 165.72 400.349 165.375 399.839 165.329L392.912 164.7L390.173 158.289C389.971 157.819 389.511 157.515 389 157.515C388.489 157.515 388.029 157.819 387.827 158.29L385.088 164.7L378.16 165.329C377.651 165.376 377.221 165.72 377.063 166.206C376.905 166.692 377.051 167.225 377.436 167.561L382.672 172.153L381.128 178.955C381.015 179.455 381.209 179.972 381.624 180.272C381.847 180.433 382.108 180.515 382.371 180.515C382.598 180.515 382.823 180.454 383.025 180.333L389 176.762L394.973 180.333C395.41 180.596 395.961 180.572 396.375 180.272C396.79 179.971 396.984 179.454 396.871 178.955L395.327 172.153L400.563 167.562C400.948 167.225 401.095 166.693 400.937 166.206Z" fill="#FFC107"/>
</g>
<g clip-path="url(#clip5)">
<path d="M23.9374 104.206C23.7803 103.72 23.3493 103.375 22.8393 103.329L15.9123 102.7L13.1731 96.289C12.9712 95.8192 12.5112 95.515 12.0001 95.515C11.4891 95.515 11.0291 95.8192 10.8271 96.2901L8.08797 102.7L1.15982 103.329C0.65077 103.376 0.220828 103.72 0.0628038 104.206C-0.0952203 104.692 0.0507185 105.225 0.435799 105.561L5.67183 110.153L4.12785 116.955C4.01487 117.455 4.20897 117.972 4.62389 118.272C4.84692 118.433 5.10785 118.515 5.37098 118.515C5.59786 118.515 5.8229 118.454 6.02487 118.333L12.0001 114.762L17.9732 118.333C18.4103 118.596 18.9612 118.572 19.3752 118.272C19.7904 117.971 19.9843 117.454 19.8713 116.955L18.3273 110.153L23.5633 105.562C23.9484 105.225 24.0955 104.693 23.9374 104.206Z" fill="#FFC107"/>
</g>
<defs>
<clipPath id="clip0">
<rect width="48" height="48" fill="white" transform="translate(24)"/>
</clipPath>
<clipPath id="clip1">
<rect width="24" height="24" fill="white" transform="translate(234 171)"/>
</clipPath>
<clipPath id="clip2">
<rect width="31" height="31" fill="white" transform="translate(65 179)"/>
</clipPath>
<clipPath id="clip3">
<rect width="24" height="24" fill="white" transform="translate(287 52)"/>
</clipPath>
<clipPath id="clip4">
<rect width="24" height="24" fill="white" transform="translate(377 157)"/>
</clipPath>
<clipPath id="clip5">
<rect width="24" height="24" fill="white" transform="translate(0 95)"/>
</clipPath>
</defs>
</svg>
