<svg width="168" height="77" viewBox="0 0 168 77" fill="none" xmlns="http://www.w3.org/2000/svg">
<path d="M19.5448 22.393C21.339 22.393 22.707 22.9312 23.6489 24.0077C24.6133 25.0618 25.0954 26.7774 25.0954 29.1546V37.4301C25.0954 38.0805 24.8936 38.5851 24.4899 38.9439C24.1087 39.2803 23.6041 39.4485 22.9761 39.4485C22.3706 39.4485 21.866 39.2803 21.4623 38.9439C21.0811 38.5851 20.8904 38.0805 20.8904 37.4301V29.1546C20.8904 27.9212 20.6662 27.0465 20.2176 26.5307C19.7915 25.9925 19.1299 25.7234 18.2329 25.7234C17.134 25.7234 16.2593 26.1046 15.609 26.8671C14.9586 27.6072 14.6334 28.6276 14.6334 29.9284V37.4301C14.6334 38.0805 14.4316 38.5851 14.0279 38.9439C13.6466 39.2803 13.1532 39.4485 12.5477 39.4485C11.9422 39.4485 11.4376 39.2803 11.0339 38.9439C10.6302 38.5851 10.4284 38.0805 10.4284 37.4301V29.1546C10.4284 27.9212 10.2041 27.0465 9.7556 26.5307C9.32949 25.9925 8.66791 25.7234 7.77084 25.7234C6.67193 25.7234 5.79729 26.1046 5.14692 26.8671C4.51897 27.6072 4.205 28.6276 4.205 29.9284V37.4301C4.205 38.0805 4.00316 38.5851 3.59948 38.9439C3.1958 39.2803 2.6912 39.4485 2.08568 39.4485C1.48016 39.4485 0.97556 39.2803 0.57188 38.9439C0.190627 38.5851 0 38.0805 0 37.4301V24.4114C0 23.7835 0.20184 23.3013 0.60552 22.9649C1.0092 22.6285 1.5138 22.4603 2.11932 22.4603C2.70241 22.4603 3.17337 22.6285 3.5322 22.9649C3.91345 23.2789 4.10408 23.7386 4.10408 24.3441V25.1515C4.61989 24.2544 5.30391 23.5704 6.15612 23.0994C7.03076 22.6285 8.02875 22.393 9.15008 22.393C11.617 22.393 13.2654 23.4246 14.0952 25.4879C14.5885 24.546 15.3174 23.7947 16.2818 23.234C17.2461 22.6733 18.3338 22.393 19.5448 22.393Z" fill="#0068FF"/>
<path d="M35.5254 23.7386C35.9067 23.5368 36.2431 23.4358 36.5346 23.4358C36.9832 23.4358 37.3532 23.604 37.6447 23.9404C37.9587 24.2544 38.1157 24.6245 38.1157 25.0506C38.1157 25.6785 37.7905 26.1831 37.1401 26.5644L34.7517 27.9436V37.4301C34.7517 38.0805 34.5499 38.5851 34.1462 38.9439C33.7649 39.2803 33.2715 39.4485 32.666 39.4485C32.0605 39.4485 31.5559 39.2803 31.1522 38.9439C30.7485 38.5851 30.5467 38.0805 30.5467 37.4301V30.3993L29.8066 30.8366C29.4254 31.0385 29.0778 31.1394 28.7638 31.1394C28.3152 31.1394 27.934 30.9824 27.62 30.6684C27.3285 30.332 27.1827 29.9508 27.1827 29.5247C27.1827 28.8967 27.5079 28.3921 28.1583 28.0109L30.5467 26.6316V17.347C30.5467 16.6966 30.7485 16.2032 31.1522 15.8668C31.5559 15.5304 32.0605 15.3622 32.666 15.3622C33.2715 15.3622 33.7649 15.5304 34.1462 15.8668C34.5499 16.2032 34.7517 16.6966 34.7517 17.347V24.1759L35.5254 23.7386Z" fill="#0068FF"/>
<path d="M106.609 23.6713C106.789 23.2676 107.024 22.9761 107.316 22.7967C107.63 22.5948 107.966 22.4939 108.325 22.4939C108.841 22.4939 109.301 22.6733 109.704 23.0322C110.13 23.3686 110.343 23.7947 110.343 24.3105C110.343 24.5572 110.276 24.8151 110.142 25.0842L100.958 44.3263C100.577 45.0888 99.9823 45.47 99.1749 45.47C98.6591 45.47 98.1994 45.3018 97.7957 44.9654C97.4144 44.6515 97.2238 44.2478 97.2238 43.7544C97.2238 43.5077 97.2911 43.2274 97.4257 42.9134L99.7132 38.1029L93.4561 25.0842C93.344 24.8599 93.2879 24.602 93.2879 24.3105C93.2879 23.7947 93.501 23.3574 93.9271 22.9985C94.3756 22.6397 94.8802 22.4603 95.4409 22.4603C95.8221 22.4603 96.1697 22.5612 96.4837 22.763C96.7977 22.9425 97.0444 23.234 97.2238 23.6377L101.933 34.0324L106.609 23.6713Z" fill="#0068FF"/>
<path d="M9.18372 53.297C9.76681 53.2521 10.2266 53.3754 10.563 53.667C10.8994 53.9585 11.0676 54.3959 11.0676 54.979C11.0676 55.5845 10.9218 56.033 10.6302 56.3246C10.3387 56.6161 9.81167 56.8067 9.04916 56.8964L8.03996 56.9974C6.71679 57.1319 5.74123 57.5804 5.11328 58.343C4.50776 59.1055 4.205 60.0586 4.205 61.2024V68.2668C4.205 68.9171 4.00316 69.4217 3.59948 69.7806C3.1958 70.117 2.6912 70.2852 2.08568 70.2852C1.48016 70.2852 0.97556 70.117 0.57188 69.7806C0.190627 69.4217 0 68.9171 0 68.2668V55.2481C0 54.6201 0.190627 54.138 0.57188 53.8016C0.97556 53.4652 1.46895 53.297 2.05204 53.297C2.63513 53.297 3.10609 53.4652 3.46492 53.8016C3.82375 54.1155 4.00316 54.5753 4.00316 55.1808V56.5264C4.42927 55.5396 5.05721 54.7771 5.887 54.2389C6.73921 53.7006 7.68113 53.3979 8.71276 53.3306L9.18372 53.297Z" fill="#0068FF"/>
<path d="M20.051 70.3524C18.369 70.3524 16.8889 70.0048 15.6105 69.3096C14.3546 68.6144 13.3791 67.6164 12.6839 66.3156C11.9886 65.0149 11.641 63.5011 11.641 61.7742C11.641 60.0474 11.9886 58.5448 12.6839 57.2665C13.3791 55.9657 14.3546 54.9677 15.6105 54.2725C16.8889 53.5773 18.369 53.2297 20.051 53.2297C21.733 53.2297 23.202 53.5773 24.4579 54.2725C25.7362 54.9677 26.7117 55.9657 27.3845 57.2665C28.0798 58.5448 28.4274 60.0474 28.4274 61.7742C28.4274 63.5011 28.0798 65.0149 27.3845 66.3156C26.7117 67.6164 25.7362 68.6144 24.4579 69.3096C23.202 70.0048 21.733 70.3524 20.051 70.3524ZM20.0174 67.0894C21.3854 67.0894 22.4282 66.6408 23.1459 65.7438C23.8636 64.8467 24.2224 63.5235 24.2224 61.7742C24.2224 60.0474 23.8636 58.7354 23.1459 57.8384C22.4282 56.9189 21.3966 56.4591 20.051 56.4591C18.7054 56.4591 17.6626 56.9189 16.9225 57.8384C16.2048 58.7354 15.846 60.0474 15.846 61.7742C15.846 63.5235 16.2048 64.8467 16.9225 65.7438C17.6402 66.6408 18.6718 67.0894 20.0174 67.0894Z" fill="#0068FF"/>
<path d="M53.8721 54.5416C54.0291 54.138 54.2533 53.8352 54.5449 53.6334C54.8589 53.4315 55.1953 53.3306 55.5541 53.3306C56.0699 53.3306 56.5297 53.51 56.9333 53.8688C57.3594 54.2052 57.5725 54.6313 57.5725 55.1472C57.5725 55.4387 57.5164 55.6966 57.4043 55.9209L51.8537 68.9396C51.6743 69.3657 51.3939 69.6908 51.0127 69.9151C50.6539 70.1394 50.2502 70.2515 49.8017 70.2515C49.3755 70.2515 48.9719 70.1394 48.5906 69.9151C48.2318 69.6908 47.9627 69.3657 47.7833 68.9396L43.7801 59.3185L39.9115 68.9396C39.7321 69.3657 39.4517 69.6908 39.0705 69.9151C38.7117 70.1394 38.308 70.2515 37.8595 70.2515C37.4333 70.2515 37.0297 70.1394 36.6484 69.9151C36.2672 69.6908 35.9868 69.3657 35.8074 68.9396L30.2905 55.9209C30.1783 55.6293 30.1223 55.3826 30.1223 55.1808C30.1223 54.665 30.3465 54.2277 30.7951 53.8688C31.2436 53.4876 31.737 53.297 32.2752 53.297C32.6565 53.297 33.0041 53.3979 33.3181 53.5997C33.632 53.8016 33.8675 54.1043 34.0245 54.508L37.994 64.7682L42.0645 54.6089C42.2439 54.1828 42.5018 53.8688 42.8382 53.667C43.1746 53.4427 43.5446 53.3306 43.9483 53.3306C44.352 53.3306 44.722 53.4427 45.0584 53.667C45.3948 53.8688 45.6527 54.1828 45.8321 54.6089L49.9362 64.8018L53.8721 54.5416Z" fill="#0068FF"/>
<path d="M73.2027 65.5756C73.584 65.5756 73.8868 65.7213 74.111 66.0129C74.3577 66.3044 74.4811 66.6969 74.4811 67.1903C74.4811 67.8855 74.0662 68.4686 73.2364 68.9396C72.4739 69.3657 71.6105 69.7133 70.6461 69.9824C69.6818 70.2291 68.7623 70.3524 67.8876 70.3524C65.2413 70.3524 63.1444 69.5899 61.5969 68.0649C60.0495 66.5399 59.2758 64.4542 59.2758 61.8079C59.2758 60.1259 59.6122 58.6345 60.285 57.3338C60.9578 56.033 61.8997 55.0238 63.1107 54.3062C64.3442 53.5885 65.7347 53.2297 67.2821 53.2297C68.7623 53.2297 70.0518 53.5549 71.1507 54.2052C72.2496 54.8556 73.1018 55.7751 73.7073 56.9637C74.3129 58.1523 74.6156 59.554 74.6156 61.1687C74.6156 62.1331 74.1895 62.6152 73.3373 62.6152H63.4135C63.5481 64.1627 63.9854 65.3064 64.7255 66.0465C65.4655 66.7642 66.542 67.123 67.9549 67.123C68.6726 67.123 69.3005 67.0333 69.8387 66.8539C70.3994 66.6745 71.0274 66.4278 71.7226 66.1138C72.3954 65.755 72.8888 65.5756 73.2027 65.5756ZM67.383 56.19C66.2393 56.19 65.3198 56.5488 64.6245 57.2665C63.9517 57.9841 63.5481 59.0158 63.4135 60.3614H71.0161C70.9713 58.9933 70.6349 57.9617 70.0069 57.2665C69.379 56.5488 68.5043 56.19 67.383 56.19Z" fill="#0068FF"/>
<path d="M87.239 53.297C87.8221 53.2521 88.2819 53.3754 88.6183 53.667C88.9547 53.9585 89.1229 54.3959 89.1229 54.979C89.1229 55.5845 88.9771 56.033 88.6855 56.3246C88.394 56.6161 87.867 56.8067 87.1045 56.8964L86.0953 56.9974C84.7721 57.1319 83.7965 57.5804 83.1686 58.343C82.5631 59.1055 82.2603 60.0586 82.2603 61.2024V68.2668C82.2603 68.9171 82.0585 69.4217 81.6548 69.7806C81.2511 70.117 80.7465 70.2852 80.141 70.2852C79.5355 70.2852 79.0309 70.117 78.6272 69.7806C78.2459 69.4217 78.0553 68.9171 78.0553 68.2668V55.2481C78.0553 54.6201 78.2459 54.138 78.6272 53.8016C79.0309 53.4652 79.5243 53.297 80.1073 53.297C80.6904 53.297 81.1614 53.4652 81.5202 53.8016C81.8791 54.1155 82.0585 54.5753 82.0585 55.1808V56.5264C82.4846 55.5396 83.1125 54.7771 83.9423 54.2389C84.7945 53.7006 85.7364 53.3979 86.7681 53.3306L87.239 53.297Z" fill="#0068FF"/>
<path d="M103.408 66.9212C104.664 66.9212 105.292 67.4482 105.292 68.5022C105.292 68.9956 105.135 69.3881 104.821 69.6796C104.507 69.9488 104.036 70.0833 103.408 70.0833H92.1723C91.6116 70.0833 91.1519 69.9039 90.793 69.5451C90.4342 69.1862 90.2548 68.7601 90.2548 68.2668C90.2548 67.7509 90.4566 67.2576 90.8603 66.7866L99.5058 56.7955H92.0041C91.3761 56.7955 90.9052 56.661 90.5912 56.3918C90.2772 56.1227 90.1202 55.7302 90.1202 55.2144C90.1202 54.6986 90.2772 54.3062 90.5912 54.037C90.9052 53.7679 91.3761 53.6334 92.0041 53.6334H102.87C103.453 53.6334 103.913 53.8128 104.249 54.1716C104.608 54.508 104.787 54.9341 104.787 55.4499C104.787 55.9882 104.597 56.4815 104.215 56.9301L95.5363 66.9212H103.408Z" fill="#0068FF"/>
<path d="M119.52 54.508C119.699 54.1043 119.935 53.8128 120.226 53.6334C120.54 53.4315 120.877 53.3306 121.236 53.3306C121.751 53.3306 122.211 53.51 122.615 53.8688C123.041 54.2052 123.254 54.6313 123.254 55.1472C123.254 55.3938 123.187 55.6518 123.052 55.9209L113.869 75.163C113.487 75.9255 112.893 76.3067 112.086 76.3067C111.57 76.3067 111.11 76.1385 110.706 75.8021C110.325 75.4881 110.134 75.0845 110.134 74.5911C110.134 74.3444 110.202 74.064 110.336 73.7501L112.624 68.9396L106.367 55.9209C106.255 55.6966 106.199 55.4387 106.199 55.1472C106.199 54.6313 106.412 54.194 106.838 53.8352C107.286 53.4764 107.791 53.297 108.352 53.297C108.733 53.297 109.08 53.3979 109.394 53.5997C109.708 53.7791 109.955 54.0707 110.134 54.4744L114.844 64.8691L119.52 54.508Z" fill="#0068FF"/>
<path d="M131.48 70.3524C129.036 70.3524 127.062 69.8703 125.559 68.9059C124.842 68.4798 124.483 67.8743 124.483 67.0894C124.483 66.6408 124.606 66.282 124.853 66.0129C125.1 65.7213 125.402 65.5756 125.761 65.5756C126.143 65.5756 126.67 65.755 127.342 66.1138C128.06 66.4502 128.71 66.7081 129.294 66.8875C129.899 67.0669 130.662 67.1566 131.581 67.1566C132.523 67.1566 133.252 66.9996 133.768 66.6857C134.306 66.3717 134.575 65.9344 134.575 65.3737C134.575 64.9925 134.463 64.6897 134.239 64.4654C134.037 64.2412 133.655 64.0393 133.095 63.8599C132.557 63.6581 131.727 63.4338 130.605 63.1871C128.609 62.7834 127.174 62.2116 126.3 61.4715C125.447 60.7314 125.021 59.711 125.021 58.4102C125.021 57.4235 125.313 56.5376 125.896 55.7527C126.479 54.9453 127.275 54.3286 128.284 53.9025C129.316 53.4539 130.482 53.2297 131.783 53.2297C132.725 53.2297 133.633 53.353 134.508 53.5997C135.382 53.824 136.167 54.1604 136.863 54.6089C137.58 55.0574 137.939 55.6518 137.939 56.3918C137.939 56.8404 137.816 57.2216 137.569 57.5356C137.322 57.8271 137.019 57.9729 136.661 57.9729C136.414 57.9729 136.167 57.9281 135.921 57.8384C135.696 57.7262 135.405 57.5692 135.046 57.3674C134.396 57.031 133.835 56.7843 133.364 56.6273C132.893 56.4479 132.31 56.3582 131.615 56.3582C130.785 56.3582 130.123 56.5264 129.63 56.8628C129.159 57.1992 128.923 57.6589 128.923 58.242C128.923 58.8027 129.17 59.2288 129.664 59.5204C130.157 59.8119 131.11 60.1035 132.523 60.395C134.026 60.709 135.203 61.0678 136.055 61.4715C136.907 61.8752 137.513 62.3798 137.872 62.9853C138.253 63.5908 138.444 64.3645 138.444 65.3064C138.444 66.8314 137.804 68.0537 136.526 68.9732C135.27 69.8927 133.588 70.3524 131.48 70.3524Z" fill="#0068FF"/>
<path d="M150.233 67.1566C151.355 67.2239 151.915 67.7285 151.915 68.6704C151.915 69.2087 151.691 69.6236 151.243 69.9151C150.816 70.1842 150.2 70.2964 149.392 70.2515L148.484 70.1842C144.716 69.9151 142.833 67.8967 142.833 64.129V56.7955H141.151C140.545 56.7955 140.074 56.661 139.738 56.3918C139.424 56.1227 139.267 55.7302 139.267 55.2144C139.267 54.6986 139.424 54.3062 139.738 54.037C140.074 53.7679 140.545 53.6334 141.151 53.6334H142.833V50.5385C142.833 49.933 143.023 49.4508 143.404 49.092C143.786 48.7331 144.301 48.5537 144.952 48.5537C145.58 48.5537 146.084 48.7331 146.466 49.092C146.847 49.4508 147.038 49.933 147.038 50.5385V53.6334H149.897C150.502 53.6334 150.962 53.7679 151.276 54.037C151.613 54.3062 151.781 54.6986 151.781 55.2144C151.781 55.7302 151.613 56.1227 151.276 56.3918C150.962 56.661 150.502 56.7955 149.897 56.7955H147.038V64.4318C147.038 66.0914 147.8 66.9772 149.325 67.0894L150.233 67.1566Z" fill="#0068FF"/>
<path d="M161.238 53.2297C163.526 53.2297 165.219 53.8016 166.318 54.9453C167.439 56.0666 168 57.7823 168 60.0922V68.3004C168 68.9059 167.821 69.3881 167.462 69.7469C167.103 70.0833 166.61 70.2515 165.982 70.2515C165.398 70.2515 164.916 70.0721 164.535 69.7133C164.176 69.3545 163.997 68.8835 163.997 68.3004V67.5603C163.616 68.435 163.01 69.119 162.18 69.6124C161.373 70.1057 160.431 70.3524 159.355 70.3524C158.256 70.3524 157.258 70.1282 156.361 69.6796C155.463 69.2311 154.757 68.6144 154.241 67.8294C153.725 67.0445 153.468 66.1699 153.468 65.2055C153.468 63.9945 153.77 63.0413 154.376 62.3461C155.004 61.6509 156.013 61.1463 157.403 60.8323C158.794 60.5183 160.711 60.3614 163.156 60.3614H163.997V59.5876C163.997 58.4887 163.761 57.6926 163.29 57.1992C162.819 56.6834 162.057 56.4255 161.003 56.4255C160.353 56.4255 159.691 56.5264 159.018 56.7282C158.345 56.9076 157.549 57.1768 156.63 57.5356C156.047 57.8271 155.62 57.9729 155.351 57.9729C154.948 57.9729 154.611 57.8271 154.342 57.5356C154.095 57.244 153.972 56.8628 153.972 56.3918C153.972 56.0106 154.062 55.6854 154.241 55.4163C154.443 55.1247 154.768 54.8556 155.217 54.6089C156.002 54.1828 156.932 53.8464 158.009 53.5997C159.108 53.353 160.184 53.2297 161.238 53.2297ZM160.196 67.3248C161.317 67.3248 162.225 66.9548 162.92 66.2147C163.638 65.4522 163.997 64.4767 163.997 63.288V62.5816H163.391C161.889 62.5816 160.723 62.6489 159.893 62.7834C159.063 62.918 158.469 63.1535 158.11 63.4899C157.751 63.8263 157.572 64.286 157.572 64.8691C157.572 65.5868 157.818 66.1811 158.312 66.652C158.827 67.1006 159.455 67.3248 160.196 67.3248Z" fill="#0068FF"/>
<g clip-path="url(#clip0)">
<path d="M49.2589 22.1685C44.0782 22.1685 39.8634 26.3833 39.8634 31.564C39.8634 36.7447 44.0782 40.9595 49.2589 40.9595C54.4396 40.9595 58.6544 36.7446 58.6544 31.564C58.6544 26.3834 54.4396 22.1685 49.2589 22.1685ZM49.2589 38.003C45.7085 38.003 42.82 35.1145 42.82 31.564C42.82 28.0136 45.7085 25.1252 49.2589 25.1252C52.8093 25.1252 55.6978 28.0137 55.6978 31.564C55.6978 35.1144 52.8093 38.003 49.2589 38.003Z" fill="#0068FF"/>
<path d="M58.7602 21.9586C58.1868 21.9586 57.6411 21.6228 57.4008 21.0623L54.686 14.7285C54.3643 13.978 54.7119 13.1089 55.4624 12.7873C56.2127 12.4657 57.0819 12.8132 57.4035 13.5636L60.1183 19.8974C60.44 20.6479 60.0924 21.5169 59.342 21.8386C59.1521 21.92 58.9546 21.9586 58.7602 21.9586Z" fill="#F7785A"/>
<path d="M80.9279 22.1685C75.7471 22.1685 71.5323 26.3834 71.5323 31.564C71.5323 36.7446 75.7471 40.9595 80.9279 40.9595C86.1086 40.9595 90.3234 36.7447 90.3234 31.564C90.3234 26.3833 86.1085 22.1685 80.9279 22.1685ZM80.9279 38.003C77.3774 38.003 74.489 35.1145 74.489 31.5641C74.489 28.0138 77.3774 25.1252 80.9279 25.1252C84.4783 25.1252 87.3667 28.0136 87.3667 31.564C87.3667 35.1145 84.4782 38.003 80.9279 38.003Z" fill="#0068FF"/>
<path d="M75.8161 15.5311C75.4647 15.0147 74.8264 14.7748 74.222 14.9321L58.3875 19.049C58.0954 19.125 57.8335 19.2885 57.6371 19.5177L48.1365 30.6018C47.7607 31.0402 47.6745 31.6571 47.9158 32.1817C48.1571 32.7062 48.6816 33.0422 49.2589 33.0422H63.5099C63.9822 33.0422 64.4261 32.8165 64.7044 32.4348L75.7886 17.2338C76.1566 16.7292 76.1677 16.0476 75.8161 15.5311ZM52.4732 30.0857L58.3364 23.2452L61.268 30.0857H52.4732ZM63.8456 28.5945L60.7957 21.4779L70.9621 18.8346L63.8456 28.5945Z" fill="#F7785A"/>
<path d="M60.343 15.6245H54.0092C53.1928 15.6245 52.5309 14.9626 52.5309 14.1461C52.5309 13.3297 53.1928 12.6678 54.0092 12.6678H60.343C61.1594 12.6678 61.8213 13.3297 61.8213 14.1461C61.8213 14.9626 61.1594 15.6245 60.343 15.6245Z" fill="#F7785A"/>
<path d="M82.2924 30.9954L74.3752 11.9941C74.0613 11.2404 73.1956 10.8841 72.4421 11.1981C71.6885 11.5122 71.3321 12.3776 71.6461 13.1312L79.5633 32.1326C79.8773 32.8862 80.7429 33.2426 81.4964 32.9286C82.2501 32.6146 82.6064 31.7491 82.2924 30.9954Z" fill="#0068FF"/>
<path d="M79.1633 10.5117C78.9051 9.7373 78.0684 9.31834 77.2934 9.57685L72.543 11.1601C71.7685 11.4183 71.3499 12.2556 71.6081 13.0301C71.8664 13.8046 72.7031 14.2235 73.4781 13.965L78.2285 12.3817C79.003 12.1235 79.4216 11.2863 79.1633 10.5117Z" fill="#0068FF"/>
</g>
<defs>
<clipPath id="clip0">
<rect width="50.46" height="50.46" fill="white" transform="translate(39.8634)"/>
</clipPath>
</defs>
</svg>
