<svg width="45" height="45" viewBox="0 0 45 45" fill="none" xmlns="http://www.w3.org/2000/svg">
<g clip-path="url(#clip0)">
<path d="M3.27445 3.19746H41.7259C42.501 3.19746 43.2444 3.50537 43.7924 4.05346C44.3405 4.60154 44.6484 5.3449 44.6484 6.12V41.0523C44.6484 41.8274 44.3405 42.5708 43.7924 43.1189C43.2444 43.6669 42.501 43.9748 41.7259 43.9748H3.27445C2.49932 43.9748 1.75592 43.667 1.20778 43.1189C0.659643 42.5708 0.351656 41.8274 0.351562 41.0523V6.12C0.351656 5.34487 0.659643 4.60151 1.20778 4.05343C1.75592 3.50536 2.49932 3.19746 3.27445 3.19746Z" fill="#E1E6E9"/>
<path d="M42.4078 3.28043C42.4364 3.44294 42.451 3.60761 42.4514 3.77261V40.2047C42.4514 40.5821 42.3014 40.9441 42.0346 41.211C41.7677 41.4779 41.4057 41.6278 41.0283 41.6278H1.07248C0.844148 41.6285 0.616604 41.601 0.39502 41.5459C0.511253 42.2255 0.863912 42.8421 1.3907 43.2869C1.91749 43.7316 2.58452 43.9759 3.27396 43.9766H41.6723C42.0631 43.9767 42.45 43.8999 42.8111 43.7505C43.1722 43.601 43.5002 43.3819 43.7766 43.1056C44.053 42.8294 44.2722 42.5014 44.4217 42.1404C44.5713 41.7794 44.6483 41.3924 44.6483 41.0017V6.12105C44.6498 5.46431 44.4293 4.82635 44.0226 4.3107C43.6158 3.79505 43.0468 3.43199 42.4078 3.28043Z" fill="#C1CDD3"/>
<path d="M41.7259 44.3268H3.27445C2.4063 44.3258 1.57397 43.9805 0.960093 43.3667C0.346215 42.7528 0.000930597 41.9205 0 41.0523L0 6.12C0.00102364 5.25191 0.34635 4.41967 0.960217 3.80587C1.57408 3.19207 2.40636 2.84683 3.27445 2.8459H41.7259C42.5939 2.84692 43.4261 3.1922 44.0399 3.80599C44.6537 4.41979 44.999 5.25197 45 6.12V41.0523C44.9991 41.9204 44.6538 42.7527 44.04 43.3665C43.4262 43.9804 42.594 44.3257 41.7259 44.3268ZM3.27445 3.54903C2.59278 3.54977 1.93924 3.82087 1.4572 4.30285C0.97515 4.78483 0.703963 5.43833 0.703125 6.12V41.0523C0.703962 41.7339 0.975101 42.3874 1.45707 42.8693C1.93904 43.3513 2.59249 43.6225 3.2741 43.6233H41.7259C42.4075 43.6225 43.061 43.3513 43.5429 42.8693C44.0249 42.3874 44.296 41.7339 44.2969 41.0523V6.12C44.296 5.4384 44.0249 4.78494 43.5429 4.30297C43.061 3.821 42.4075 3.54986 41.7259 3.54903H3.27445Z" fill="#2F3A5A"/>
<path d="M44.6484 13.2954V6.12001C44.6484 5.73618 44.5728 5.35612 44.4259 5.00152C44.279 4.64691 44.0637 4.32472 43.7923 4.05333C43.5209 3.78194 43.1987 3.56668 42.8441 3.41983C42.4894 3.27298 42.1094 3.19742 41.7255 3.19746H3.27445C2.89063 3.19742 2.51056 3.27298 2.15594 3.41983C1.80132 3.56668 1.4791 3.78194 1.20768 4.05333C0.936259 4.32472 0.720954 4.64691 0.574061 5.00152C0.427168 5.35612 0.351562 5.73618 0.351563 6.12001V13.2954H44.6484Z" fill="#EF5361"/>
<path d="M44.6484 6.12106V13.2929H0.351562V12.066H43.0256C43.0221 8.65582 43.3818 4.25145 41.7684 3.19887C42.5363 3.2095 43.269 3.52211 43.808 4.06903C44.347 4.61595 44.649 5.35316 44.6484 6.12106Z" fill="#DA2A47"/>
<path d="M44.6484 13.647H0.351562C0.258322 13.647 0.168901 13.6099 0.10297 13.544C0.0370395 13.4781 0 13.3886 0 13.2954V6.12C0.00102364 5.25191 0.34635 4.41967 0.960217 3.80587C1.57408 3.19207 2.40636 2.84683 3.27445 2.8459H41.7259C42.5939 2.84692 43.4261 3.1922 44.0399 3.80599C44.6537 4.41979 44.999 5.25197 45 6.12V13.2954C45 13.3886 44.963 13.4781 44.897 13.544C44.8311 13.6099 44.7417 13.647 44.6484 13.647ZM0.703125 12.9438H44.2969V6.12C44.296 5.4384 44.0249 4.78494 43.5429 4.30297C43.061 3.821 42.4075 3.54986 41.7259 3.54903H3.27445C2.59278 3.54977 1.93924 3.82087 1.4572 4.30285C0.97515 4.78483 0.703963 5.43833 0.703125 6.12V12.9438Z" fill="#2F3A5A"/>
<path d="M17.5533 36.1818H16.147V22.3984C15.6463 22.8849 15.063 23.2785 14.4244 23.5607L13.8481 22.2778C14.3961 22.0572 14.8881 21.7175 15.2887 21.2834C15.6892 20.8492 15.9883 20.3315 16.1642 19.7677L17.5536 19.9202L17.5533 36.1818Z" fill="#84879C"/>
<path d="M17.5532 36.5333H16.147C16.0537 36.5333 15.9643 36.4963 15.8984 36.4303C15.8324 36.3644 15.7954 36.275 15.7954 36.1818V23.1616C15.414 23.4461 15.0023 23.6875 14.5677 23.8813C14.4828 23.9194 14.3863 23.9224 14.2992 23.8894C14.2121 23.8565 14.1417 23.7903 14.1033 23.7055L13.5271 22.4227C13.4888 22.3377 13.4859 22.241 13.5188 22.1539C13.5518 22.0667 13.618 21.9963 13.7029 21.9579C14.2023 21.7604 14.6514 21.4542 15.0177 21.0615C15.3839 20.6688 15.6581 20.1994 15.8204 19.6875C15.8397 19.6036 15.8892 19.5297 15.9595 19.4798C16.0297 19.43 16.1158 19.4077 16.2014 19.4171L17.5908 19.5697C17.6769 19.5792 17.7565 19.62 17.8143 19.6845C17.8721 19.749 17.9041 19.8326 17.9041 19.9192V36.1811C17.9042 36.2272 17.8952 36.273 17.8776 36.3156C17.86 36.3583 17.8342 36.3971 17.8016 36.4299C17.769 36.4626 17.7303 36.4885 17.6877 36.5063C17.6451 36.524 17.5994 36.5332 17.5532 36.5333ZM16.4985 35.8302H17.2016V20.2352L16.4089 20.148C16.0081 21.1412 15.2623 21.9564 14.3086 22.4437L14.5973 23.0868C15.0757 22.84 15.515 22.5238 15.9009 22.1484C15.9503 22.1 16.0129 22.0672 16.0809 22.0542C16.1489 22.0412 16.2193 22.0486 16.2831 22.0754C16.3469 22.1022 16.4014 22.1472 16.4397 22.2049C16.4781 22.2625 16.4985 22.3302 16.4985 22.3994V35.8302Z" fill="#2F3A5A"/>
<path d="M30.1143 30.4611V18.957H29.1468L28.7988 19.575C26.3174 23.9787 23.4163 27.5326 20.1689 30.1525V31.8674H28.7084V35.0933H30.1147V31.8674H32.5197V30.4611H30.1143ZM28.7081 30.4611H21.9872C24.5953 28.1278 26.8582 25.4354 28.7081 22.4648V30.4611Z" fill="#84879C"/>
<path d="M30.1143 35.4449H28.7081C28.6148 35.4449 28.5254 35.4078 28.4595 35.3419C28.3935 35.276 28.3565 35.1866 28.3565 35.0933V32.2189H20.1689C20.0757 32.2189 19.9863 32.1819 19.9204 32.116C19.8544 32.05 19.8174 31.9606 19.8174 31.8674V30.1521C19.8174 30.0997 19.8291 30.0479 19.8518 30.0005C19.8744 29.9532 19.9073 29.9115 19.9482 29.8786C23.1611 27.2869 26.0355 23.7614 28.4911 19.402L28.8392 18.784C28.8698 18.7297 28.9143 18.6845 28.9681 18.6531C29.0219 18.6216 29.0831 18.6051 29.1454 18.605H30.1129C30.2061 18.605 30.2956 18.6421 30.3615 18.708C30.4274 18.7739 30.4645 18.8634 30.4645 18.9566V30.1096H32.5197C32.6129 30.1096 32.7024 30.1466 32.7683 30.2125C32.8342 30.2785 32.8713 30.3679 32.8713 30.4611V31.8674C32.8713 31.9606 32.8342 32.05 32.7683 32.116C32.7024 32.1819 32.6129 32.2189 32.5197 32.2189H30.4659V35.0933C30.4659 35.1866 30.4288 35.276 30.3629 35.3419C30.297 35.4078 30.2075 35.4449 30.1143 35.4449ZM29.0596 34.7418H29.7627V31.8674C29.7627 31.7741 29.7998 31.6847 29.8657 31.6188C29.9316 31.5529 30.0211 31.5158 30.1143 31.5158H32.1681V30.8127H30.1143C30.0211 30.8127 29.9316 30.7757 29.8657 30.7097C29.7998 30.6438 29.7627 30.5544 29.7627 30.4611V19.3082H29.3521L29.106 19.7473C26.6377 24.126 23.75 27.6824 20.5205 30.3195V31.5148H28.7081C28.8013 31.5148 28.8907 31.5518 28.9566 31.6177C29.0226 31.6837 29.0596 31.7731 29.0596 31.8663V34.7418ZM28.7081 30.8127H21.9872C21.9157 30.8127 21.8459 30.7909 21.7872 30.7502C21.7284 30.7095 21.6834 30.6518 21.6582 30.5849C21.6331 30.518 21.6289 30.445 21.6463 30.3756C21.6637 30.3063 21.7018 30.2439 21.7555 30.1968C24.3376 27.884 26.5786 25.2166 28.4113 22.2743C28.4522 22.21 28.5128 22.1608 28.584 22.1339C28.6552 22.107 28.7333 22.104 28.8064 22.1253C28.8794 22.1466 28.9437 22.191 28.9893 22.252C29.035 22.3129 29.0597 22.387 29.0596 22.4631V30.4611C29.0596 30.5544 29.0226 30.6438 28.9566 30.7097C28.8907 30.7757 28.8013 30.8127 28.7081 30.8127ZM22.9002 30.1096H28.3565V23.6408C26.7894 25.9973 24.959 28.1675 22.9006 30.1096H22.9002Z" fill="#2F3A5A"/>
<path d="M8.83887 1.02341C8.65239 1.02341 8.47354 1.09749 8.34168 1.22935C8.20982 1.36121 8.13574 1.54005 8.13574 1.72653V5.37435C8.13574 5.56083 8.20982 5.73967 8.34168 5.87153C8.47354 6.00339 8.65239 6.07747 8.83887 6.07747C9.02535 6.07747 9.20419 6.00339 9.33605 5.87153C9.46791 5.73967 9.54199 5.56083 9.54199 5.37435V1.72653C9.54199 1.54005 9.46791 1.36121 9.33605 1.22935C9.20419 1.09749 9.02535 1.02341 8.83887 1.02341Z" fill="#84879C"/>
<path d="M8.83887 6.42903C8.55915 6.42903 8.29088 6.31791 8.09309 6.12012C7.8953 5.92233 7.78418 5.65406 7.78418 5.37434V1.72653C7.78418 1.44681 7.8953 1.17855 8.09309 0.980755C8.29088 0.782963 8.55915 0.671844 8.83887 0.671844C9.11859 0.671844 9.38685 0.782963 9.58464 0.980755C9.78244 1.17855 9.89355 1.44681 9.89355 1.72653V5.37434C9.89355 5.65406 9.78244 5.92233 9.58464 6.12012C9.38685 6.31791 9.11859 6.42903 8.83887 6.42903ZM8.83887 1.37497C8.74563 1.37497 8.65621 1.41201 8.59027 1.47794C8.52434 1.54387 8.4873 1.63329 8.4873 1.72653V5.37434C8.4873 5.46758 8.52434 5.55701 8.59027 5.62294C8.65621 5.68887 8.74563 5.72591 8.83887 5.72591C8.93211 5.72591 9.02153 5.68887 9.08746 5.62294C9.15339 5.55701 9.19043 5.46758 9.19043 5.37434V1.72653C9.19043 1.63329 9.15339 1.54387 9.08746 1.47794C9.02153 1.41201 8.93211 1.37497 8.83887 1.37497Z" fill="#2F3A5A"/>
<path d="M17.9463 1.02341C17.7598 1.02341 17.581 1.09749 17.4491 1.22935C17.3172 1.36121 17.2432 1.54005 17.2432 1.72653V5.37435C17.2432 5.56083 17.3172 5.73967 17.4491 5.87153C17.581 6.00339 17.7598 6.07747 17.9463 6.07747C18.1328 6.07747 18.3116 6.00339 18.4435 5.87153C18.5753 5.73967 18.6494 5.56083 18.6494 5.37435V1.72653C18.6494 1.54005 18.5753 1.36121 18.4435 1.22935C18.3116 1.09749 18.1328 1.02341 17.9463 1.02341Z" fill="#84879C"/>
<path d="M17.9463 6.42903C17.6666 6.42903 17.3983 6.31791 17.2005 6.12012C17.0027 5.92233 16.8916 5.65406 16.8916 5.37434V1.72653C16.8916 1.44681 17.0027 1.17855 17.2005 0.980755C17.3983 0.782963 17.6666 0.671844 17.9463 0.671844C18.226 0.671844 18.4943 0.782963 18.6921 0.980755C18.8899 1.17855 19.001 1.44681 19.001 1.72653V5.37434C19.001 5.65406 18.8899 5.92233 18.6921 6.12012C18.4943 6.31791 18.226 6.42903 17.9463 6.42903ZM17.9463 1.37497C17.853 1.37497 17.7636 1.41201 17.6977 1.47794C17.6318 1.54387 17.5947 1.63329 17.5947 1.72653V5.37434C17.5947 5.46758 17.6318 5.55701 17.6977 5.62294C17.7636 5.68887 17.853 5.72591 17.9463 5.72591C18.0395 5.72591 18.129 5.68887 18.1949 5.62294C18.2608 5.55701 18.2979 5.46758 18.2979 5.37434V1.72653C18.2979 1.63329 18.2608 1.54387 18.1949 1.47794C18.129 1.41201 18.0395 1.37497 17.9463 1.37497Z" fill="#2F3A5A"/>
<path d="M27.0537 1.02341C26.8672 1.02341 26.6884 1.09749 26.5565 1.22935C26.4247 1.36121 26.3506 1.54005 26.3506 1.72653V5.37435C26.3506 5.56083 26.4247 5.73967 26.5565 5.87153C26.6884 6.00339 26.8672 6.07747 27.0537 6.07747C27.2402 6.07747 27.419 6.00339 27.5509 5.87153C27.6828 5.73967 27.7568 5.56083 27.7568 5.37435V1.72653C27.7568 1.54005 27.6828 1.36121 27.5509 1.22935C27.419 1.09749 27.2402 1.02341 27.0537 1.02341Z" fill="#84879C"/>
<path d="M27.0537 6.42903C26.774 6.42903 26.5057 6.31791 26.3079 6.12012C26.1101 5.92233 25.999 5.65406 25.999 5.37434V1.72653C25.999 1.44681 26.1101 1.17855 26.3079 0.980755C26.5057 0.782963 26.774 0.671844 27.0537 0.671844C27.3334 0.671844 27.6017 0.782963 27.7995 0.980755C27.9973 1.17855 28.1084 1.44681 28.1084 1.72653V5.37434C28.1084 5.65406 27.9973 5.92233 27.7995 6.12012C27.6017 6.31791 27.3334 6.42903 27.0537 6.42903ZM27.0537 1.37497C26.9605 1.37497 26.871 1.41201 26.8051 1.47794C26.7392 1.54387 26.7021 1.63329 26.7021 1.72653V5.37434C26.7021 5.46758 26.7392 5.55701 26.8051 5.62294C26.871 5.68887 26.9605 5.72591 27.0537 5.72591C27.147 5.72591 27.2364 5.68887 27.3023 5.62294C27.3682 5.55701 27.4053 5.46758 27.4053 5.37434V1.72653C27.4053 1.63329 27.3682 1.54387 27.3023 1.47794C27.2364 1.41201 27.147 1.37497 27.0537 1.37497Z" fill="#2F3A5A"/>
<path d="M36.1611 1.02341C35.9747 1.02341 35.7958 1.09749 35.6639 1.22935C35.5321 1.36121 35.458 1.54005 35.458 1.72653V5.37435C35.458 5.56083 35.5321 5.73967 35.6639 5.87153C35.7958 6.00339 35.9747 6.07747 36.1611 6.07747C36.3476 6.07747 36.5265 6.00339 36.6583 5.87153C36.7902 5.73967 36.8643 5.56083 36.8643 5.37435V1.72653C36.8643 1.54005 36.7902 1.36121 36.6583 1.22935C36.5265 1.09749 36.3476 1.02341 36.1611 1.02341Z" fill="#84879C"/>
<path d="M36.1611 6.42903C35.8814 6.42903 35.6131 6.31791 35.4154 6.12012C35.2176 5.92233 35.1064 5.65406 35.1064 5.37434V1.72653C35.1064 1.44681 35.2176 1.17855 35.4154 0.980755C35.6131 0.782963 35.8814 0.671844 36.1611 0.671844C36.4409 0.671844 36.7091 0.782963 36.9069 0.980755C37.1047 1.17855 37.2158 1.44681 37.2158 1.72653V5.37434C37.2158 5.65406 37.1047 5.92233 36.9069 6.12012C36.7091 6.31791 36.4409 6.42903 36.1611 6.42903ZM36.1611 1.37497C36.0679 1.37497 35.9785 1.41201 35.9125 1.47794C35.8466 1.54387 35.8096 1.63329 35.8096 1.72653V5.37434C35.8096 5.46758 35.8466 5.55701 35.9125 5.62294C35.9785 5.68887 36.0679 5.72591 36.1611 5.72591C36.2544 5.72591 36.3438 5.68887 36.4097 5.62294C36.4757 5.55701 36.5127 5.46758 36.5127 5.37434V1.72653C36.5127 1.63329 36.4757 1.54387 36.4097 1.47794C36.3438 1.41201 36.2544 1.37497 36.1611 1.37497Z" fill="#2F3A5A"/>
</g>
<defs>
<clipPath id="clip0">
<rect width="45" height="45" fill="white"/>
</clipPath>
</defs>
</svg>
