<svg width="70" height="70" viewBox="0 0 70 70" fill="none" xmlns="http://www.w3.org/2000/svg">
<rect y="8" width="70" height="62" fill="#121D44"/>
<rect x="2" width="4" height="8" fill="#6A6A6A"/>
<rect x="18" width="4" height="8" fill="#6A6A6A"/>
<rect x="34" width="4" height="8" fill="#6A6A6A"/>
<rect x="50" width="4" height="8" fill="#6A6A6A"/>
<rect x="65" width="4" height="8" fill="#6A6A6A"/>
<rect y="8" width="70" height="11" fill="#1255B8"/>
<rect x="8" y="19" width="54" height="45" fill="#F8F8F8"/>
<path d="M25.28 28.08C25.52 28.0533 25.8133 28.04 26.16 28.04C26.5067 28.04 26.8267 28.0533 27.12 28.08C27.4133 28.1067 27.6667 28.12 27.88 28.12C27.5067 31 27.32 34.9867 27.32 40.08C27.32 45.1467 27.4267 48.9467 27.64 51.48L31.52 51.8C31.5733 52.2267 31.6 52.6 31.6 52.92C31.6 53.2133 31.56 53.5867 31.48 54.04C29.9067 54.0133 28.0267 54 25.84 54C23.6533 54 21.7867 54.0133 20.24 54.04C20.16 53.64 20.12 53.2933 20.12 53C20.12 52.68 20.1467 52.28 20.2 51.8L24 51.48C24.2133 48.6267 24.32 45.0933 24.32 40.88C24.32 36.64 24.24 33.64 24.08 31.88C21.0933 33.8533 19.3467 35.0933 18.84 35.6C17.8 34.4533 17.1867 33.3867 17 32.4C18.7067 31.7067 21.4667 30.2667 25.28 28.08Z" fill="#FF4A4A"/>
<path d="M42.16 28.44C42.96 28.1733 43.7867 28.04 44.64 28.04C45.4933 28.04 46.6133 28.0933 48 28.2C47.6267 31.16 47.44 34.36 47.44 37.8C47.44 41.24 47.4533 43.3867 47.48 44.24C48.8133 44.1333 49.6133 44.04 49.88 43.96C49.9867 44.3867 50.04 44.92 50.04 45.56C50.04 46.2 49.9333 46.84 49.72 47.48C48.76 47.3733 48.04 47.3067 47.56 47.28C47.6133 49.04 47.6933 50.5067 47.8 51.68L49.24 51.8C49.2933 52.2267 49.32 52.6 49.32 52.92C49.32 53.2133 49.28 53.5867 49.2 54.04C48.2667 54.0133 47.1867 54 45.96 54C44.7333 54 43.6667 54.0133 42.76 54.04C42.68 53.64 42.64 53.2933 42.64 53C42.64 52.68 42.6667 52.28 42.72 51.8L44.12 51.68C44.2267 50.2667 44.3067 48.76 44.36 47.16C43.5333 47.1333 41.6267 47.12 38.64 47.12C35.68 47.12 33.5067 47.2 32.12 47.36C32.04 47.12 32 46.64 32 45.92C32.4 45.3067 33.0533 44.2667 33.96 42.8C34.8933 41.3067 35.5467 40.2667 35.92 39.68C36.2933 39.0933 36.84 38.2133 37.56 37.04C38.28 35.84 38.8533 34.8667 39.28 34.12C40.4 32.0667 41.36 30.1733 42.16 28.44ZM36.4 44.48C37.3867 44.5067 38.5333 44.52 39.84 44.52C41.1467 44.52 42.68 44.4933 44.44 44.44V41.72C44.44 36.4667 44.3333 32.84 44.12 30.84C42.1733 33.56 39.6 38.1067 36.4 44.48Z" fill="#FF4A4A"/>
</svg>
