<svg width="71" height="64" viewBox="0 0 71 64" fill="none" xmlns="http://www.w3.org/2000/svg">
<circle cx="35.6457" cy="36.586" r="16.5486" stroke="#114CA0" stroke-opacity="0.7" stroke-width="10"/>
<path d="M22.2553 51.4371C23.0095 49.1157 26.2936 49.1157 27.0479 51.4371V51.4371C27.3852 52.4752 28.3526 53.1781 29.4442 53.1781V53.1781C31.885 53.1781 32.8999 56.3015 30.9252 57.7362V57.7362C30.0421 58.3778 29.6726 59.5151 30.0099 60.5532V60.5532C30.7642 62.8746 28.1073 64.805 26.1326 63.3703V63.3703C25.2495 62.7287 24.0537 62.7287 23.1706 63.3703V63.3703C21.1959 64.805 18.539 62.8746 19.2932 60.5532V60.5532C19.6306 59.5151 19.261 58.3778 18.3779 57.7362V57.7362C16.4033 56.3015 17.4181 53.1781 19.8589 53.1781V53.1781C20.9505 53.1781 21.9179 52.4752 22.2553 51.4371V51.4371Z" fill="#FFB21D"/>
<path d="M48.1573 51.4371C47.4031 49.1157 44.119 49.1157 43.3647 51.4371V51.4371C43.0274 52.4752 42.06 53.1781 40.9684 53.1781V53.1781C38.5275 53.1781 37.5127 56.3015 39.4874 57.7362V57.7362C40.3705 58.3778 40.74 59.5151 40.4027 60.5532V60.5532C39.6484 62.8746 42.3053 64.805 44.28 63.3703V63.3703C45.1631 62.7287 46.3589 62.7287 47.242 63.3703V63.3703C49.2167 64.805 51.8736 62.8746 51.1194 60.5532V60.5532C50.782 59.5151 51.1516 58.3778 52.0347 57.7362V57.7362C54.0093 56.3015 52.9945 53.1781 50.5537 53.1781V53.1781C49.4621 53.1781 48.4947 52.4752 48.1573 51.4371V51.4371Z" fill="#FFB21D"/>
<path d="M8.9492 28.0379C9.73907 25.6069 13.1782 25.6069 13.9681 28.0379L14.8156 30.6462C15.1688 31.7334 16.182 32.4694 17.3251 32.4694H20.0676C22.6237 32.4694 23.6864 35.7403 21.6185 37.2427L19.3998 38.8547C18.475 39.5266 18.088 40.7176 18.4412 41.8048L19.2887 44.4131C20.0786 46.8441 17.2963 48.8656 15.2283 47.3631L13.0096 45.7511C12.0848 45.0792 10.8325 45.0792 9.90773 45.7511L7.68897 47.3631C5.62106 48.8656 2.83871 46.8441 3.62858 44.4131L4.47607 41.8048C4.82931 40.7176 4.44234 39.5266 3.51754 38.8547L1.29878 37.2427C-0.769125 35.7403 0.293639 32.4694 2.84971 32.4694H5.59225C6.73536 32.4694 7.74847 31.7334 8.10171 30.6462L8.9492 28.0379Z" fill="#FFB21D"/>
<path d="M61.4629 28.0379C60.673 25.6069 57.2339 25.6069 56.444 28.0379L55.5965 30.6462C55.2433 31.7334 54.2302 32.4694 53.087 32.4694H50.3445C47.7884 32.4694 46.7257 35.7403 48.7936 37.2427L51.0123 38.8547C51.9371 39.5266 52.3241 40.7176 51.9709 41.8048L51.1234 44.4131C50.3335 46.8441 53.1159 48.8656 55.1838 47.3631L57.4025 45.7511C58.3273 45.0792 59.5796 45.0792 60.5044 45.7511L62.7231 47.3631C64.7911 48.8656 67.5734 46.8441 66.7835 44.4131L65.936 41.8048C65.5828 40.7176 65.9698 39.5266 66.8946 38.8547L69.1133 37.2427C71.1812 35.7403 70.1185 32.4694 67.5624 32.4694H64.8199C63.6767 32.4694 62.6636 31.7334 62.3104 30.6462L61.4629 28.0379Z" fill="#FFB21D"/>
<path d="M37.715 2.53143C36.9252 0.100461 33.486 0.100466 32.6961 2.53144L30.8613 8.17846C30.5081 9.26562 29.495 10.0017 28.3519 10.0017H22.4142C19.8581 10.0017 18.7954 13.2725 20.8633 14.775L25.6669 18.265C26.5917 18.9369 26.9787 20.1279 26.6255 21.2151L24.7906 26.8621C24.0008 29.293 26.7831 31.3145 28.851 29.8121L33.6547 26.3221C34.5795 25.6502 35.8317 25.6502 36.7565 26.3221L41.5602 29.8121C43.6281 31.3145 46.4104 29.293 45.6206 26.8621L43.7857 21.2151C43.4325 20.1279 43.8195 18.9369 44.7443 18.265L49.5479 14.775C51.6158 13.2725 50.553 10.0017 47.997 10.0017H42.0593C40.9162 10.0017 39.9031 9.26562 39.5499 8.17846L37.715 2.53143Z" fill="#FFB21D"/>
</svg>
