<svg width="45" height="45" viewBox="0 0 45 45" fill="none" xmlns="http://www.w3.org/2000/svg">
<g clip-path="url(#clip0)">
<path d="M22.5001 39.7123C30.8797 39.7123 37.6726 32.9194 37.6726 24.5398C37.6726 16.1603 30.8797 9.36732 22.5001 9.36732C14.1206 9.36732 7.32764 16.1603 7.32764 24.5398C7.32764 32.9194 14.1206 39.7123 22.5001 39.7123Z" fill="url(#paint0_linear)"/>
<path d="M22.5 35.4183C28.508 35.4183 33.3785 30.5478 33.3785 24.5398C33.3785 18.5318 28.508 13.6614 22.5 13.6614C16.492 13.6614 11.6216 18.5318 11.6216 24.5398C11.6216 30.5478 16.492 35.4183 22.5 35.4183Z" fill="url(#paint1_linear)"/>
<path d="M31.049 37.0756L14.9809 21.0075C14.6829 20.6774 14.2701 20.4379 13.7648 20.3645L12.6107 20.1968L9.36014 16.9498C8.06775 19.1824 7.32764 21.7745 7.32764 24.5398C7.32764 32.9194 14.1206 39.7123 22.5001 39.7123C25.6712 39.7124 28.6146 38.739 31.049 37.0756Z" fill="url(#paint2_linear)"/>
<path d="M14.9562 13.6931C15.4053 14.2916 15.5954 15.0533 15.4668 15.8028L15.0475 18.2472C14.8626 19.3256 15.3121 20.2796 16.0516 20.8626L31.7529 36.5639C35.3527 33.7896 37.6725 29.436 37.6725 24.5398C37.6725 16.1603 30.8796 9.36732 22.5 9.36732C19.153 9.36732 16.0598 10.4519 13.5508 12.2877L14.9562 13.6931Z" fill="url(#paint3_linear)"/>
<path d="M37.6727 24.5398C37.6727 21.7788 36.9349 19.1902 35.6462 16.96C35.5589 17.0712 35.4804 17.1937 35.4136 17.3291L34.5972 18.9831C34.3001 19.5853 33.7256 20.0028 33.061 20.0993L31.2356 20.3645C29.562 20.6077 28.8937 22.6644 30.1047 23.8448L31.6359 25.376L31.6425 25.3824C31.9695 25.8254 32.1071 26.3863 32.0124 26.9383L31.7006 28.7563C31.5722 29.5048 31.8549 30.1727 32.3403 30.611L34.9466 33.2174C36.6643 30.7583 37.6727 27.767 37.6727 24.5398Z" fill="url(#paint4_linear)"/>
<path d="M23.6403 37.2776C23.4215 37.0641 23.2733 36.8179 23.1894 36.5603C22.863 35.572 23.4691 34.4091 24.6268 34.2414L26.2194 34.0094C26.7991 33.9256 27.3003 33.5612 27.5597 33.0362L28.2718 31.5926C28.8541 30.412 30.4194 30.2859 31.2135 31.2141L34.0935 34.0932L34.2674 34.1188C32.1806 36.6794 29.2741 38.5456 25.9477 39.3185C25.7386 39.367 25.5286 39.4111 25.3159 39.4509C25.278 39.1509 25.1633 38.8641 24.9815 38.6188L23.6403 37.2776Z" fill="url(#paint5_linear)"/>
<path d="M25.9473 39.3185C25.7382 39.367 25.5282 39.4112 25.3156 39.4509C24.4032 39.622 23.4617 39.712 22.5 39.712C17.7529 39.712 13.515 37.5326 10.7329 34.1188L11.4838 34.0094C12.0635 33.9256 12.5647 33.5612 12.8241 33.0362L13.5361 31.5926C14.1194 30.412 15.6847 30.2859 16.4788 31.2141L19.3579 34.0932L20.3735 34.2415C20.8332 34.3076 21.2056 34.5317 21.4676 34.8388L25.9473 39.3185Z" fill="url(#paint6_linear)"/>
<path d="M24.96 2.88247L26.0577 5.10644C26.4573 5.91617 27.2298 6.47735 28.1234 6.60723L30.5777 6.96388C32.828 7.29088 33.7265 10.0562 32.0982 11.6433L30.3222 13.3745C29.6756 14.0048 29.3805 14.9129 29.5332 15.8028L29.9525 18.2472C30.3368 20.4884 27.9846 22.1974 25.9718 21.1393L23.7766 19.9852C22.9774 19.565 22.0226 19.565 21.2234 19.9852L19.0282 21.1393C17.0155 22.1974 14.6632 20.4884 15.0475 18.2472L15.4668 15.8028C15.6195 14.9129 15.3244 14.0048 14.6778 13.3745L12.9018 11.6433C11.2735 10.0562 12.172 7.29088 14.4223 6.96388L16.8766 6.60723C17.7702 6.47735 18.5427 5.91617 18.9423 5.10644L20.04 2.88247C21.046 0.843438 23.9537 0.843438 24.96 2.88247Z" fill="url(#paint7_linear)"/>
<path d="M17.8604 6.2632C17.5613 6.43711 17.2287 6.55605 16.8766 6.60723L14.4223 6.96388C12.172 7.29088 11.2735 10.0562 12.9018 11.6433L14.6778 13.3745C15.3244 14.0048 15.6195 14.9129 15.4668 15.8028L15.0475 18.2473C14.6632 20.4885 17.0154 22.1975 19.0282 21.1394L21.2234 19.9853C22.0226 19.5651 22.9774 19.5651 23.7766 19.9853L25.9718 21.1394C26.9259 21.6409 27.9558 21.5201 28.7348 21.0161L17.8604 6.2632Z" fill="url(#paint8_linear)"/>
<path d="M32.0979 11.6434L30.3221 13.3751C29.9178 13.7688 29.6519 14.2693 29.5462 14.807C29.4812 15.131 29.4753 15.4679 29.5334 15.8023L29.9527 18.2471C30.1548 19.4259 29.5997 20.4572 28.7356 21.0159C27.9563 21.52 26.9261 21.6407 25.9714 21.139L23.7764 19.9857C23.3769 19.7756 22.9391 19.671 22.5 19.671V12.5726L22.5162 12.5772L22.5093 12.5703L22.5001 12.5563V1.35344C23.478 1.35344 24.4571 1.86326 24.9599 2.883L26.0575 5.10591C26.2991 5.5972 26.6788 5.99673 27.1399 6.26382C27.4384 6.438 27.7717 6.5565 28.1237 6.60759L30.5777 6.96415C31.8784 7.15226 32.7274 8.15576 32.897 9.27529C33.0224 10.093 32.7855 10.9733 32.0979 11.6434Z" fill="url(#paint9_linear)"/>
<path d="M15.4542 14.8075C15.5182 15.1314 15.5242 15.4684 15.4668 15.8029L15.0475 18.2473C14.6631 20.4885 17.0154 22.1975 19.0281 21.1394L21.2233 19.9853C22.0226 19.5651 22.9774 19.5651 23.7766 19.9853L25.9718 21.1394C27.9845 22.1975 30.3368 20.4885 29.9525 18.2473L29.5333 15.8029C29.3806 14.9129 29.6757 14.0048 30.3223 13.3745L32.0983 11.6433C32.7856 10.9734 33.0212 10.0937 32.8964 9.27582L15.4542 14.8075Z" fill="url(#paint10_linear)"/>
<path d="M29.5333 15.8029C29.476 15.4684 29.4819 15.1314 29.5459 14.8075L12.1037 9.27582C11.979 10.0937 12.2145 10.9734 12.9019 11.6433L14.6779 13.3745C15.3245 14.0048 15.6195 14.9129 15.4669 15.8029L15.0476 18.2473C14.6632 20.4885 17.0155 22.1975 19.0282 21.1394L21.2234 19.9853C22.0227 19.5651 22.9775 19.5651 23.7767 19.9853L25.9719 21.1394C27.9846 22.1975 30.3369 20.4885 29.9526 18.2473L29.5333 15.8029Z" fill="url(#paint11_linear)"/>
<path d="M30.5776 6.96388L28.1232 6.60723C27.7717 6.55614 27.4395 6.43746 27.1408 6.26399L16.2759 21.0235C17.0536 21.5214 18.0784 21.6385 19.0279 21.1393L21.2231 19.9852C22.0224 19.565 22.9772 19.565 23.7764 19.9852L25.9716 21.1393C27.9843 22.1974 30.3366 20.4884 29.9523 18.2472L29.5331 15.8028C29.3804 14.9128 29.6755 14.0047 30.3221 13.3744L32.0981 11.6433C33.7263 10.0562 32.8278 7.29088 30.5776 6.96388Z" fill="url(#paint12_linear)"/>
<path d="M9.58638 17.3291L10.4027 18.9831C10.6999 19.5853 11.2744 20.0028 11.939 20.0993L13.7643 20.3645C15.4379 20.6077 16.1062 22.6644 14.8951 23.8448L13.5743 25.1323C13.0934 25.6011 12.8739 26.2765 12.9875 26.9383L13.2993 28.7563C13.5852 30.4231 11.8357 31.6942 10.3388 30.9072L8.70623 30.0489C8.11179 29.7364 7.40167 29.7364 6.80732 30.0489L5.1747 30.9072C3.67779 31.6942 1.92835 30.4231 2.21423 28.7563L2.52606 26.9383C2.63961 26.2765 2.42017 25.601 1.93929 25.1323L0.618408 23.8448C-0.592622 22.6644 0.0756727 20.6077 1.74923 20.3645L3.57456 20.0993C4.23914 20.0028 4.81364 19.5853 5.11082 18.9831L5.92717 17.3291C6.67541 15.8126 8.83788 15.8126 9.58638 17.3291Z" fill="url(#paint13_linear)"/>
<path d="M4.3062 19.8435C4.08376 19.9728 3.83635 20.0613 3.57456 20.0994L1.74923 20.3646C0.0756727 20.6078 -0.592622 22.6645 0.618408 23.8449L1.93929 25.1324C2.42017 25.6012 2.63961 26.2765 2.52605 26.9384L2.21423 28.7564C1.92835 30.4232 3.67788 31.6943 5.1747 30.9073L6.80732 30.049C7.40176 29.7364 8.11188 29.7364 8.70623 30.049L10.3389 30.9073C11.0484 31.2804 11.8143 31.1905 12.3938 30.8156L4.3062 19.8435Z" fill="url(#paint14_linear)"/>
<path d="M14.8951 23.8449L13.5744 25.1328C13.2738 25.4256 13.076 25.7979 12.9974 26.1978C12.949 26.4387 12.9447 26.6892 12.9879 26.938L13.2997 28.7562C13.45 29.6329 13.0371 30.4 12.3945 30.8155C11.8149 31.1904 11.0487 31.2802 10.3387 30.907L8.70616 30.0493C8.40898 29.893 8.0834 29.8152 7.75684 29.8152V24.5358L7.76892 24.5393L7.76372 24.5341L7.75684 24.5237V16.1918C8.48416 16.1918 9.21228 16.571 9.58631 17.3294L10.4026 18.9827C10.5822 19.348 10.8647 19.6451 11.2076 19.8438C11.4296 19.9734 11.6775 20.0615 11.9393 20.0995L13.7644 20.3647C14.7318 20.5046 15.3633 21.2509 15.4893 22.0836C15.5826 22.6917 15.4064 23.3465 14.8951 23.8449Z" fill="url(#paint15_linear)"/>
<path d="M2.51653 26.1981C2.56409 26.439 2.56851 26.6897 2.52589 26.9384L2.21406 28.7564C1.92818 30.4232 3.67771 31.6943 5.17453 30.9073L6.80715 30.049C7.40159 29.7364 8.11171 29.7364 8.70606 30.049L10.3387 30.9073C11.8356 31.6943 13.585 30.4232 13.2992 28.7564L12.9873 26.9384C12.8738 26.2765 13.0932 25.6011 13.5741 25.1324L14.895 23.8449C15.4062 23.3466 15.5814 22.6923 15.4886 22.084L2.51653 26.1981Z" fill="url(#paint16_linear)"/>
<path d="M12.9877 26.9383C12.9449 26.6896 12.9494 26.4389 12.997 26.198L0.0247423 22.084C-0.0680813 22.6923 0.107154 23.3465 0.618389 23.8449L1.93927 25.1324C2.42015 25.6012 2.6396 26.2765 2.52604 26.9384L2.21421 28.7564C1.92833 30.4232 3.67786 31.6943 5.17468 30.9073L6.8073 30.049C7.40174 29.7364 8.11186 29.7364 8.70621 30.049L10.3388 30.9073C11.8357 31.6943 13.5852 30.4232 13.2993 28.7564L12.9877 26.9383Z" fill="url(#paint17_linear)"/>
<path d="M13.7645 20.3645L11.9392 20.0993C11.6778 20.0613 11.4307 19.973 11.2085 19.844L3.12793 30.8211C3.70631 31.1914 4.46849 31.2785 5.17472 30.9072L6.80734 30.0489C7.40178 29.7363 8.1119 29.7363 8.70625 30.0489L10.3389 30.9072C11.8358 31.6942 13.5852 30.4231 13.2993 28.7563L12.9875 26.9383C12.874 26.2765 13.0934 25.601 13.5743 25.1323L14.8952 23.8448C16.1064 22.6644 15.4381 20.6078 13.7645 20.3645Z" fill="url(#paint18_linear)"/>
<path d="M16.7288 31.5931L17.441 33.0361C17.7002 33.5614 18.2015 33.9256 18.7812 34.0099L20.3736 34.2412C21.8336 34.4533 22.4165 36.2475 21.36 37.2773L20.2078 38.4005C19.7882 38.8095 19.5968 39.3986 19.6958 39.9761L19.9679 41.562C20.2172 43.0161 18.691 44.125 17.3852 43.4384L15.9609 42.6896C15.4424 42.417 14.8229 42.417 14.3043 42.6896L12.88 43.4384C11.5741 44.125 10.0479 43.016 10.2974 41.562L10.5694 39.9761C10.6684 39.3986 10.477 38.8095 10.0575 38.4005L8.90519 37.2773C7.84875 36.2475 8.43172 34.4533 9.89167 34.2412L11.484 34.0099C12.0638 33.9256 12.565 33.5614 12.8243 33.0361L13.5364 31.5931C14.1893 30.2701 16.0759 30.2701 16.7288 31.5931Z" fill="url(#paint19_linear)"/>
<path d="M12.1224 33.7866C11.9283 33.8995 11.7125 33.9766 11.4841 34.0099L9.89169 34.2412C8.43166 34.4533 7.84877 36.2475 8.90522 37.2773L10.0575 38.4005C10.477 38.8095 10.6684 39.3987 10.5694 39.9761L10.2974 41.562C10.048 43.0161 11.5742 44.125 12.88 43.4384L14.3043 42.6897C14.8229 42.417 15.4424 42.417 15.961 42.6897L17.3853 43.4384C18.0042 43.7638 18.6724 43.6854 19.1779 43.3585L12.1224 33.7866Z" fill="url(#paint20_linear)"/>
<path d="M21.3596 37.2773L20.2074 38.4008C19.9452 38.6562 19.7726 38.981 19.7041 39.3299C19.6619 39.5402 19.6581 39.7587 19.6958 39.9757L19.9678 41.5619C20.0989 42.3267 19.7387 42.9959 19.1781 43.3584C18.6725 43.6854 18.0041 43.7638 17.3847 43.4382L15.9605 42.69C15.7013 42.5536 15.4172 42.4858 15.1323 42.4858V37.8802L15.1429 37.8832L15.1384 37.8787L15.1324 37.8696V30.6011C15.7669 30.6011 16.4021 30.9319 16.7284 31.5935L17.4405 33.0357C17.5972 33.3545 17.8436 33.6137 18.1427 33.787C18.3364 33.9 18.5527 33.9769 18.7809 34.01L20.3731 34.2414C21.2171 34.3634 21.768 35.0145 21.878 35.741C21.9594 36.2713 21.8056 36.8426 21.3596 37.2773Z" fill="url(#paint21_linear)"/>
<path d="M10.5614 39.3302C10.603 39.5404 10.6068 39.759 10.5695 39.976L10.2975 41.5619C10.0482 43.016 11.5744 44.1249 12.8802 43.4383L14.3044 42.6896C14.823 42.4169 15.4425 42.4169 15.9611 42.6896L17.3854 43.4383C18.6912 44.1249 20.2174 43.0159 19.968 41.5619L19.696 39.976C19.597 39.3986 19.7884 38.8094 20.2079 38.4004L21.3602 37.2772C21.8061 36.8425 21.959 36.2718 21.878 35.7411L10.5614 39.3302Z" fill="url(#paint22_linear)"/>
<path d="M19.696 39.976C19.6588 39.759 19.6627 39.5403 19.7041 39.3302L8.38744 35.7412C8.30644 36.2719 8.45935 36.8426 8.90529 37.2773L10.0576 38.4005C10.4771 38.8095 10.6685 39.3987 10.5695 39.9761L10.2975 41.562C10.0481 43.0161 11.5743 44.125 12.8801 43.4384L14.3044 42.6897C14.823 42.417 15.4425 42.417 15.961 42.6897L17.3853 43.4384C18.6912 44.125 20.2174 43.016 19.968 41.562L19.696 39.976Z" fill="url(#paint23_linear)"/>
<path d="M20.3738 34.2411L18.7814 34.0098C18.5533 33.9766 18.3378 33.8997 18.144 33.7871L11.0947 43.3633C11.5993 43.6863 12.2642 43.7623 12.8803 43.4384L14.3046 42.6897C14.8231 42.417 15.4426 42.417 15.9612 42.6897L17.3855 43.4384C18.6913 44.125 20.2176 43.0161 19.9681 41.562L19.6961 39.9761C19.5971 39.3987 19.7885 38.8095 20.208 38.4005L21.3603 37.2773C22.4168 36.2475 21.8338 34.4533 20.3738 34.2411Z" fill="url(#paint24_linear)"/>
<path d="M31.4632 31.5931L32.1754 33.0361C32.4346 33.5614 32.9359 33.9256 33.5156 34.0099L35.1079 34.2412C36.568 34.4533 37.1508 36.2475 36.0944 37.2773L34.9421 38.4005C34.5226 38.8095 34.3312 39.3986 34.4302 39.9761L34.7022 41.562C34.9516 43.0161 33.4254 44.125 32.1196 43.4384L30.6953 42.6896C30.1767 42.417 29.5572 42.417 29.0387 42.6896L27.6144 43.4384C26.3085 44.125 24.7823 43.016 25.0317 41.562L25.3038 39.9761C25.4028 39.3986 25.2114 38.8095 24.7918 38.4005L23.6396 37.2773C22.5831 36.2475 23.1661 34.4533 24.626 34.2412L26.2184 34.0099C26.7982 33.9256 27.2994 33.5614 27.5586 33.0361L28.2708 31.5931C28.9238 30.2701 30.8104 30.2701 31.4632 31.5931Z" fill="url(#paint25_linear)"/>
<path d="M26.8567 33.7866C26.6627 33.8995 26.4469 33.9766 26.2184 34.0099L24.6261 34.2412C23.166 34.4533 22.5832 36.2475 23.6396 37.2773L24.7919 38.4005C25.2114 38.8095 25.4028 39.3987 25.3038 39.9761L25.0318 41.562C24.7824 43.0161 26.3086 44.125 27.6144 43.4384L29.0387 42.6897C29.5573 42.417 30.1768 42.417 30.6953 42.6897L32.1196 43.4384C32.7386 43.7638 33.4068 43.6854 33.9123 43.3585L26.8567 33.7866Z" fill="url(#paint26_linear)"/>
<path d="M36.0944 37.2773L34.9422 38.4008C34.68 38.6562 34.5074 38.981 34.4388 39.3299C34.3967 39.5402 34.3929 39.7587 34.4305 39.9757L34.7026 41.5619C34.8337 42.3267 34.4735 42.9959 33.9129 43.3584C33.4073 43.6854 32.7389 43.7638 32.1195 43.4382L30.6953 42.69C30.436 42.5536 30.152 42.4858 29.8672 42.4858V37.8802L29.8778 37.8832L29.8733 37.8787L29.8673 37.8696V30.6011C30.5018 30.6011 31.137 30.9319 31.4633 31.5935L32.1753 33.0357C32.332 33.3545 32.5785 33.6137 32.8776 33.787C33.0713 33.9 33.2875 33.9769 33.5158 34.01L35.108 34.2414C35.952 34.3634 36.5028 35.0145 36.6129 35.741C36.6942 36.2713 36.5405 36.8426 36.0944 37.2773Z" fill="url(#paint27_linear)"/>
<path d="M25.2958 39.3302C25.3374 39.5404 25.3411 39.759 25.3039 39.976L25.0319 41.5619C24.7825 43.016 26.3087 44.1249 27.6145 43.4383L29.0388 42.6896C29.5574 42.4169 30.1769 42.4169 30.6954 42.6896L32.1197 43.4383C33.4256 44.1249 34.9518 43.0159 34.7024 41.5619L34.4303 39.976C34.3313 39.3986 34.5227 38.8094 34.9423 38.4004L36.0946 37.2772C36.5405 36.8425 36.6934 36.2718 36.6124 35.7411L25.2958 39.3302Z" fill="url(#paint28_linear)"/>
<path d="M34.4304 39.976C34.3931 39.759 34.397 39.5403 34.4385 39.3302L23.1218 35.7411C23.0408 36.2718 23.1937 36.8425 23.6397 37.2772L24.7919 38.4004C25.2115 38.8094 25.4029 39.3986 25.3039 39.976L25.0318 41.5619C24.7825 43.016 26.3087 44.1249 27.6145 43.4383L29.0388 42.6896C29.5573 42.4169 30.1768 42.4169 30.6954 42.6896L32.1197 43.4383C33.4256 44.1249 34.9518 43.0159 34.7023 41.5619L34.4304 39.976Z" fill="url(#paint29_linear)"/>
<path d="M35.1083 34.2411L33.5159 34.0098C33.2878 33.9766 33.0723 33.8997 32.8785 33.7871L25.8291 43.3633C26.3337 43.6863 26.9986 43.7623 27.6146 43.4384L29.0389 42.6897C29.5575 42.417 30.177 42.417 30.6955 42.6897L32.1198 43.4384C33.4257 44.125 34.9519 43.0161 34.7025 41.562L34.4305 39.9761C34.3315 39.3987 34.5228 38.8095 34.9424 38.4005L36.0947 37.2773C37.1512 36.2475 36.5682 34.4533 35.1083 34.2411Z" fill="url(#paint30_linear)"/>
<path d="M39.0726 17.3291L39.889 18.9831C40.1861 19.5853 40.7606 20.0028 41.4252 20.0993L43.2506 20.3645C44.9242 20.6077 45.5925 22.6644 44.3815 23.8448L43.0606 25.1323C42.5797 25.6011 42.3603 26.2765 42.4738 26.9383L42.7856 28.7563C43.0715 30.4231 41.322 31.6942 39.8252 30.9072L38.1926 30.0489C37.5981 29.7364 36.888 29.7364 36.2936 30.0489L34.661 30.9072C33.1641 31.6942 31.4147 30.4231 31.7006 28.7563L32.0124 26.9383C32.1259 26.2765 31.9065 25.601 31.4256 25.1323L30.1047 23.8448C28.8937 22.6644 29.562 20.6077 31.2356 20.3645L33.0609 20.0993C33.7255 20.0028 34.3 19.5853 34.5971 18.9831L35.4135 17.3291C36.1617 15.8126 38.3242 15.8126 39.0726 17.3291Z" fill="url(#paint31_linear)"/>
<path d="M33.792 19.8435C33.5696 19.9728 33.3222 20.0613 33.0604 20.0994L31.2351 20.3646C29.5615 20.6078 28.8932 22.6645 30.1042 23.8449L31.4251 25.1324C31.906 25.6012 32.1254 26.2765 32.0119 26.9384L31.7001 28.7564C31.4142 30.4232 33.1637 31.6943 34.6605 30.9073L36.2932 30.049C36.8876 29.7364 37.5977 29.7364 38.1921 30.049L39.8247 30.9073C40.5343 31.2804 41.3001 31.1905 41.8796 30.8156L33.792 19.8435Z" fill="url(#paint32_linear)"/>
<path d="M44.3809 23.8449L43.0602 25.1328C42.7596 25.4256 42.5618 25.7979 42.4832 26.1978C42.4349 26.4387 42.4305 26.6892 42.4737 26.938L42.7855 28.7562C42.9358 29.6329 42.5229 30.4 41.8803 30.8155C41.3007 31.1904 40.5346 31.2802 39.8245 30.907L38.192 30.0493C37.8948 29.893 37.5692 29.8152 37.2427 29.8152V24.5358L37.2548 24.5393L37.2496 24.5341L37.2427 24.5237V16.1918C37.97 16.1918 38.6981 16.571 39.0721 17.3294L39.8884 18.9827C40.0681 19.348 40.3505 19.6451 40.6935 19.8438C40.9155 19.9734 41.1633 20.0615 41.4251 20.0995L43.2503 20.3647C44.2177 20.5046 44.8491 21.2509 44.9752 22.0836C45.0684 22.6917 44.8922 23.3465 44.3809 23.8449Z" fill="url(#paint33_linear)"/>
<path d="M32.0024 26.1981C32.0499 26.439 32.0543 26.6897 32.0117 26.9384L31.6999 28.7564C31.414 30.4232 33.1635 31.6943 34.6604 30.9073L36.293 30.049C36.8874 29.7364 37.5975 29.7364 38.1919 30.049L39.8245 30.9073C41.3214 31.6943 43.0709 30.4232 42.785 28.7564L42.4732 26.9384C42.3596 26.2765 42.579 25.6011 43.0599 25.1324L44.3808 23.8449C44.892 23.3466 45.0673 22.6923 44.9744 22.084L32.0024 26.1981Z" fill="url(#paint34_linear)"/>
<path d="M42.4735 26.9383C42.4308 26.6896 42.4352 26.4389 42.4828 26.198L29.5106 22.084C29.4178 22.6923 29.593 23.3464 30.1042 23.8448L31.4251 25.1323C31.906 25.6011 32.1254 26.2765 32.0119 26.9383L31.7001 28.7563C31.4142 30.4231 33.1637 31.6942 34.6605 30.9072L36.2931 30.0489C36.8876 29.7364 37.5977 29.7364 38.192 30.0489L39.8247 30.9072C41.3216 31.6942 43.071 30.4231 42.7851 28.7563L42.4735 26.9383Z" fill="url(#paint35_linear)"/>
<path d="M43.2503 20.3645L41.4249 20.0993C41.1635 20.0613 40.9164 19.973 40.6943 19.844L32.6138 30.8211C33.1922 31.1914 33.9543 31.2785 34.6606 30.9072L36.2932 30.0489C36.8876 29.7363 37.5977 29.7363 38.1921 30.0489L39.8247 30.9072C41.3216 31.6942 43.0711 30.4231 42.7852 28.7563L42.4734 26.9383C42.3598 26.2765 42.5792 25.601 43.0601 25.1323L44.381 23.8448C45.592 22.6644 44.9238 20.6078 43.2503 20.3645Z" fill="url(#paint36_linear)"/>
</g>
<defs>
<linearGradient id="paint0_linear" x1="17.1395" y1="19.1792" x2="29.224" y2="31.2637" gradientUnits="userSpaceOnUse">
<stop stop-color="#F8F6FB"/>
<stop offset="1" stop-color="#EFDCFB"/>
</linearGradient>
<linearGradient id="paint1_linear" x1="26.3435" y1="28.3834" x2="17.6791" y2="19.719" gradientUnits="userSpaceOnUse">
<stop stop-color="#F8F6FB"/>
<stop offset="1" stop-color="#EFDCFB"/>
</linearGradient>
<linearGradient id="paint2_linear" x1="23.935" y1="34.2382" x2="-5.24149" y2="17.1206" gradientUnits="userSpaceOnUse">
<stop stop-color="#EFDCFB" stop-opacity="0"/>
<stop offset="0.4856" stop-color="#BAAAD6" stop-opacity="0.486"/>
<stop offset="1" stop-color="#8679B2"/>
</linearGradient>
<linearGradient id="paint3_linear" x1="30.3562" y1="29.3874" x2="19.9885" y2="5.96091" gradientUnits="userSpaceOnUse">
<stop stop-color="#EFDCFB" stop-opacity="0"/>
<stop offset="0.4856" stop-color="#BAAAD6" stop-opacity="0.486"/>
<stop offset="1" stop-color="#8679B2"/>
</linearGradient>
<linearGradient id="paint4_linear" x1="41.5028" y1="33.8884" x2="33.7381" y2="23.4766" gradientUnits="userSpaceOnUse">
<stop stop-color="#EFDCFB" stop-opacity="0"/>
<stop offset="0.4856" stop-color="#BAAAD6" stop-opacity="0.486"/>
<stop offset="1" stop-color="#8679B2"/>
</linearGradient>
<linearGradient id="paint5_linear" x1="34.0697" y1="41.0629" x2="26.2724" y2="33.2656" gradientUnits="userSpaceOnUse">
<stop stop-color="#EFDCFB" stop-opacity="0"/>
<stop offset="0.4856" stop-color="#BAAAD6" stop-opacity="0.486"/>
<stop offset="1" stop-color="#8679B2"/>
</linearGradient>
<linearGradient id="paint6_linear" x1="25.1305" y1="43.5607" x2="9.36985" y2="27.8002" gradientUnits="userSpaceOnUse">
<stop stop-color="#EFDCFB" stop-opacity="0"/>
<stop offset="0.4856" stop-color="#BAAAD6" stop-opacity="0.486"/>
<stop offset="1" stop-color="#8679B2"/>
</linearGradient>
<linearGradient id="paint7_linear" x1="22.4999" y1="3.77153" x2="22.4999" y2="17.4102" gradientUnits="userSpaceOnUse">
<stop stop-color="#FFD945"/>
<stop offset="0.3043" stop-color="#FFCD3E"/>
<stop offset="0.8558" stop-color="#FFAD2B"/>
<stop offset="1" stop-color="#FFA325"/>
</linearGradient>
<linearGradient id="paint8_linear" x1="21.5659" y1="12.1544" x2="24.9727" y2="3.56002" gradientUnits="userSpaceOnUse">
<stop stop-color="#FBB27E" stop-opacity="0"/>
<stop offset="1" stop-color="#FF7044"/>
</linearGradient>
<linearGradient id="paint9_linear" x1="29.3174" y1="12.2694" x2="16.7742" y2="9.83039" gradientUnits="userSpaceOnUse">
<stop stop-color="#FBB27E" stop-opacity="0"/>
<stop offset="1" stop-color="#FF7044"/>
</linearGradient>
<linearGradient id="paint10_linear" x1="24.1559" y1="17.532" x2="23.459" y2="5.2792" gradientUnits="userSpaceOnUse">
<stop stop-color="#FBB27E" stop-opacity="0"/>
<stop offset="1" stop-color="#FF7044"/>
</linearGradient>
<linearGradient id="paint11_linear" x1="20.158" y1="15.6287" x2="25.6747" y2="8.36991" gradientUnits="userSpaceOnUse">
<stop stop-color="#FBB27E" stop-opacity="0"/>
<stop offset="1" stop-color="#FF7044"/>
</linearGradient>
<linearGradient id="paint12_linear" x1="24.626" y1="14.4921" x2="17.0769" y2="11.0659" gradientUnits="userSpaceOnUse">
<stop stop-color="#FBB27E" stop-opacity="0"/>
<stop offset="1" stop-color="#FF7044"/>
</linearGradient>
<linearGradient id="paint13_linear" x1="7.75664" y1="17.9903" x2="7.75664" y2="28.1338" gradientUnits="userSpaceOnUse">
<stop stop-color="#FFD945"/>
<stop offset="0.3043" stop-color="#FFCD3E"/>
<stop offset="0.8558" stop-color="#FFAD2B"/>
<stop offset="1" stop-color="#FFA325"/>
</linearGradient>
<linearGradient id="paint14_linear" x1="7.06214" y1="24.2249" x2="9.59582" y2="17.833" gradientUnits="userSpaceOnUse">
<stop stop-color="#FBB27E" stop-opacity="0"/>
<stop offset="1" stop-color="#FF7044"/>
</linearGradient>
<linearGradient id="paint15_linear" x1="12.8271" y1="24.3104" x2="3.49842" y2="22.4965" gradientUnits="userSpaceOnUse">
<stop stop-color="#FBB27E" stop-opacity="0"/>
<stop offset="1" stop-color="#FF7044"/>
</linearGradient>
<linearGradient id="paint16_linear" x1="8.98824" y1="28.2243" x2="8.46995" y2="19.1116" gradientUnits="userSpaceOnUse">
<stop stop-color="#FBB27E" stop-opacity="0"/>
<stop offset="1" stop-color="#FF7044"/>
</linearGradient>
<linearGradient id="paint17_linear" x1="6.01495" y1="26.8088" x2="10.1179" y2="21.4103" gradientUnits="userSpaceOnUse">
<stop stop-color="#FBB27E" stop-opacity="0"/>
<stop offset="1" stop-color="#FF7044"/>
</linearGradient>
<linearGradient id="paint18_linear" x1="9.33819" y1="25.9635" x2="3.72369" y2="23.4154" gradientUnits="userSpaceOnUse">
<stop stop-color="#FBB27E" stop-opacity="0"/>
<stop offset="1" stop-color="#FF7044"/>
</linearGradient>
<linearGradient id="paint19_linear" x1="15.1327" y1="32.1699" x2="15.1327" y2="41.0189" gradientUnits="userSpaceOnUse">
<stop stop-color="#FFD945"/>
<stop offset="0.3043" stop-color="#FFCD3E"/>
<stop offset="0.8558" stop-color="#FFAD2B"/>
<stop offset="1" stop-color="#FFA325"/>
</linearGradient>
<linearGradient id="paint20_linear" x1="14.5266" y1="37.6089" x2="16.737" y2="32.0327" gradientUnits="userSpaceOnUse">
<stop stop-color="#FBB27E" stop-opacity="0"/>
<stop offset="1" stop-color="#FF7044"/>
</linearGradient>
<linearGradient id="paint21_linear" x1="19.5556" y1="37.6835" x2="11.4174" y2="36.101" gradientUnits="userSpaceOnUse">
<stop stop-color="#FBB27E" stop-opacity="0"/>
<stop offset="1" stop-color="#FF7044"/>
</linearGradient>
<linearGradient id="paint22_linear" x1="16.2072" y1="41.0979" x2="15.7551" y2="33.1481" gradientUnits="userSpaceOnUse">
<stop stop-color="#FBB27E" stop-opacity="0"/>
<stop offset="1" stop-color="#FF7044"/>
</linearGradient>
<linearGradient id="paint23_linear" x1="13.6132" y1="39.863" x2="17.1924" y2="35.1534" gradientUnits="userSpaceOnUse">
<stop stop-color="#FBB27E" stop-opacity="0"/>
<stop offset="1" stop-color="#FF7044"/>
</linearGradient>
<linearGradient id="paint24_linear" x1="16.5124" y1="39.1256" x2="11.6144" y2="36.9027" gradientUnits="userSpaceOnUse">
<stop stop-color="#FBB27E" stop-opacity="0"/>
<stop offset="1" stop-color="#FF7044"/>
</linearGradient>
<linearGradient id="paint25_linear" x1="29.867" y1="32.1699" x2="29.867" y2="41.0189" gradientUnits="userSpaceOnUse">
<stop stop-color="#FFD945"/>
<stop offset="0.3043" stop-color="#FFCD3E"/>
<stop offset="0.8558" stop-color="#FFAD2B"/>
<stop offset="1" stop-color="#FFA325"/>
</linearGradient>
<linearGradient id="paint26_linear" x1="29.2609" y1="37.6089" x2="31.4713" y2="32.0327" gradientUnits="userSpaceOnUse">
<stop stop-color="#FBB27E" stop-opacity="0"/>
<stop offset="1" stop-color="#FF7044"/>
</linearGradient>
<linearGradient id="paint27_linear" x1="34.2903" y1="37.6835" x2="26.1522" y2="36.101" gradientUnits="userSpaceOnUse">
<stop stop-color="#FBB27E" stop-opacity="0"/>
<stop offset="1" stop-color="#FF7044"/>
</linearGradient>
<linearGradient id="paint28_linear" x1="30.9415" y1="41.0979" x2="30.4894" y2="33.1481" gradientUnits="userSpaceOnUse">
<stop stop-color="#FBB27E" stop-opacity="0"/>
<stop offset="1" stop-color="#FF7044"/>
</linearGradient>
<linearGradient id="paint29_linear" x1="28.3475" y1="39.863" x2="31.9269" y2="35.1534" gradientUnits="userSpaceOnUse">
<stop stop-color="#FBB27E" stop-opacity="0"/>
<stop offset="1" stop-color="#FF7044"/>
</linearGradient>
<linearGradient id="paint30_linear" x1="31.2468" y1="39.1256" x2="26.3488" y2="36.9027" gradientUnits="userSpaceOnUse">
<stop stop-color="#FBB27E" stop-opacity="0"/>
<stop offset="1" stop-color="#FF7044"/>
</linearGradient>
<linearGradient id="paint31_linear" x1="37.243" y1="17.9903" x2="37.243" y2="28.1338" gradientUnits="userSpaceOnUse">
<stop stop-color="#FFD945"/>
<stop offset="0.3043" stop-color="#FFCD3E"/>
<stop offset="0.8558" stop-color="#FFAD2B"/>
<stop offset="1" stop-color="#FFA325"/>
</linearGradient>
<linearGradient id="paint32_linear" x1="36.548" y1="24.2249" x2="39.0817" y2="17.8331" gradientUnits="userSpaceOnUse">
<stop stop-color="#FBB27E" stop-opacity="0"/>
<stop offset="1" stop-color="#FF7044"/>
</linearGradient>
<linearGradient id="paint33_linear" x1="42.3129" y1="24.3104" x2="32.9843" y2="22.4965" gradientUnits="userSpaceOnUse">
<stop stop-color="#FBB27E" stop-opacity="0"/>
<stop offset="1" stop-color="#FF7044"/>
</linearGradient>
<linearGradient id="paint34_linear" x1="38.4741" y1="28.2243" x2="37.9558" y2="19.1116" gradientUnits="userSpaceOnUse">
<stop stop-color="#FBB27E" stop-opacity="0"/>
<stop offset="1" stop-color="#FF7044"/>
</linearGradient>
<linearGradient id="paint35_linear" x1="35.5008" y1="26.8088" x2="39.6037" y2="21.4103" gradientUnits="userSpaceOnUse">
<stop stop-color="#FBB27E" stop-opacity="0"/>
<stop offset="1" stop-color="#FF7044"/>
</linearGradient>
<linearGradient id="paint36_linear" x1="38.8239" y1="25.9635" x2="33.2094" y2="23.4154" gradientUnits="userSpaceOnUse">
<stop stop-color="#FBB27E" stop-opacity="0"/>
<stop offset="1" stop-color="#FF7044"/>
</linearGradient>
<clipPath id="clip0">
<rect width="45" height="45" fill="white"/>
</clipPath>
</defs>
</svg>
