<svg width="45" height="45" viewBox="0 0 45 45" fill="none" xmlns="http://www.w3.org/2000/svg">
<path d="M6.78711 0H9.42383V5.93851H6.78711V0Z" fill="#C7C0DD"/>
<path d="M16.3833 0H19.02V5.93851H16.3833V0Z" fill="#C7C0DD"/>
<path d="M25.9795 0H28.6162V5.93851H25.9795V0Z" fill="#A69FC4"/>
<path d="M35.5757 0H38.2124V5.93851H35.5757V0Z" fill="#A69FC4"/>
<path d="M0 14.1224V45H22.5L28.6166 8.77632L0 14.1224Z" fill="#052E8A"/>
<path d="M45 14.1224L22.5 8.77632V45H45V14.1224Z" fill="#042468"/>
<path d="M5.60156 14.1224V39.3984H22.4999L28.1177 17.4582L22.4999 9.51505L5.60156 14.1224Z" fill="#F2F2FC"/>
<path d="M39.3984 14.1224L22.5 9.51505V39.3984H39.3984V14.1224Z" fill="#E2D8FC"/>
<path d="M0 4.90771V14.1224H22.5L26.6739 9.51512L22.5 4.90771H0Z" fill="#397CFF"/>
<path d="M22.5 4.90771H45V14.1225H22.5V4.90771Z" fill="#4041D4"/>
<path d="M19.8706 33.7606L22.3624 34.6229L22.4998 34.2258L23.4954 28.111L22.4998 26.1636L19.8706 33.7606Z" fill="#052E8A"/>
<path d="M17.7583 19.3488V21.9855H22.5L23.8144 20.6671L22.5 19.3488H17.7583Z" fill="#052E8A"/>
<path d="M26.7219 19.3488H22.5V21.9855H23.946L22.5 26.1636V34.2258L26.7219 22.0264V19.3488Z" fill="#042468"/>
</svg>
