<svg width="70" height="70" viewBox="0 0 70 70" fill="none" xmlns="http://www.w3.org/2000/svg">
<rect y="8" width="70" height="62" fill="#121D44"/>
<rect x="2" width="4" height="8" fill="#6A6A6A"/>
<rect x="18" width="4" height="8" fill="#6A6A6A"/>
<rect x="34" width="4" height="8" fill="#6A6A6A"/>
<rect x="50" width="4" height="8" fill="#6A6A6A"/>
<rect x="65" width="4" height="8" fill="#6A6A6A"/>
<rect y="8" width="70" height="11" fill="#1255B8"/>
<rect x="8" y="19" width="54" height="45" fill="#F8F8F8"/>
<path d="M39.0801 31.08C38.4135 31.0533 37.4268 31.04 36.1201 31.04C34.8401 31.04 33.2535 31.1067 31.3601 31.24C29.4668 31.3467 28.2801 31.4667 27.8001 31.6C27.6935 31.12 27.6401 30.5867 27.6401 30C27.6401 29.4133 27.7468 28.7733 27.9601 28.08C29.9335 28.32 32.0268 28.44 34.2401 28.44C36.4801 28.44 38.5468 28.3867 40.4401 28.28C42.3335 28.1467 43.5201 28.0133 44.0001 27.88C44.1068 28.36 44.1601 28.8267 44.1601 29.28C42.0268 33.2 40.0401 37.52 38.2001 42.24C36.3868 46.96 35.2801 50.8533 34.8801 53.92C34.1068 54.1867 33.3868 54.32 32.7201 54.32C32.0801 54.32 31.4401 54.2667 30.8001 54.16C32.3735 48.9333 35.1335 41.24 39.0801 31.08Z" fill="#FFA733"/>
</svg>
