<svg width="50" height="50" viewBox="0 0 50 50" fill="none" xmlns="http://www.w3.org/2000/svg">
<path d="M9.30986 21.9664C4.17637 21.9664 0 26.1428 0 31.2763C0 36.4098 4.17637 40.5861 9.30986 40.5861C14.4434 40.5861 18.6197 36.4097 18.6197 31.2763C18.6197 26.1429 14.4434 21.9664 9.30986 21.9664ZM9.30986 37.6565C5.7918 37.6565 2.92969 34.7943 2.92969 31.2763C2.92969 27.7582 5.7918 24.8961 9.30986 24.8961C12.8279 24.8961 15.69 27.7583 15.69 31.2763C15.69 34.7942 12.8279 37.6565 9.30986 37.6565Z" fill="#41495A"/>
<path d="M9.31006 21.9664V24.8961C12.8281 24.8961 15.6902 27.7583 15.6902 31.2763C15.6902 34.7942 12.828 37.6564 9.31006 37.6564V40.5861C14.4436 40.5861 18.6199 36.4097 18.6199 31.2763C18.6199 26.1429 14.4436 21.9664 9.31006 21.9664Z" fill="#141E32"/>
<path d="M18.7248 21.7584C18.1566 21.7584 17.6158 21.4257 17.3777 20.8703L14.6877 14.5942C14.369 13.8506 14.7134 12.9895 15.457 12.6707C16.2005 12.3521 17.0617 12.6964 17.3805 13.44L20.0705 19.716C20.3893 20.4597 20.0448 21.3208 19.3013 21.6396C19.1131 21.7202 18.9174 21.7584 18.7248 21.7584Z" fill="#006E8C"/>
<path d="M40.6902 21.9664C35.5567 21.9664 31.3804 26.1429 31.3804 31.2763C31.3804 36.4097 35.5567 40.5861 40.6902 40.5861C45.8237 40.5861 50.0001 36.4098 50.0001 31.2763C50.0001 26.1428 45.8236 21.9664 40.6902 21.9664ZM40.6902 37.6565C37.1722 37.6565 34.3101 34.7943 34.3101 31.2764C34.3101 27.7584 37.1722 24.8962 40.6902 24.8962C44.2083 24.8962 47.0704 27.7582 47.0704 31.2763C47.0704 34.7943 44.2082 37.6565 40.6902 37.6565Z" fill="#41495A"/>
<path d="M35.6248 15.3896C35.2765 14.8778 34.644 14.6401 34.0452 14.796L18.3551 18.8754C18.0656 18.9507 17.806 19.1127 17.6115 19.3397L8.19744 30.3229C7.82507 30.7572 7.73972 31.3686 7.97878 31.8883C8.21785 32.408 8.73757 32.741 9.30964 32.741H23.4307C23.8987 32.741 24.3386 32.5174 24.6143 32.1392L35.5974 17.0767C35.9621 16.5767 35.9731 15.9013 35.6248 15.3896ZM12.4946 29.8114L18.3044 23.0333L21.2093 29.8114H12.4946ZM23.7634 28.3338L20.7413 21.2821L30.815 18.6629L23.7634 28.3338Z" fill="#4BB4D2"/>
<path d="M20.2932 15.482H14.0171C13.2081 15.482 12.5522 14.8262 12.5522 14.0172C12.5522 13.2082 13.2081 12.5524 14.0171 12.5524H20.2932C21.1021 12.5524 21.758 13.2082 21.758 14.0172C21.758 14.8262 21.1021 15.482 20.2932 15.482Z" fill="#F7785A"/>
<path d="M34.0455 14.7961L23.7637 17.4694V20.4965L30.8152 18.6631L23.7637 28.3339V32.7023C24.1021 32.6233 24.4056 32.4261 24.6146 32.1395L35.5978 17.077C35.9624 16.5769 35.9734 15.9015 35.6251 15.3897C35.2769 14.8778 34.6443 14.6401 34.0455 14.7961Z" fill="#2691AF"/>
<path d="M42.0422 30.7129L34.1972 11.8848C33.8861 11.138 33.0284 10.7849 32.2817 11.096C31.5349 11.4072 31.1818 12.2647 31.4929 13.0115L39.338 31.8396C39.6491 32.5864 40.5068 32.9395 41.2535 32.6284C42.0003 32.3173 42.3534 31.4597 42.0422 30.7129Z" fill="#006E8C"/>
<path d="M38.9418 10.4159C38.6859 9.64854 37.8568 9.2334 37.0889 9.48955L32.3818 11.0584C31.6144 11.3143 31.1996 12.1439 31.4555 12.9113C31.7113 13.6787 32.5404 14.0939 33.3084 13.8377L38.0154 12.2689C38.7829 12.013 39.1977 11.1834 38.9418 10.4159Z" fill="#2691AF"/>
<path d="M40.6899 21.9664V24.8961C44.208 24.8961 47.0701 27.7583 47.0701 31.2763C47.0701 34.7942 44.2079 37.6564 40.6899 37.6564V40.5861C45.8234 40.5861 49.9998 36.4097 49.9998 31.2763C49.9998 26.1429 45.8233 21.9664 40.6899 21.9664Z" fill="#141E32"/>
</svg>
