<svg width="52" height="70" viewBox="0 0 52 70" fill="none" xmlns="http://www.w3.org/2000/svg">
<path fill-rule="evenodd" clip-rule="evenodd" d="M25.2247 48.2571C26.823 45.9956 27.762 43.2349 27.762 40.255C27.762 32.5887 21.5473 26.3739 13.881 26.3739C6.21474 26.3739 0 32.5887 0 40.255C0 43.233 0.937819 45.992 2.53424 48.2528L13.8806 70L25.2247 48.2571Z" fill="#0068FF"/>
<circle cx="13.8807" cy="40.255" r="7.93201" fill="white"/>
<path fill-rule="evenodd" clip-rule="evenodd" d="M49.5847 15.3167C50.7028 13.7339 51.3597 11.802 51.3597 9.71671C51.3597 4.35032 47.0094 0 41.643 0C36.2766 0 31.9263 4.35032 31.9263 9.71671C31.9263 11.802 32.5832 13.7339 33.7013 15.3167L41.643 30.5382L49.5847 15.3167Z" fill="#0068FF"/>
<circle cx="41.6432" cy="9.71671" r="5.55241" fill="white"/>
<path d="M18.1898 45.4641C18.0874 45.6086 17.9696 45.7169 17.8364 45.7892C17.7032 45.8718 17.5751 45.9285 17.4522 45.9595C17.3087 46.0008 17.1551 46.0162 16.9911 46.0059C16.9297 46.0059 16.8631 45.9904 16.7914 45.9595C16.7299 45.9388 16.6633 45.9079 16.5916 45.8666C16.5199 45.8356 16.4584 45.784 16.4072 45.7118C16.2637 45.1957 16.1357 44.6951 16.023 44.2101C15.9103 43.725 15.8129 43.2915 15.731 42.9096C15.6285 42.4658 15.5414 42.0478 15.4697 41.6556C15.1931 41.6453 14.7782 41.6453 14.2249 41.6556C13.6819 41.6556 13.0928 41.6865 12.4576 41.7485C12.2629 42.3677 12.1092 42.8889 11.9966 43.3121C11.8839 43.7353 11.8019 44.0862 11.7507 44.3649C11.6994 44.6435 11.6789 44.8706 11.6892 45.0461C11.6994 45.2318 11.7302 45.3918 11.7814 45.526C11.638 45.6705 11.4945 45.7737 11.3511 45.8356C11.2179 45.9079 11.095 45.9543 10.9823 45.975C10.8491 46.0059 10.721 46.0162 10.5981 46.0059C10.4341 45.9853 10.301 45.9543 10.1985 45.913C10.096 45.8821 10.0192 45.8253 9.96798 45.7427C9.927 45.6705 9.91163 45.5621 9.92187 45.4176C9.94236 45.2731 9.98335 45.0822 10.0448 44.8448C10.1063 44.6384 10.219 44.272 10.3829 43.7456C10.5571 43.2089 10.7517 42.6 10.9669 41.9188C10.5776 41.9497 10.2753 41.9291 10.0602 41.8568C9.85528 41.7846 9.71185 41.5885 9.62988 41.2685C9.79381 41.2169 9.96798 41.1705 10.1524 41.1292C10.3471 41.0776 10.5315 41.0311 10.7056 40.9899C10.9003 40.9486 11.1001 40.9125 11.305 40.8815C11.5201 40.2003 11.7404 39.5294 11.9658 38.8689C12.1912 38.2083 12.4012 37.6149 12.5959 37.0885L13.4872 34.6888C13.5077 34.6269 13.6153 34.5598 13.81 34.4876C14.0046 34.4153 14.2198 34.3585 14.4554 34.3173C14.6911 34.2657 14.9165 34.2398 15.1316 34.2398C15.3468 34.2398 15.4851 34.2863 15.5466 34.3792C15.5773 34.5959 15.6183 34.8643 15.6695 35.1842C15.731 35.5042 15.7873 35.8138 15.8385 36.1131C15.9 36.4641 15.9717 36.8253 16.0537 37.1968C16.1459 37.7129 16.2432 38.2857 16.3457 38.9153C16.4584 39.5449 16.5967 40.2158 16.7606 40.9279C16.9245 41.6401 17.1192 42.3781 17.3446 43.1418C17.57 43.9056 17.8517 44.6797 18.1898 45.4641ZM13.9175 40.6183C14.2454 40.608 14.5169 40.6028 14.7321 40.6028C14.9472 40.6028 15.1316 40.608 15.2853 40.6183L15.2392 40.3861C15.1777 40.0042 15.1111 39.5965 15.0394 39.163C14.9779 38.7295 14.9113 38.3012 14.8396 37.878C14.7782 37.4549 14.7167 37.0524 14.6552 36.6705C14.5937 36.2886 14.5425 35.9532 14.5015 35.6642C14.3991 35.9325 14.2813 36.2576 14.1481 36.6395C14.0149 37.0111 13.8714 37.4188 13.7178 37.8626C13.5641 38.3064 13.4053 38.7708 13.2414 39.2559C13.0877 39.741 12.934 40.2209 12.7803 40.6957C12.9647 40.6751 13.1491 40.6596 13.3336 40.6493C13.518 40.6389 13.7126 40.6286 13.9175 40.6183Z" fill="#FC5A36"/>
<path d="M39.4354 7.85651C39.323 7.82854 39.2066 7.78659 39.0861 7.73066C38.9737 7.66773 38.8693 7.59781 38.773 7.5209C38.6846 7.437 38.6164 7.34611 38.5682 7.24823C38.52 7.15034 38.508 7.04547 38.5321 6.9336C38.5802 6.70287 38.7328 6.48613 38.9898 6.28337C39.2467 6.08061 39.592 5.9198 40.0256 5.80094V5.76948C40.0337 5.69257 40.0899 5.61566 40.1943 5.53875C40.3067 5.45485 40.4432 5.39892 40.6038 5.37095C40.7564 5.34298 40.8648 5.34298 40.929 5.37095C41.0013 5.39892 41.0374 5.43737 41.0374 5.48631C41.0374 5.5003 41.0334 5.51778 41.0254 5.53875C41.0254 5.55274 41.0254 5.56672 41.0254 5.5807V5.63314C41.4188 5.60517 41.8565 5.61566 42.3383 5.6646C42.9164 5.72753 43.3862 5.84639 43.7475 6.02118C44.1089 6.19597 44.3819 6.39873 44.5666 6.62946C44.7513 6.8532 44.8637 7.08742 44.9039 7.33213C44.952 7.57684 44.952 7.80057 44.9039 8.00333C44.8557 8.24105 44.7673 8.45779 44.6389 8.65356C44.5104 8.84234 44.3578 9.01364 44.1812 9.16745C44.0045 9.31428 43.8078 9.44363 43.591 9.55549C43.3741 9.66736 43.1453 9.76175 42.9044 9.83866C43.1613 9.8876 43.3782 9.96801 43.5548 10.0799C43.7395 10.1847 43.8881 10.3106 44.0005 10.4574C44.1129 10.6043 44.1932 10.7686 44.2414 10.9503C44.2896 11.1321 44.3056 11.3174 44.2896 11.5062C44.2735 11.7998 44.1852 12.076 44.0246 12.3347C43.872 12.5864 43.6632 12.8066 43.3982 12.9954C43.1332 13.1842 42.8161 13.331 42.4467 13.4359C42.0853 13.5408 41.6838 13.5862 41.2422 13.5722H41.0976C40.9772 13.6631 40.8447 13.7296 40.7002 13.7715C40.5637 13.8204 40.4312 13.8554 40.3027 13.8764C40.1581 13.9043 40.0136 13.9148 39.8691 13.9078C39.8691 13.8589 39.8691 13.8065 39.8691 13.7505C39.8771 13.7016 39.8811 13.6526 39.8811 13.6037C39.8811 13.5478 39.8851 13.4918 39.8931 13.4359C39.7968 13.4219 39.7044 13.4009 39.6161 13.373C39.5358 13.352 39.4515 13.3275 39.3632 13.2996C39.2829 13.2786 39.2106 13.2541 39.1464 13.2261C39.1142 13.1842 39.0901 13.1318 39.0741 13.0688C39.058 13.0129 39.046 12.95 39.038 12.8801C39.038 12.8171 39.054 12.7437 39.0861 12.6598C39.3351 12.7437 39.6201 12.8066 39.9413 12.8486C39.9574 12.492 39.9694 12.069 39.9775 11.5796C39.9935 11.0902 40.0016 10.5763 40.0016 10.0379C40.0016 9.42964 40.0016 8.83185 40.0016 8.24455C40.0096 7.65724 40.0136 7.15384 40.0136 6.73434C39.7807 6.83921 39.6001 6.98254 39.4716 7.16433C39.3431 7.34611 39.331 7.57684 39.4354 7.85651ZM43.1453 11.5586C43.1774 11.251 43.1252 11.0063 42.9887 10.8245C42.8522 10.6357 42.6715 10.4959 42.4467 10.405C42.2299 10.3071 41.989 10.2477 41.724 10.2267C41.467 10.2057 41.2342 10.2022 41.0254 10.2162C41.0414 10.7965 41.0535 11.3244 41.0615 11.7998C41.0695 12.2683 41.0776 12.6528 41.0856 12.9535C41.3345 12.9605 41.5754 12.936 41.8083 12.8801C42.0412 12.8241 42.2499 12.7367 42.4346 12.6179C42.6274 12.499 42.788 12.3522 42.9164 12.1774C43.0449 11.9956 43.1212 11.7893 43.1453 11.5586ZM41.0013 6.49312C40.9852 6.8497 40.9772 7.2727 40.9772 7.76212C40.9772 8.25154 40.9852 8.79689 41.0013 9.39818C41.0013 9.45411 41.0013 9.51005 41.0013 9.56598C41.0013 9.61492 41.0053 9.66736 41.0133 9.7233C41.3024 9.70232 41.6035 9.64289 41.9167 9.54501C42.2299 9.44013 42.5149 9.30379 42.7719 9.13599C43.0369 8.96819 43.2537 8.77242 43.4223 8.54869C43.591 8.31796 43.6753 8.06626 43.6753 7.79358C43.6753 7.58383 43.611 7.39855 43.4825 7.23774C43.3541 7.06994 43.1814 6.9301 42.9646 6.81824C42.7558 6.70637 42.5109 6.62247 42.2299 6.56653C41.9569 6.5106 41.6718 6.48263 41.3747 6.48263C41.3104 6.48263 41.2462 6.48263 41.182 6.48263C41.1257 6.48263 41.0655 6.48613 41.0013 6.49312Z" fill="#18A300"/>
<path d="M20.3301 67.4097C21.8137 66.9478 23.4113 66.5661 24.7527 65.7453C25.1132 65.5247 25.2555 65.2697 25.6801 65.2697" stroke="#C1CDD3" stroke-width="3" stroke-linecap="round"/>
<path d="M33.1699 60.9897C33.276 58.469 33.7891 55.986 34.2399 53.4998" stroke="#C1CDD3" stroke-width="3" stroke-linecap="round"/>
<path d="M33.1698 46.0098C31.5185 43.3828 31.0298 41.4172 31.0298 38.5198" stroke="#C1CDD3" stroke-width="3" stroke-linecap="round"/>
<path d="M33.1699 31.0299C34.4001 30.4293 35.9758 29.1733 37.4499 28.8899" stroke="#C1CDD3" stroke-width="3" stroke-linecap="round"/>
</svg>
