<svg width="50" height="50" viewBox="0 0 50 50" fill="none" xmlns="http://www.w3.org/2000/svg">
<g clip-path="url(#clip0)">
<path d="M25.0001 0C13.5154 0 3.86152 7.75633 0.932129 18.2756H49.068C46.1386 7.75633 36.4848 0 25.0001 0Z" fill="#FBD303"/>
<path d="M0.932087 18.2757C0.332916 20.4062 0 22.6698 0 25C0 38.8149 11.185 50.0001 25 50.0001C38.815 50.0001 50.0001 38.815 50.0001 25C50.0001 22.6698 49.6672 20.4395 49.068 18.2757H0.932087Z" fill="#29B36F"/>
<path d="M30.9588 15.9787C33.7534 15.9787 36.0188 13.4152 36.0188 10.253C36.0188 7.09071 33.7534 4.52721 30.9588 4.52721C28.1643 4.52721 25.8989 7.09071 25.8989 10.253C25.8989 13.4152 28.1643 15.9787 30.9588 15.9787Z" fill="#7CC259"/>
<path d="M33.7548 12.0839L33.0224 11.3183L31.4579 12.8828V8.12253H30.3926V11.751L28.8613 10.8189L28.2954 11.7178L30.3926 12.9827V19.3409H31.4579V14.3475L33.7548 12.0839Z" fill="#611A21"/>
<path d="M19.7739 17.1772C21.5388 17.1772 22.9696 15.5675 22.9696 13.5819C22.9696 11.5963 21.5388 9.98671 19.7739 9.98671C18.0089 9.98671 16.5781 11.5963 16.5781 13.5819C16.5781 15.5675 18.0089 17.1772 19.7739 17.1772Z" fill="#7CC259"/>
<path d="M21.5381 14.747L21.072 14.281L20.0734 15.2463V12.2504H19.4076V14.514L18.4422 13.9481L18.1094 14.514L19.4076 15.313V19.3409H20.0734V16.1784L21.5381 14.747Z" fill="#611A21"/>
<path d="M49.7005 21.1052C49.5674 20.3395 49.4342 19.6072 49.2345 18.8748C45.7058 18.9414 13.116 19.6405 13.116 23.735C13.116 28.0626 26.4648 29.1279 26.4648 31.6911C26.4648 33.6218 11.3184 34.8202 3.76172 38.1824C7.22381 43.7749 12.8163 47.8695 19.4075 49.4008C22.3369 47.1039 26.3649 44.5406 30.992 42.6431C39.8802 39.0146 41.6445 37.2503 41.6445 34.2876C41.6445 29.1612 22.5699 26.731 22.5699 25.233C22.6033 23.735 35.6526 21.538 49.7005 21.1052Z" fill="#414753"/>
<path d="M49.4343 19.7071C48.935 19.7403 47.7366 19.8069 45.9722 19.9068C43.6087 20.0399 25.1333 20.9054 18.5088 23.2023C15.8124 24.1344 17.943 25.2996 18.4756 25.4993C18.8085 25.6324 32.0242 30.7923 32.6567 30.992C34.654 31.6244 36.152 33.4553 33.4889 34.7203C32.3237 35.2529 9.58746 43.4753 8.82178 44.0079C8.98819 44.141 9.15469 44.3075 9.3211 44.4407C10.0202 43.9413 32.457 35.6857 33.6886 35.1531C37.3171 33.5551 34.9536 31.4247 32.8231 30.6258C32.1573 30.3594 18.9083 25.3328 18.6087 25.1996C18.2092 25.0332 16.7445 24.1011 18.6087 23.5019C25.4662 21.2715 43.6087 20.2063 45.9722 20.0398C47.7698 19.9399 48.9683 19.8401 49.4676 19.8401C49.4343 19.7736 49.4343 19.7403 49.4343 19.7071Z" fill="#FBD303"/>
</g>
<defs>
<clipPath id="clip0">
<rect width="50" height="50" fill="white"/>
</clipPath>
</defs>
</svg>
