<svg width="68" height="70" viewBox="0 0 68 70" fill="none" xmlns="http://www.w3.org/2000/svg">
<path fill-rule="evenodd" clip-rule="evenodd" d="M41.0826 68.473C39.9315 64.7663 42.3221 60.9179 46.4223 59.8772C46.4737 59.8641 46.5252 59.8516 46.5766 59.8395C45.7949 59.813 44.9954 59.8945 44.2018 60.096C40.1017 61.1366 37.711 64.9851 38.8622 68.6918C38.8954 68.799 38.9313 68.9048 38.9697 69.0093L41.0826 68.473Z" fill="#507A27"/>
<path fill-rule="evenodd" clip-rule="evenodd" d="M41.5546 67.2639C41.5547 67.2639 41.5547 67.2638 41.5547 67.2638C43.1923 64.7847 46.7429 63.9752 49.4851 65.4556C49.5194 65.4741 49.5534 65.4929 49.5871 65.512C49.1997 65.1137 48.7382 64.7625 48.2075 64.4759C45.4652 62.9955 41.9146 63.805 40.277 66.2841C40.2297 66.3558 40.1845 66.4281 40.1414 66.5009L41.5546 67.2639Z" fill="#507A27"/>
<path fill-rule="evenodd" clip-rule="evenodd" d="M42.0545 67.2106C42.4449 64.0581 45.7687 61.8068 49.4785 62.1823C49.5252 62.187 49.5717 62.1921 49.618 62.1976C48.9912 61.9546 48.3113 61.7889 47.5932 61.7162C43.8834 61.3407 40.5595 63.592 40.1691 66.7446C40.1578 66.8357 40.1491 66.9266 40.143 67.0171L42.0545 67.2106Z" fill="#507A27"/>
<path fill-rule="evenodd" clip-rule="evenodd" d="M26.9551 68.473C28.1062 64.7663 25.7156 60.9179 21.6154 59.8772C21.564 59.8641 21.5125 59.8516 21.461 59.8395C22.2427 59.8131 23.0422 59.8945 23.8358 60.096C27.9359 61.1366 30.3266 64.9851 29.1754 68.6918C29.1422 68.799 29.1063 68.9048 29.0679 69.0093L26.9551 68.473Z" fill="#507A27"/>
<path fill-rule="evenodd" clip-rule="evenodd" d="M26.483 67.2639C26.483 67.2639 26.483 67.2638 26.483 67.2638C24.8454 64.7847 21.2948 63.9752 18.5526 65.4556C18.5182 65.4742 18.4841 65.493 18.4504 65.5121C18.8378 65.1138 19.2994 64.7625 19.8301 64.476C22.5724 62.9955 26.123 63.805 27.7606 66.2841C27.8079 66.3558 27.8531 66.4281 27.8963 66.5009L26.483 67.2639Z" fill="#507A27"/>
<path fill-rule="evenodd" clip-rule="evenodd" d="M25.9832 67.2106C25.5928 64.0581 22.269 61.8068 18.5592 62.1823C18.5125 62.187 18.4659 62.1921 18.4196 62.1976C19.0464 61.9547 19.7263 61.7889 20.4444 61.7162C24.1542 61.3408 27.4781 63.592 27.8685 66.7446C27.8798 66.8357 27.8885 66.9266 27.8946 67.0172L25.9832 67.2106Z" fill="#507A27"/>
<path d="M28 3C28 1.34315 29.3431 0 31 0H37C38.6569 0 40 1.34315 40 3V67H28V3Z" fill="#9F5B0A"/>
<path fill-rule="evenodd" clip-rule="evenodd" d="M63.3206 15.2963L52.1053 9.00017V9.00002L52.105 9L5 9.00002V21.5926L52.105 21.5926L52.1053 21.5926V21.5925L63.3206 15.2963Z" fill="#FFCB00"/>
<path fill-rule="evenodd" clip-rule="evenodd" d="M5.00018 34.963L16.2155 41.2591L16.2155 41.2593L16.2158 41.2593L63.3208 41.2593L63.3208 28.6667L16.2158 28.6667L16.2155 28.6667L16.2155 28.6668L5.00018 34.963Z" fill="#009398"/>
<rect y="67" width="68" height="2" fill="#64BC0F"/>
</svg>
