<svg width="50" height="50" viewBox="0 0 50 50" fill="none" xmlns="http://www.w3.org/2000/svg">
<path d="M20.5884 35.2941V47.0588L22.7943 48.0392L25.0001 47.0588L25.9805 41.1765L25.0001 35.2941L22.7943 34.3137L20.5884 35.2941Z" fill="#FF4A4A"/>
<path d="M29.4118 35.2941L27.2059 34.3137L25 35.2941V47.0588L27.2059 48.0392L29.4118 47.0588C29.4118 45.6355 29.4118 36.7269 29.4118 35.2941Z" fill="#D01273"/>
<path d="M20.5884 17.6471V23.5294L22.7943 24.5098L25.0001 23.5294L25.9805 20.5882L25.0001 17.6471L22.7943 16.6667L20.5884 17.6471Z" fill="#FF4A4A"/>
<path d="M29.4118 17.6471L27.2059 16.6667L25 17.6471V23.5294L27.2059 24.5098L29.4118 23.5294C29.4118 22.8178 29.4118 18.3635 29.4118 17.6471Z" fill="#D01273"/>
<path d="M20.5884 0V5.88235L22.7943 6.86275L25.0001 5.88235L25.9805 2.94118L25.0001 0C23.5314 0 22.0571 0 20.5884 0Z" fill="#FF4A4A"/>
<path d="M29.4118 0C27.943 0 26.4687 0 25 0V5.88235L27.2059 6.86275L29.4118 5.88235C29.4118 5.17069 29.4118 0.716471 29.4118 0Z" fill="#D01273"/>
<path d="M0 47.0588V50H25L25.9804 48.5294L25 47.0588C23.5582 47.0588 13.8399 47.0588 11.7647 47.0588L9.58333 46.0784L7.35284 47.0588H0Z" fill="#BEE75E"/>
<path d="M50 47.0588H41.1765L39.2483 46.0784L36.7647 47.0588H25V50H50C50 48.9714 50 48.0875 50 47.0588Z" fill="#00DA80"/>
<path d="M11.7646 38.2353C9.83966 38.2353 8.20368 39.4685 7.60103 41.1876C5.86241 41.0425 4.41162 42.4148 4.41162 44.1176C4.41162 45.742 5.72848 47.0588 7.3528 47.0588H11.7646C14.2011 47.0588 16.1763 45.0836 16.1763 42.6471C16.1763 40.2105 14.2011 38.2353 11.7646 38.2353Z" fill="#00DA80"/>
<path d="M41.1767 38.2353C39.2551 38.2353 37.6169 39.4653 37.0131 41.1876C35.2792 41.0424 33.8237 42.4107 33.8237 44.1176C33.8237 45.742 35.1405 47.0588 36.7649 47.0588H41.1767C42.3949 47.0588 43.4978 46.565 44.2963 45.7667C46.0179 44.045 46.0209 41.2521 44.2963 39.5274C43.4978 38.7291 42.3949 38.2353 41.1767 38.2353Z" fill="#00B9A0"/>
<path d="M8.90091 5.88235C8.18601 6.59736 3.73542 11.0478 3.01855 11.7647L8.90091 17.6471H25.0002L25.9806 11.7647L25.0002 5.88235C23.0434 5.88235 10.8621 5.88235 8.90091 5.88235Z" fill="#FFEC29"/>
<path d="M47.0588 5.88235C45.5694 5.88235 26.4896 5.88235 25 5.88235V17.6471H47.0588C47.0588 16.2237 47.0588 7.3151 47.0588 5.88235Z" fill="#FFCB00"/>
<path d="M2.94141 23.5294V35.2941H25.0002L25.9806 29.4118L25.0002 23.5294C23.5108 23.5294 4.43101 23.5294 2.94141 23.5294Z" fill="#00B9A0"/>
<path d="M46.9817 29.4118C46.2668 28.6969 41.8162 24.2463 41.0993 23.5294C40.6454 23.5294 25.454 23.5294 25 23.5294V35.2941H41.0993C41.8142 34.5792 46.2647 30.1286 46.9817 29.4118Z" fill="#009398"/>
</svg>
