<svg width="50" height="50" viewBox="0 0 50 50" fill="none" xmlns="http://www.w3.org/2000/svg">
<path d="M25 0V18.9655C25 18.9655 31.8966 10.7068 31.8966 6.89655C31.8966 3.08754 28.809 0 25 0Z" fill="#FF4764"/>
<path d="M18.1035 6.89655C18.1035 10.7068 25.0001 18.9655 25.0001 18.9655V0C21.1911 0 18.1035 3.08754 18.1035 6.89655Z" fill="#FF3051"/>
<path d="M18.1034 22.4138L0 50H6.38722L20.8269 22.4138H18.1034Z" fill="#FFCD00"/>
<path d="M29.1733 22.4138L43.613 50H50.0002L31.8968 22.4138H29.1733Z" fill="#FFCD00"/>
<path d="M29.1731 22.4138H20.8269L6.38721 50H43.6128L29.1731 22.4138Z" fill="#58595B"/>
<path d="M24.1377 25H25.8618V26.7241H24.1377V25Z" fill="#A7A9AC"/>
<path d="M24.1377 22.4138H25.8618V23.2759H24.1377V22.4138Z" fill="#A7A9AC"/>
<path d="M24.1377 28.4483H25.8618V31.0345H24.1377V28.4483Z" fill="#A7A9AC"/>
<path d="M24.1377 32.7586H25.8618V36.2069H24.1377V32.7586Z" fill="#A7A9AC"/>
<path d="M24.1377 38.7931H25.8618V43.1034H24.1377V38.7931Z" fill="#A7A9AC"/>
<path d="M24.1377 45.6896H25.8618V50H24.1377V45.6896Z" fill="#A7A9AC"/>
<path d="M22.4136 6.03448C22.4136 7.4627 23.5716 8.62069 24.9998 8.62069V3.44827C23.5716 3.44827 22.4136 4.60626 22.4136 6.03448Z" fill="#F1F2F2"/>
<path d="M25 3.44827V8.62069C26.4282 8.62069 27.5862 7.4627 27.5862 6.03448C27.5862 4.60626 26.4282 3.44827 25 3.44827Z" fill="#F9F9F9"/>
</svg>
