<svg width="70" height="70" viewBox="0 0 70 70" fill="none" xmlns="http://www.w3.org/2000/svg">
<path d="M23.9477 24.8101H46.0529L59.7062 70H10.2944L23.9477 24.8101Z" fill="#C4C4C4"/>
<path d="M18.7963 24.8101H23.9815L10.3704 70H0L18.7963 24.8101Z" fill="#FFC85E"/>
<path d="M51.2037 24.8101H46.0185L59.6296 70H70L51.2037 24.8101Z" fill="#FFC85E"/>
<path d="M34.4854 24.8101H35.5148L36.0295 70H33.9707L34.4854 24.8101Z" fill="white"/>
<rect x="31.9116" y="52.2785" width="6.17647" height="8.86076" fill="#C4C4C4"/>
<rect x="32.9414" y="28.3544" width="4.11765" height="5.31646" fill="#C4C4C4"/>
<rect x="31.9116" y="38.9873" width="6.17647" height="5.31646" fill="#C4C4C4"/>
<path fill-rule="evenodd" clip-rule="evenodd" d="M40.8893 9.77732C41.7185 8.76694 42.2057 7.53371 42.2057 6.20253C42.2057 2.77697 38.9795 0 34.9998 0C31.0201 0 27.7939 2.77697 27.7939 6.20253C27.7939 7.53361 28.2811 8.76677 29.1102 9.77711L34.9998 19.4937L40.8893 9.77732Z" fill="#0068FF"/>
<ellipse cx="35.0005" cy="6.20253" rx="4.11765" ry="3.5443" fill="white"/>
</svg>
