<svg width="35" height="70" viewBox="0 0 35 70" fill="none" xmlns="http://www.w3.org/2000/svg">
<rect x="8.18164" width="19.0909" height="55.4545" rx="4" fill="#1E2D64"/>
<path fill-rule="evenodd" clip-rule="evenodd" d="M32.5457 3.63636H27.2729V17.2727H30.0172C30.2143 13.3865 32.0821 10.2008 34.5457 9.32801V5.63636C34.5457 4.53179 33.6502 3.63636 32.5457 3.63636Z" fill="#121D44"/>
<path fill-rule="evenodd" clip-rule="evenodd" d="M1.99982 3.63636H8.18164V17.2727H5.09426C4.87254 13.3865 2.77128 10.2008 -0.000177383 9.32803V5.63636C-0.000177383 4.53179 0.895252 3.63636 1.99982 3.63636Z" fill="#121D44"/>
<path fill-rule="evenodd" clip-rule="evenodd" d="M32.5457 20.9091H27.2729V34.5455H30.0172C30.2143 30.6592 32.0821 27.4735 34.5457 26.6007V22.9091C34.5457 21.8045 33.6502 20.9091 32.5457 20.9091Z" fill="#121D44"/>
<path fill-rule="evenodd" clip-rule="evenodd" d="M1.99982 20.9091H8.18164V34.5455H5.09426C4.87254 30.6593 2.77128 27.4735 -0.000177383 26.6008V22.9091C-0.000177383 21.8045 0.895252 20.9091 1.99982 20.9091Z" fill="#121D44"/>
<path fill-rule="evenodd" clip-rule="evenodd" d="M32.5457 38.1818H27.2729V51.8182H30.0172C30.2143 47.9319 32.0821 44.7462 34.5457 43.8735V40.1818C34.5457 39.0773 33.6502 38.1818 32.5457 38.1818Z" fill="#121D44"/>
<path fill-rule="evenodd" clip-rule="evenodd" d="M1.99982 38.1818H8.18164V51.8182H5.09426C4.87254 47.932 2.77128 44.7463 -0.000177383 43.8735V40.1818C-0.000177383 39.0773 0.895252 38.1818 1.99982 38.1818Z" fill="#121D44"/>
<rect x="16.3638" y="55.4545" width="3.63636" height="14.5455" fill="#121D44"/>
<circle cx="18.1816" cy="10.9091" r="5.45455" fill="#FF3F3F"/>
<circle cx="18.1816" cy="27.2727" r="5.45455" fill="#FFB408"/>
<circle cx="18.1816" cy="45.4545" r="5.45455" fill="#18A300"/>
</svg>
