<svg width="50" height="50" viewBox="0 0 50 50" fill="none" xmlns="http://www.w3.org/2000/svg">
<g clip-path="url(#clip0)">
<path d="M46.2828 12.119C41.9072 4.95091 34.0127 0.165634 25.0001 0.165634C15.4113 0.165634 9.50452 5.57433 9.4882 5.58341C9.4882 5.58341 9.24264 5.88994 9.19672 6.09368C8.82364 7.74974 8.4751 9.96933 8.4751 11.5889C8.4751 11.7661 8.47822 11.9426 8.48204 12.1188H46.2828V12.119Z" fill="#AFE6FF"/>
<path d="M8.95273 12.119C8.9327 11.7095 8.92205 11.2975 8.92205 10.883C8.92205 9.064 9.11816 7.29166 9.4883 5.58351C7.20442 7.40295 5.24857 9.61628 3.72021 12.119H8.95273Z" fill="#73C8F0"/>
<path d="M3.76753 12.0427C1.43225 15.8362 0.0830078 20.3016 0.0830078 25.0828C0.0830078 30.7013 1.94378 35.8845 5.0812 40.0523L18.9233 33.2909V12.0427H3.76753Z" fill="#18A300"/>
<path d="M46.2355 12.0427H10.8145C10.6479 13.1943 10.5601 14.3713 10.5601 15.5689C10.5601 22.6841 13.6038 29.0876 18.4592 33.551L43.5585 19.4962L48.0123 15.5142C47.5094 14.306 46.9143 13.1458 46.2355 12.0427Z" fill="#64BC0F"/>
<path d="M49.302 19.5578L48.484 18.9213L48.7755 17.6075C48.5515 16.8945 48.2963 16.1955 48.0116 15.5117L17.7095 32.8337C18.8734 37.6531 22.9998 41.1834 27.9419 41.5803C35.7705 42.2092 43.8824 42.6077 46.9715 36.8464C48.0447 34.8448 48.854 32.6755 49.3507 30.3827C49.3681 30.2764 49.9175 28.0886 49.9175 25.0827C49.9175 23.1839 49.7047 21.3348 49.302 19.5578Z" fill="#A5A0AA"/>
<path d="M34.9808 39.9898C28.2355 39.9898 22.129 37.2549 17.7094 32.8337L5.08057 40.0529C5.52839 40.6478 6.00221 41.222 6.50036 41.7738L7.69765 42.1207L7.91321 43.2175C8.74378 44.0004 9.6282 44.727 10.5602 45.391L12.0867 45.133L13.1551 47.0096C15.6144 48.3411 18.323 49.271 21.193 49.7111L21.6394 49.2423L21.8575 49.8038C22.8868 49.9334 23.9357 50.0001 25.0002 50.0001C34.4407 50.0001 42.749 44.721 46.9713 36.8464C43.4294 38.8469 39.3389 39.9898 34.9808 39.9898Z" fill="#828291"/>
<path d="M48.7759 17.6073L6.50049 41.7738C6.95193 42.2738 7.4235 42.7551 7.91363 43.2171L49.3018 19.5578C49.1522 18.8973 48.9768 18.2467 48.7759 17.6073Z" fill="white"/>
<path d="M25.1914 31.0892L6.50049 41.7738C6.95193 42.2738 7.4235 42.7551 7.91363 43.2171L26.1613 32.7858C26.4657 32.6118 26.6535 32.2881 26.6535 31.9375C26.6535 31.1872 25.8429 30.7168 25.1914 31.0892Z" fill="#E6DCDC"/>
<path d="M34.73 40.1876L38.3092 38.1423L39.2785 39.8387L35.6993 41.8839L34.73 40.1876Z" fill="white"/>
<path d="M41.8896 36.0982L45.4688 34.0529L46.4381 35.7493L42.859 37.7945L41.8896 36.0982Z" fill="white"/>
<path d="M27.5698 44.2784L31.1491 42.2332L32.1184 43.9295L28.5392 45.9748L27.5698 44.2784Z" fill="#E6DCDC"/>
<path d="M20.4268 48.3702L21.1931 49.7109C21.4137 49.7447 21.6352 49.7754 21.8577 49.8034L24.9766 48.0205L24.0067 46.3239L20.4268 48.3702Z" fill="#E6DCDC"/>
<path d="M10.5601 45.3912C11.3889 45.9816 12.2554 46.5223 13.1553 47.0094V25.9088H10.5601V45.3912Z" fill="#1E2D64"/>
<path d="M16.0772 26.6756H7.63811C6.97962 26.6756 6.4458 26.1417 6.4458 25.4832V1.19231C6.4458 0.533814 6.97962 0 7.63811 0H16.0773C16.7358 0 17.2696 0.533814 17.2696 1.19231V25.4833C17.2695 26.1417 16.7357 26.6756 16.0772 26.6756Z" fill="#1E2D64"/>
<path d="M10.9076 22.4115C10.2491 22.4115 9.71533 21.8777 9.71533 21.2192V0H7.63811C6.97962 0 6.4458 0.533814 6.4458 1.19231V25.4833C6.4458 26.1418 6.97962 26.6757 7.63811 26.6757H16.0773C16.7358 26.6757 17.2696 26.1418 17.2696 25.4833V22.4116H10.9076V22.4115Z" fill="#0F1446"/>
<path d="M11.8574 1.85989V8.39895C13.6631 8.39895 15.1269 6.93518 15.1269 5.12942C15.127 3.32375 13.6632 1.85989 11.8574 1.85989Z" fill="#FF3C3C"/>
<path d="M8.58789 5.12942C8.58789 6.93518 10.0518 8.39895 11.8574 8.39895V1.85989C10.0518 1.85989 8.58789 3.32375 8.58789 5.12942Z" fill="#DC1428"/>
<path d="M11.8574 9.87619V16.4152C13.6631 16.4152 15.1269 14.9514 15.1269 13.1457C15.127 11.3401 13.6632 9.87619 11.8574 9.87619Z" fill="#FFE65A"/>
<path d="M8.58789 13.1457C8.58789 14.9515 10.0518 16.4152 11.8574 16.4152V9.87619C10.0518 9.87619 8.58789 11.3401 8.58789 13.1457Z" fill="#FFC305"/>
<path d="M11.8574 17.8925V24.4316C13.6631 24.4316 15.1269 22.9677 15.1269 21.162C15.1269 19.3564 13.6632 17.8925 11.8574 17.8925Z" fill="#64BC0F"/>
<path d="M8.58789 21.162C8.58789 22.9677 10.0518 24.4316 11.8574 24.4316V17.8925C10.0518 17.8925 8.58789 19.3564 8.58789 21.162Z" fill="#18A300"/>
<path d="M20.0171 8.39905H17.2695V1.86H20.844V7.57209C20.844 8.02871 20.4738 8.39905 20.0171 8.39905Z" fill="#0F1446"/>
<path d="M20.4075 5.12942H17.2695V1.85989H23.6771C23.6771 3.66566 22.2132 5.12942 20.4075 5.12942Z" fill="#0F1446"/>
<path d="M20.0171 16.3665H17.2695V9.82744H20.844V15.5395C20.844 15.9963 20.4738 16.3665 20.0171 16.3665Z" fill="#0F1446"/>
<path d="M20.4075 13.097H17.2695V9.82744H23.6771C23.6771 11.6331 22.2132 13.097 20.4075 13.097Z" fill="#0F1446"/>
<path d="M20.0171 24.4316H17.2695V17.8926H20.844V23.6047C20.844 24.0613 20.4738 24.4316 20.0171 24.4316Z" fill="#0F1446"/>
<path d="M20.4075 21.162H17.2695V17.8925H23.6771C23.6771 19.6983 22.2132 21.162 20.4075 21.162Z" fill="#0F1446"/>
<path d="M3.74307 8.59105H6.49061V2.052H2.91602V7.7641C2.91602 8.22072 3.28635 8.59105 3.74307 8.59105Z" fill="#0F1446"/>
<path d="M3.35253 5.32144H6.49053V2.05191H0.0830078C0.0830078 3.85767 1.54677 5.32144 3.35253 5.32144Z" fill="#0F1446"/>
<path d="M3.74307 16.5585H6.49061V10.0194H2.91602V15.7315C2.91602 16.1883 3.28635 16.5585 3.74307 16.5585Z" fill="#0F1446"/>
<path d="M3.35253 13.289H6.49053V10.0194H0.0830078C0.0830078 11.8251 1.54677 13.289 3.35253 13.289Z" fill="#0F1446"/>
<path d="M3.74307 24.6236H6.49061V18.0846H2.91602V23.7967C2.91602 24.2534 3.28635 24.6236 3.74307 24.6236Z" fill="#0F1446"/>
<path d="M3.35253 21.354H6.49053V18.0845H0.0830078C0.0830078 19.8903 1.54677 21.354 3.35253 21.354Z" fill="#0F1446"/>
</g>
<defs>
<clipPath id="clip0">
<rect width="50" height="50" fill="white"/>
</clipPath>
</defs>
</svg>
