<svg width="56" height="56" viewBox="0 0 56 56" fill="none" xmlns="http://www.w3.org/2000/svg">
<g clip-path="url(#clip0)">
<path d="M55.125 21.4374L52.5 13.5624H36.5346L34.125 1.31238H21.875L19.4652 13.5624H3.49977L0.874756 21.4374H17.9159L11.3748 54.6876H44.625L38.0839 21.4374H55.125Z" fill="#777777"/>
<path d="M44.6252 55.5625H11.375C11.1134 55.5625 10.8652 55.4453 10.699 55.2436C10.5327 55.042 10.4658 54.7759 10.5166 54.5192L16.8525 22.3125H0.874928C0.593585 22.3125 0.329803 22.1772 0.165355 21.949C0.000907393 21.7211 -0.04421 21.4279 0.0449994 21.1606L2.67001 13.2855C2.78896 12.9286 3.12323 12.6875 3.49994 12.6875H18.746L21.0168 1.14358C21.0972 0.733168 21.4569 0.437469 21.8751 0.437469H34.1251C34.5434 0.437469 34.903 0.733168 34.9835 1.14358L37.2541 12.6875H52.5002C52.8769 12.6875 53.2112 12.9286 53.3301 13.2855L55.9552 21.1606C56.044 21.4274 55.9994 21.7206 55.8348 21.949C55.6703 22.1774 55.4064 22.3125 55.1252 22.3125H39.1477L45.4831 54.5187C45.5338 54.7756 45.4669 55.0411 45.3007 55.2431C45.1344 55.4454 44.8868 55.5625 44.6252 55.5625ZM12.4391 53.8126H43.5616L37.2257 21.6064C37.1749 21.3495 37.2418 21.0839 37.4081 20.8819C37.5743 20.6799 37.8223 20.5625 38.0841 20.5625H53.9115L51.8697 14.4374H36.5348C36.1166 14.4374 35.7569 14.1417 35.6764 13.7313L33.4053 2.18743H22.5947L20.3241 13.7313C20.2436 14.1417 19.8836 14.4374 19.4653 14.4374H4.13043L2.08861 20.5625H17.9161C18.1777 20.5625 18.4258 20.6798 18.5921 20.8814C18.7583 21.0831 18.8252 21.3491 18.7745 21.6058L12.4391 53.8126Z" fill="black"/>
<path d="M17.5 17.9375H12.25V16.1875H17.5V17.9375ZM10.5 17.9375H5.25V16.1875H10.5V17.9375Z" fill="white"/>
<path d="M50.7501 17.9375H45.5001V16.1875H50.7501V17.9375ZM43.75 17.9375H38.5V16.1875H43.75V17.9375Z" fill="white"/>
<path d="M28.8752 53.8126H27.1252V48.5626H28.8752V53.8126ZM28.8752 46.8126H27.1252V41.5626H28.8752V46.8126ZM28.8752 39.8125H27.1252V34.5625H28.8752V39.8125ZM28.8752 32.8125H27.1252V27.5625H28.8752V32.8125ZM28.8752 25.8125H27.1252V20.5625H28.8752V25.8125ZM28.8752 18.8124H27.1252V13.5624H28.8752V18.8124ZM28.8752 11.8124H27.1252V6.5624H28.8752V11.8124ZM28.8752 4.81243H27.1252V2.18742H28.8752V4.81243Z" fill="white"/>
</g>
<defs>
<clipPath id="clip0">
<rect width="56" height="56" fill="white"/>
</clipPath>
</defs>
</svg>
