<svg width="56" height="56" viewBox="0 0 56 56" fill="none" xmlns="http://www.w3.org/2000/svg">
<path d="M20.6017 33.6911L16.0488 21.6261H20.8293L25.3821 33.6911H20.6017Z" fill="#407093"/>
<path d="M22.6504 54.8732V44.6179H28.1138V54.8732C28.1138 55.4956 27.6094 56 26.987 56H23.7771C23.1549 56 22.6504 55.4956 22.6504 54.8732Z" fill="#407093"/>
<path d="M56 14.0168C56 14.5003 55.9549 14.9813 55.867 15.4546C55.778 15.9278 55.6462 16.3931 55.4715 16.8439L50.0698 30.783C49.3904 32.5363 47.7048 33.6912 45.8242 33.6912H42.6625C41.5053 33.6912 40.3921 33.2507 39.5481 32.4586L29.4637 22.9994L30.2164 22.4405L28 20.9465L22.4608 20.4451L20.8293 21.626H10.498C9.59098 21.626 8.70417 21.3544 7.95156 20.8474L2.3088 17.0379C0.865375 16.0631 0 14.4361 0 12.6941C0 11.876 0.190422 11.0795 0.54425 10.365C0.899172 9.6495 1.4152 9.01633 2.06872 8.52283C5.9313 5.60448 15.0355 0 28 0C39.6879 0 48.2378 4.55437 52.6389 7.58986C54.7482 9.04564 56 11.4535 56 14.0168Z" fill="#B3E59F"/>
<path d="M29.4291 22.9666L25.3821 33.6911H30.1625L32.9598 26.2785L29.4291 22.9666Z" fill="#365E7D"/>
<path d="M55.9999 14.0168C55.9999 14.9836 55.8208 15.9425 55.4714 16.8439L50.0697 30.7831C49.3903 32.5363 47.7047 33.6912 45.8241 33.6912H42.6624C41.5052 33.6912 40.392 33.2507 39.5481 32.4586L29.4636 22.9994L30.2163 22.4405L27.9999 20.9465L22.4608 20.4451L20.8292 21.626H10.498C9.59093 21.626 8.70411 21.3544 7.9515 20.8474L5.05908 18.8948H26.1982C28.0574 18.8948 29.8275 19.5944 31.183 20.8666L41.4173 30.4666C41.7554 30.7844 42.1981 30.959 42.6623 30.959H45.824C46.5711 30.959 47.2528 30.4925 47.5221 29.7962L55.415 11.0435C55.796 11.974 55.9999 12.9825 55.9999 14.0168Z" fill="#95D6A4"/>
<path d="M29.3138 22.8583L29.4641 22.9993C34.8531 18.9425 44.6841 12.6299 55.4148 11.0429C33.6912 11.0429 20.8293 21.626 20.8293 21.626H26.1989C27.3561 21.6261 28.4698 22.0666 29.3138 22.8583Z" fill="#FFD064"/>
<path d="M31.7153 21.3656L31.1827 20.8659C29.8272 19.5944 28.0573 18.8943 26.1989 18.8943H24.9484C22.2524 20.4559 20.8293 21.6261 20.8293 21.6261H26.1989C27.3561 21.6261 28.4698 22.0666 29.3138 22.8584L29.4641 22.9994C30.1457 22.4862 30.8987 21.9369 31.7153 21.3656Z" fill="#FFC250"/>
<path d="M49.6807 17.2034L45.938 26.3319C45.6341 27.0733 46.1793 27.8861 46.9806 27.8861H51.1925L55.4714 16.8437C55.5149 16.7313 55.5558 16.618 55.5941 16.504H50.7233C50.2661 16.504 49.8542 16.7803 49.6807 17.2034Z" fill="#365E7D"/>
<path d="M53.1165 16.504L48.3265 27.8861H51.1925L55.4714 16.8437C55.5149 16.7313 55.5558 16.618 55.5941 16.504H53.1165Z" fill="#2B4D66"/>
<path d="M55.4147 11.0429C54.8506 9.66569 53.8975 8.45819 52.6384 7.58975C48.238 4.55448 39.6878 0 28 0C15.035 0 5.93075 5.60427 2.06905 8.52239C0.762563 9.50972 0 11.0568 0 12.6944C0 14.436 0.865156 16.0637 2.30858 17.038L7.95123 20.8468C8.70362 21.3546 9.59066 21.626 10.4985 21.626H20.8293C20.8293 21.6261 33.6911 11.0429 55.4147 11.0429Z" fill="#66B394"/>
<path d="M5.05872 18.8943L7.95125 20.8468C8.70364 21.3546 9.59067 21.626 10.4985 21.626H20.8293C20.8293 21.626 22.2525 20.4559 24.9483 18.8942H5.05872V18.8943Z" fill="#5AA687"/>
<path d="M34.9565 4.51621C32.1521 5.40543 29.4685 6.59313 26.9313 8.071C26.3327 8.41969 26.5753 9.33396 27.268 9.33363L28 9.3333C30.6633 9.3333 33.1482 9.59591 35.4401 10.0283C35.7925 10.0948 36.1561 10.0755 36.4989 9.97008C37.6425 9.61855 38.8055 9.31547 39.9873 9.06435C41.1618 8.81475 42.3124 8.62444 43.4355 8.48586C44.318 8.37693 44.4932 7.17227 43.6744 6.82566C41.4841 5.89838 38.9424 5.05007 36.085 4.46272C35.7103 4.38583 35.321 4.4006 34.9565 4.51621Z" fill="#365E7D"/>
<path d="M12.983 6.54489C8.98607 8.15653 6.03601 10.0901 4.2649 11.4284C3.87508 11.7229 3.64233 12.1961 3.64233 12.6943C3.64233 13.2262 3.90549 13.7213 4.34649 14.0189L6.25126 15.3046C6.71096 15.6149 7.33101 15.5519 7.71065 15.1474C13.7205 8.74409 22.8389 5.2932 26.4495 4.11392C26.6976 4.03287 26.6326 3.66395 26.3719 3.67434C21.7551 3.85765 17.2584 4.82092 12.983 6.54489Z" fill="#365E7D"/>
<path d="M31.3008 33.6911H19.4634C18.9605 33.6911 18.5529 34.0988 18.5529 34.6017V43.7073C18.5529 44.2102 18.9605 44.6179 19.4634 44.6179H31.3008C31.8037 44.6179 32.2114 44.2102 32.2114 43.7073V34.6017C32.2114 34.0988 31.8037 33.6911 31.3008 33.6911ZM28.0057 40.9756H22.7584C22.4473 40.9756 22.195 40.7234 22.195 40.4122V37.8967C22.195 37.5855 22.4473 37.3333 22.7584 37.3333H28.0057C28.3169 37.3333 28.5691 37.5855 28.5691 37.8967V40.4122C28.5691 40.7234 28.3169 40.9756 28.0057 40.9756Z" fill="#FFD064"/>
<path d="M31.3009 33.6911H30.0488V41.5448C30.0488 42.0477 29.6412 42.4553 29.1383 42.4553H18.553V43.7073C18.553 44.2102 18.9606 44.6179 19.4635 44.6179H31.301C31.8039 44.6179 32.2115 44.2102 32.2115 43.7073V34.6017C32.2114 34.0988 31.8038 33.6911 31.3009 33.6911Z" fill="#FFC250"/>
</svg>
