<svg width="56" height="56" viewBox="0 0 56 56" fill="none" xmlns="http://www.w3.org/2000/svg">
<g clip-path="url(#clip0)">
<path d="M37.3568 3.00431C36.3809 3.00431 17.6587 3.00431 16.6864 3.00431C15.3444 3.00431 14.2567 4.10386 14.2567 5.46011V6.83222H14.2568V21.0302H18.0439V8.29697C18.0439 7.48803 18.6927 6.83222 19.4932 6.83222H36.5069C37.3073 6.83222 37.9561 7.48803 37.9561 8.29697V21.0302H39.2643H39.906V4.03758L37.3568 3.00431Z" fill="#5A5A5A"/>
<path d="M53.953 17.4702L51.5493 15.9436V16.0066C51.0827 15.6925 50.5209 15.509 49.916 15.5089H2.92961C1.31163 15.509 0 16.8207 0 18.4385V50.0661C0 51.684 1.31163 52.9957 2.92961 52.9957H49.916C50.5207 52.9956 51.0826 52.812 51.5493 52.498L53.953 51.0986V17.4702Z" fill="#E5EEF9"/>
<path d="M53.0704 15.509H49.9155C51.5335 15.509 52.8451 16.8207 52.8451 18.4387V50.0662C52.8451 51.6842 51.5335 52.9958 49.9155 52.9958H53.0704C54.6884 52.9958 56 51.6842 56 50.0662V18.4385C56 16.8207 54.6884 15.509 53.0704 15.509Z" fill="#D5E3F4"/>
<path d="M41.7433 5.46011C41.7433 4.10386 40.6555 3.00431 39.3137 3.00431H36.8348C38.1767 3.00431 39.2644 4.10386 39.2644 5.46011L39.2645 21.0302H41.7434L41.7433 5.46011Z" fill="#444444"/>
<path d="M11.0986 15.509H44.9014V52.9957H11.0986V15.509Z" fill="#EE6161"/>
<path d="M28 46.1584C34.5756 46.1584 39.9061 40.8279 39.9061 34.2523C39.9061 27.6767 34.5756 22.3462 28 22.3462C21.4244 22.3462 16.0939 27.6767 16.0939 34.2523C16.0939 40.8279 21.4244 46.1584 28 46.1584Z" fill="#E5EEF9"/>
<path d="M35.02 31.7245H30.5279V27.2324C30.5279 26.9212 30.2757 26.669 29.9645 26.669H26.0357C25.7245 26.669 25.4723 26.9212 25.4723 27.2324V31.7245H20.98C20.6688 31.7245 20.4166 31.9768 20.4166 32.2879V36.2168C20.4166 36.528 20.6688 36.7802 20.98 36.7802H25.4723V41.2723C25.4723 41.5835 25.7245 41.8357 26.0357 41.8357H29.9645C30.2757 41.8357 30.5279 41.5835 30.5279 41.2723V36.7802H35.02C35.3312 36.7802 35.5834 36.528 35.5834 36.2168V32.2879C35.5834 31.9768 35.3311 31.7245 35.02 31.7245Z" fill="#F6AB31"/>
<path d="M12.3803 13.4507L11.3813 12.9569C11.2393 12.8609 11.0681 12.8049 10.8838 12.8047H8.82679C8.33515 12.8047 7.93658 13.2033 7.93658 13.6951V20.1399C7.93658 20.6315 8.33515 21.0301 8.82679 21.0301H10.8836C11.0475 21.0301 11.2006 20.985 11.3325 20.9077L12.3803 20.3521V13.4507Z" fill="#FEC165"/>
<path d="M13.3624 12.8047H10.8835C11.3752 12.8047 11.7739 13.2033 11.7739 13.6951V20.1399C11.7739 20.6315 11.3753 21.0301 10.8835 21.0301H13.3624C13.8541 21.0301 14.2527 20.6315 14.2527 20.1399V13.6951C14.2526 13.2034 13.8541 12.8047 13.3624 12.8047Z" fill="#FDB441"/>
<path d="M46.1871 13.4507L45.1882 12.9569C45.0461 12.8609 44.8749 12.8049 44.6906 12.8047H42.6335C42.1418 12.8047 41.7433 13.2033 41.7433 13.6951V20.1399C41.7433 20.6315 42.1418 21.0301 42.6335 21.0301H44.6903C44.8542 21.0301 45.0073 20.985 45.1392 20.9077L46.187 20.3521V13.4507H46.1871Z" fill="#FEC165"/>
<path d="M47.1692 12.8047H44.6904C45.182 12.8047 45.5807 13.2033 45.5807 13.6951V20.1399C45.5807 20.6315 45.1821 21.0301 44.6904 21.0301H47.1692C47.6609 21.0301 48.0596 20.6315 48.0596 20.1399V13.6951C48.0594 13.2034 47.6609 12.8047 47.1692 12.8047Z" fill="#FDB441"/>
</g>
<defs>
<clipPath id="clip0">
<rect width="56" height="56" fill="white"/>
</clipPath>
</defs>
</svg>
