<svg width="56" height="56" viewBox="0 0 56 56" fill="none" xmlns="http://www.w3.org/2000/svg">
<path d="M39.4006 11.2945L28.928 0.821951C28.6818 0.575828 28.348 0.437559 27.9999 0.437559C27.6518 0.437559 27.318 0.575828 27.0719 0.821951L16.5719 11.322C16.361 11.5328 16.2281 11.8092 16.1953 12.1056C16.1624 12.402 16.2315 12.7008 16.3911 12.9527C16.5157 13.1428 16.6863 13.2984 16.887 13.405C17.0878 13.5116 17.3122 13.5658 17.5395 13.5625H21.4374V55.5625H34.5624V13.5625H38.4999C38.798 13.5625 39.0873 13.461 39.32 13.2747C39.5528 13.0885 39.7153 12.8286 39.7808 12.5378C39.8273 12.3153 39.8168 12.0847 39.7503 11.8673C39.6839 11.65 39.5636 11.4529 39.4006 11.2945Z" fill="url(#paint0_linear)"/>
<path d="M28 33.6875C27.6519 33.6875 27.3181 33.5492 27.0719 33.3031C26.8258 33.0569 26.6875 32.7231 26.6875 32.375V29.75C26.6875 29.4019 26.8258 29.0681 27.0719 28.8219C27.3181 28.5758 27.6519 28.4375 28 28.4375C28.3481 28.4375 28.6819 28.5758 28.9281 28.8219C29.1742 29.0681 29.3125 29.4019 29.3125 29.75V32.375C29.3125 32.7231 29.1742 33.0569 28.9281 33.3031C28.6819 33.5492 28.3481 33.6875 28 33.6875ZM28 24.0625C27.6519 24.0625 27.3181 23.9242 27.0719 23.6781C26.8258 23.4319 26.6875 23.0981 26.6875 22.75V20.125C26.6875 19.7769 26.8258 19.4431 27.0719 19.1969C27.3181 18.9508 27.6519 18.8125 28 18.8125C28.3481 18.8125 28.6819 18.9508 28.9281 19.1969C29.1742 19.4431 29.3125 19.7769 29.3125 20.125V22.75C29.3125 23.0981 29.1742 23.4319 28.9281 23.6781C28.6819 23.9242 28.3481 24.0625 28 24.0625ZM28 14.4375C27.6519 14.4375 27.3181 14.2992 27.0719 14.0531C26.8258 13.8069 26.6875 13.4731 26.6875 13.125V10.5C26.6875 10.1519 26.8258 9.81806 27.0719 9.57192C27.3181 9.32578 27.6519 9.1875 28 9.1875C28.3481 9.1875 28.6819 9.32578 28.9281 9.57192C29.1742 9.81806 29.3125 10.1519 29.3125 10.5V13.125C29.3125 13.4731 29.1742 13.8069 28.9281 14.0531C28.6819 14.2992 28.3481 14.4375 28 14.4375Z" fill="#EDEDF1"/>
<path d="M21 19.6875H13.5625V15.8343C13.5657 15.6071 13.5113 15.3828 13.4045 15.1822C13.2977 14.9816 13.1419 14.8113 12.9516 14.6871C12.6997 14.528 12.4011 14.4593 12.105 14.4923C11.8088 14.5253 11.5327 14.658 11.3219 14.8687L0.821946 25.3686C0.700062 25.4905 0.603378 25.6352 0.537415 25.7945C0.471451 25.9537 0.4375 26.1244 0.4375 26.2968C0.4375 26.4691 0.471451 26.6398 0.537415 26.799C0.603378 26.9583 0.700062 27.103 0.821946 27.2248L11.3219 37.7248C11.5329 37.9357 11.8094 38.0684 12.1058 38.1013C12.4023 38.1341 12.7011 38.0651 12.9531 37.9055C13.143 37.7811 13.2985 37.6107 13.405 37.4102C13.5116 37.2097 13.5657 36.9855 13.5625 36.7584V32.8522L21 32.8125C21.116 32.8125 21.2273 32.8586 21.3094 32.9406C21.3914 33.0227 21.4375 33.134 21.4375 33.25V55.5625H34.5625V33.25C34.5625 29.653 33.1336 26.2033 30.5901 23.6599C28.0467 21.1164 24.597 19.6875 21 19.6875Z" fill="url(#paint1_linear)"/>
<path d="M28 38.9375C27.6519 38.9375 27.3181 38.7992 27.0719 38.5531C26.8258 38.3069 26.6875 37.9731 26.6875 37.625V36.3125C26.6875 35.9644 26.8258 35.6306 27.0719 35.3844C27.3181 35.1383 27.6519 35 28 35C28.3481 35 28.6819 35.1383 28.9281 35.3844C29.1742 35.6306 29.3125 35.9644 29.3125 36.3125V37.625C29.3125 37.9731 29.1742 38.3069 28.9281 38.5531C28.6819 38.7992 28.3481 38.9375 28 38.9375Z" fill="#EDEDF1"/>
<path d="M27.5712 32.8682C27.298 32.8681 27.0317 32.7829 26.8093 32.6243C26.5869 32.4657 26.4195 32.2417 26.3305 31.9834C26.1671 31.5104 25.9499 31.0577 25.6831 30.6342C25.5913 30.4883 25.529 30.3258 25.5 30.1559C25.4709 29.986 25.4756 29.8121 25.5138 29.644C25.552 29.4759 25.6229 29.317 25.7225 29.1763C25.8221 29.0356 25.9484 28.9159 26.0942 28.8241C26.2401 28.7322 26.4026 28.67 26.5725 28.6409C26.7424 28.6119 26.9163 28.6166 27.0844 28.6547C27.2525 28.6929 27.4114 28.7638 27.5521 28.8634C27.6928 28.963 27.8125 29.0893 27.9043 29.2352C28.2784 29.829 28.583 30.4639 28.8121 31.1274C28.8802 31.3251 28.9001 31.5362 28.8701 31.7432C28.8401 31.9501 28.7612 32.1469 28.6398 32.3172C28.5184 32.4875 28.3581 32.6264 28.1723 32.7222C27.9864 32.8181 27.7804 32.8681 27.5713 32.8683L27.5712 32.8682Z" fill="#EDEDF1"/>
<path d="M23.1902 28.1819C23.0147 28.1818 22.841 28.1464 22.6794 28.0779C22.2186 27.8831 21.7368 27.742 21.2438 27.6572C20.9007 27.5983 20.595 27.4055 20.3941 27.1213C20.1932 26.8371 20.1134 26.4846 20.1723 26.1416C20.2312 25.7985 20.4239 25.4928 20.7082 25.2919C20.9924 25.091 21.3448 25.0112 21.6879 25.0701C22.3797 25.189 23.0556 25.3872 23.7021 25.6607C23.9812 25.7785 24.211 25.9894 24.3524 26.2573C24.4938 26.5253 24.5381 26.834 24.4778 27.1309C24.4175 27.4279 24.2564 27.6948 24.0217 27.8865C23.787 28.0781 23.4932 28.1826 23.1902 28.1823V28.1819ZM16.6686 27.5625H14.8672C14.5191 27.5625 14.1853 27.4242 13.9391 27.1781C13.693 26.9319 13.5547 26.5981 13.5547 26.25C13.5547 25.9019 13.693 25.5681 13.9391 25.3219C14.1853 25.0758 14.5191 24.9375 14.8672 24.9375H16.6686C17.0167 24.9375 17.3505 25.0758 17.5967 25.3219C17.8428 25.5681 17.9811 25.9019 17.9811 26.25C17.9811 26.5981 17.8428 26.9319 17.5967 27.1781C17.3505 27.4242 17.0167 27.5625 16.6686 27.5625Z" fill="#EDEDF1"/>
<path d="M10.0625 27.5625H8.75C8.4019 27.5625 8.06806 27.4242 7.82192 27.1781C7.57578 26.9319 7.4375 26.5981 7.4375 26.25C7.4375 25.9019 7.57578 25.5681 7.82192 25.3219C8.06806 25.0758 8.4019 24.9375 8.75 24.9375H10.0625C10.4106 24.9375 10.7444 25.0758 10.9906 25.3219C11.2367 25.5681 11.375 25.9019 11.375 26.25C11.375 26.5981 11.2367 26.9319 10.9906 27.1781C10.7444 27.4242 10.4106 27.5625 10.0625 27.5625Z" fill="#EDEDF1"/>
<path d="M55.178 38.447L44.7055 27.9743C44.5471 27.8113 44.35 27.691 44.1327 27.6246C43.9153 27.5581 43.6847 27.5476 43.4622 27.5941C43.1714 27.6596 42.9115 27.8221 42.7253 28.0549C42.539 28.2877 42.4375 28.5769 42.4375 28.875V32.7657H35C31.403 32.7657 27.9533 34.1946 25.4099 36.738C22.8664 39.2815 21.4375 42.7312 21.4375 46.3282V55.5625H34.5625V46.3282C34.5622 46.2133 34.6073 46.1029 34.6879 46.021C34.7685 45.9391 34.8781 45.8923 34.993 45.8907L42.4375 45.9305V49.8369C42.4343 50.0639 42.4884 50.2881 42.595 50.4886C42.7015 50.689 42.8569 50.8594 43.0468 50.9837C43.2989 51.1433 43.5977 51.2123 43.8941 51.1795C44.1906 51.1466 44.467 51.0139 44.678 50.803L55.178 40.303C55.4242 40.0569 55.5624 39.7231 55.5624 39.375C55.5624 39.0269 55.4242 38.6931 55.178 38.447Z" fill="url(#paint2_linear)"/>
<path d="M28 54.6875C27.6519 54.6875 27.3181 54.5492 27.0719 54.3031C26.8258 54.057 26.6875 53.7231 26.6875 53.375V52.0625C26.6875 51.7144 26.8258 51.3806 27.0719 51.1344C27.3181 50.8883 27.6519 50.75 28 50.75C28.3481 50.75 28.6819 50.8883 28.9281 51.1344C29.1742 51.3806 29.3125 51.7144 29.3125 52.0625V53.375C29.3125 53.7231 29.1742 54.057 28.9281 54.3031C28.6819 54.5492 28.3481 54.6875 28 54.6875Z" fill="#EDEDF1"/>
<path d="M28.0172 48.0594C27.9893 48.0594 27.9613 48.0585 27.9332 48.0568C27.5858 48.0348 27.2613 47.8758 27.0312 47.6146C26.801 47.3535 26.6841 47.0116 26.706 46.6642C26.7547 45.8891 26.9017 45.1233 27.1435 44.3852C27.2571 44.0611 27.4933 43.7945 27.8014 43.6425C28.1094 43.4906 28.4647 43.4654 28.791 43.5725C29.1174 43.6795 29.3888 43.9102 29.547 44.2151C29.7052 44.5199 29.7376 44.8747 29.6372 45.2031C29.4648 45.7298 29.3599 46.2763 29.3252 46.8295C29.3042 47.1623 29.1573 47.4746 28.9144 47.7031C28.6714 47.9315 28.3506 48.0589 28.0172 48.0594Z" fill="#EDEDF1"/>
<path d="M31.5684 41.9691C31.2857 41.9694 31.0104 41.8784 30.7836 41.7096C30.5567 41.5408 30.3905 41.3032 30.3096 41.0323C30.2286 40.7614 30.2373 40.4716 30.3344 40.2061C30.4315 39.9405 30.6117 39.7134 30.8483 39.5585C31.498 39.1329 32.1994 38.7917 32.9354 38.5432C33.0988 38.4877 33.2715 38.465 33.4437 38.4763C33.6159 38.4877 33.7842 38.5329 33.9389 38.6093C34.0936 38.6858 34.2317 38.792 34.3453 38.9219C34.459 39.0518 34.5458 39.2028 34.601 39.3663C34.6562 39.5298 34.6786 39.7026 34.6669 39.8748C34.6552 40.047 34.6097 40.2152 34.533 40.3697C34.4562 40.5243 34.3497 40.6622 34.2196 40.7756C34.0895 40.8889 33.9383 40.9755 33.7747 41.0304C33.2498 41.2077 32.7496 41.451 32.2861 41.7546C32.073 41.8946 31.8235 41.9692 31.5684 41.9691ZM40.6198 40.6875H38.6262C38.2782 40.6875 37.9443 40.5492 37.6982 40.3031C37.452 40.0569 37.3137 39.7231 37.3137 39.375C37.3137 39.0269 37.452 38.6931 37.6982 38.4469C37.9443 38.2008 38.2782 38.0625 38.6262 38.0625H40.6198C40.9679 38.0625 41.3018 38.2008 41.5479 38.4469C41.794 38.6931 41.9323 39.0269 41.9323 39.375C41.9323 39.7231 41.794 40.0569 41.5479 40.3031C41.3018 40.5492 40.9679 40.6875 40.6198 40.6875Z" fill="#EDEDF1"/>
<path d="M47.25 40.6875H45.9375C45.5894 40.6875 45.2556 40.5492 45.0094 40.3031C44.7633 40.057 44.625 39.7231 44.625 39.375C44.625 39.0269 44.7633 38.6931 45.0094 38.4469C45.2556 38.2008 45.5894 38.0625 45.9375 38.0625H47.25C47.5981 38.0625 47.9319 38.2008 48.1781 38.4469C48.4242 38.6931 48.5625 39.0269 48.5625 39.375C48.5625 39.7231 48.4242 40.057 48.1781 40.3031C47.9319 40.5492 47.5981 40.6875 47.25 40.6875Z" fill="#EDEDF1"/>
<defs>
<linearGradient id="paint0_linear" x1="12.4421" y1="46.5672" x2="43.5578" y2="15.4517" gradientUnits="userSpaceOnUse">
<stop offset="0.011" stop-color="#606082"/>
<stop offset="1" stop-color="#83839E"/>
</linearGradient>
<linearGradient id="paint1_linear" x1="12.0164" y1="46.1414" x2="32.544" y2="25.6137" gradientUnits="userSpaceOnUse">
<stop offset="0.011" stop-color="#60C6BE"/>
<stop offset="1" stop-color="#80D1CB"/>
</linearGradient>
<linearGradient id="paint2_linear" x1="22.3448" y1="56.4698" x2="47.7728" y2="31.0417" gradientUnits="userSpaceOnUse">
<stop offset="0.011" stop-color="#F8C73F"/>
<stop offset="1" stop-color="#FADA7F"/>
</linearGradient>
</defs>
</svg>
