<svg width="56" height="56" viewBox="0 0 56 56" fill="none" xmlns="http://www.w3.org/2000/svg">
<g clip-path="url(#clip0)">
<path d="M38.7529 15.1086C38.7529 15.8568 39.361 16.464 40.1082 16.464H43.6713C44.4194 16.464 45.0266 15.8576 45.0266 15.1086L47.1695 9.45969C47.1695 8.71154 46.5614 8.10435 45.8124 8.10435H40.1073C39.3601 8.10435 38.752 8.71076 38.752 9.45969V15.1086H38.7529Z" fill="#1D2226"/>
<path d="M29.5978 8.48748C29.5978 9.12443 30.114 9.63897 30.7493 9.63897H47.1249C47.7611 9.63897 48.2764 9.12354 48.2764 8.48748C48.2764 7.8513 47.7602 7.33687 47.1249 7.33687H30.7502C30.114 7.33687 29.5978 7.8523 29.5978 8.48748Z" fill="#2D333A"/>
<path d="M38.7529 31.2077C38.7529 31.9567 39.361 32.5639 40.1082 32.5639H43.6713C44.4194 32.5639 45.0266 31.9575 45.0266 31.2077L47.1695 25.5595C47.1695 24.8114 46.5614 24.2042 45.8124 24.2042H40.1073C39.3601 24.2042 38.752 24.8106 38.752 25.5595V31.2077H38.7529Z" fill="#1D2226"/>
<path d="M29.5978 24.5883C29.5978 25.2245 30.114 25.7398 30.7493 25.7398H47.1249C47.7611 25.7398 48.2764 25.2236 48.2764 24.5883C48.2764 23.9522 47.7602 23.4377 47.1249 23.4377H30.7502C30.114 23.4368 29.5978 23.9523 29.5978 24.5883Z" fill="#2D333A"/>
<path d="M38.7529 47.3078C38.7529 48.0559 39.361 48.6631 40.1082 48.6631H43.6713C44.4194 48.6631 45.0266 48.0567 45.0266 47.3078L47.1695 41.6596C47.1695 40.9115 46.5614 40.3034 45.8124 40.3034H40.1073C39.3601 40.3034 38.752 40.9107 38.752 41.6596V47.3078H38.7529Z" fill="#1D2226"/>
<path d="M29.5978 40.6884C29.5978 41.3246 30.114 41.839 30.7493 41.839H47.1249C47.7611 41.839 48.2764 41.3236 48.2764 40.6884C48.2764 40.0522 47.7602 39.5369 47.1249 39.5369H30.7502C30.114 39.5369 29.5978 40.0522 29.5978 40.6884Z" fill="#2D333A"/>
<path d="M17.2471 15.1087C17.2471 15.8568 16.639 16.464 15.8918 16.464H12.3288C11.5806 16.464 10.9734 15.8576 10.9734 15.1087L8.83051 9.45958C8.83051 8.71143 9.43858 8.10425 10.1876 8.10425H15.8927C16.6399 8.10425 17.248 8.71066 17.248 9.45958V15.1085H17.2471V15.1087Z" fill="#393F47"/>
<path d="M26.4022 8.48748C26.4022 9.12443 25.886 9.63897 25.2507 9.63897H8.87519C8.23901 9.63897 7.72369 9.12354 7.72369 8.48748C7.72369 7.8513 8.2399 7.33687 8.87519 7.33687H25.2509C25.886 7.33687 26.4022 7.8523 26.4022 8.48748Z" fill="#2D333A"/>
<path d="M17.2471 31.2077C17.2471 31.9567 16.639 32.5639 15.8918 32.5639H12.3288C11.5806 32.5639 10.9734 31.9575 10.9734 31.2077L8.83051 25.5595C8.83051 24.8114 9.43858 24.2042 10.1876 24.2042H15.8927C16.6399 24.2042 17.248 24.8106 17.248 25.5595V31.2077H17.2471Z" fill="#393F47"/>
<path d="M26.4022 24.5883C26.4022 25.2245 25.886 25.7398 25.2507 25.7398H8.87519C8.23901 25.7398 7.72369 25.2236 7.72369 24.5883C7.72369 23.9522 8.2399 23.4377 8.87519 23.4377H25.2509C25.886 23.4368 26.4022 23.9523 26.4022 24.5883Z" fill="#2D333A"/>
<path d="M17.2471 47.3078C17.2471 48.0559 16.639 48.6631 15.8918 48.6631H12.3288C11.5806 48.6631 10.9734 48.0567 10.9734 47.3078L8.83051 41.6596C8.83051 40.9115 9.43858 40.3034 10.1876 40.3034H15.8927C16.6399 40.3034 17.248 40.9107 17.248 41.6596V47.3078H17.2471Z" fill="#393F47"/>
<path d="M26.4022 40.6884C26.4022 41.3246 25.886 41.839 25.2507 41.839H8.87519C8.23901 41.839 7.72369 41.3236 7.72369 40.6884C7.72369 40.0522 8.2399 39.5369 8.87519 39.5369H25.2509C25.886 39.5369 26.4022 40.0522 26.4022 40.6884Z" fill="#2D333A"/>
<path d="M41.6754 52.5272C41.6754 54.4443 41.8697 56.0001 39.9516 56.0001H16.0484C14.1313 56.0001 14.3246 54.4453 14.3246 52.5272V3.47293C14.3246 1.55573 15.8803 0 17.7984 0H38.2017C40.1187 0 41.6754 1.55484 41.6754 3.47293V52.5272Z" fill="#444951"/>
<path d="M14.3246 3.47293C14.3246 1.55573 15.8803 0 17.7984 0H38.2017C40.1187 0 41.6754 1.55484 41.6754 3.47293V52.5272C41.6754 54.4443 41.8697 56.0001 39.9516 56.0001" fill="#393F47"/>
<path d="M33.5458 11.5937C33.5458 14.6142 31.0967 20.5624 28.0771 20.5624C25.0557 20.5624 22.6083 14.6142 22.6083 11.5937C22.6083 8.57325 25.0557 6.12495 28.0771 6.12495C31.0967 6.12495 33.5458 8.57325 33.5458 11.5937Z" fill="#2D333A"/>
<path d="M28.0771 17.0625C31.0974 17.0625 33.5458 14.6141 33.5458 11.5937C33.5458 8.57341 31.0974 6.12495 28.0771 6.12495C25.0567 6.12495 22.6083 8.57341 22.6083 11.5937C22.6083 14.6141 25.0567 17.0625 28.0771 17.0625Z" fill="#EF2E65"/>
<path d="M24.2095 7.72711C26.3446 5.59119 29.8069 5.59119 31.9428 7.72711C34.0787 9.86214 34.0787 13.3254 31.9428 15.4612" fill="#CC0E57"/>
<path d="M33.5458 26.6148C33.5458 29.6353 31.0967 35.5835 28.0771 35.5835C25.0557 35.5835 22.6083 29.6353 22.6083 26.6148C22.6083 23.5943 25.0557 21.1461 28.0771 21.1461C31.0967 21.1462 33.5458 23.5943 33.5458 26.6148Z" fill="#2D333A"/>
<path d="M28.0771 32.0836C31.0974 32.0836 33.5458 29.6352 33.5458 26.6148C33.5458 23.5945 31.0974 21.1461 28.0771 21.1461C25.0567 21.1461 22.6083 23.5945 22.6083 26.6148C22.6083 29.6352 25.0567 32.0836 28.0771 32.0836Z" fill="#EDBF2F"/>
<path d="M24.2095 22.7473C26.3446 20.6114 29.8069 20.6114 31.9428 22.7473C34.0787 24.8824 34.0787 28.3456 31.9428 30.4814" fill="#DBA81B"/>
<path d="M33.5458 41.6352C33.5458 44.6557 31.0967 50.6039 28.0771 50.6039C25.0557 50.6039 22.6083 44.6557 22.6083 41.6352C22.6083 38.6147 25.0557 36.1664 28.0771 36.1664C31.0967 36.1664 33.5458 38.6146 33.5458 41.6352Z" fill="#2D333A"/>
<path d="M28.0771 47.1013C31.0974 47.1013 33.5458 44.6528 33.5458 41.6325C33.5458 38.6122 31.0974 36.1637 28.0771 36.1637C25.0567 36.1637 22.6083 38.6122 22.6083 41.6325C22.6083 44.6528 25.0567 47.1013 28.0771 47.1013Z" fill="#32D85D"/>
<path d="M24.2095 37.7686C26.3446 35.6326 29.8069 35.6326 31.9428 37.7686C34.0787 39.9036 34.0787 43.3669 31.9428 45.5027" fill="#19BF55"/>
<path d="M16.0484 56C14.1313 56 14.3246 54.4452 14.3246 52.5271V3.47293C14.3246 1.55573 15.8803 0 17.7984 0" fill="#4F545B"/>
</g>
<defs>
<clipPath id="clip0">
<rect width="56" height="56" fill="white"/>
</clipPath>
</defs>
</svg>
