<svg width="56" height="56" viewBox="0 0 56 56" fill="none" xmlns="http://www.w3.org/2000/svg">
<g clip-path="url(#clip0)">
<path d="M53.9503 16.9155L45.996 8.80251C45.2842 8.07647 44.3101 7.66741 43.2933 7.66741H10.7056C9.99529 7.66741 9.41943 8.24327 9.41943 8.95355V27.2794C9.41943 27.9897 9.99529 28.5656 10.7056 28.5656H43.2933C44.3101 28.5656 45.2842 28.1565 45.996 27.4305L53.9503 19.3175C54.6043 18.6504 54.6043 17.5826 53.9503 16.9155Z" fill="#23A8FE"/>
<path d="M13.7856 27.2794V8.95355C13.7856 8.24327 14.3613 7.66741 15.0717 7.66741H10.7056C9.99529 7.66741 9.41943 8.24327 9.41943 8.95355V27.2794C9.41943 27.9897 9.99529 28.5656 10.7056 28.5656H15.0716C14.3613 28.5655 13.7856 27.9897 13.7856 27.2794Z" fill="#0193FA"/>
<path d="M4.07895 56C3.14719 56 2.39185 55.2447 2.39185 54.3129V7.03391C2.39185 3.61441 5.1738 0.832458 8.5933 0.832458H46.5832C47.5149 0.832458 48.2703 1.5878 48.2703 2.51957C48.2703 3.45133 47.5149 4.20668 46.5832 4.20668H8.59319C7.03438 4.20668 5.76606 5.47488 5.76606 7.0338V54.3127C5.76617 55.2447 5.01072 56 4.07895 56Z" fill="#665E68"/>
<path d="M12.0341 0.832458H8.59305C5.17355 0.832458 2.3916 3.61441 2.3916 7.03391V54.3128C2.3916 55.2446 3.14695 55.9999 4.07882 55.9999C5.01059 55.9999 5.76593 55.2446 5.76593 54.3128V7.03391C5.76593 6.74669 5.80924 6.46943 5.8893 6.20813C6.29454 3.1779 8.89471 0.832458 12.0341 0.832458Z" fill="#554E56"/>
<path d="M39.1316 8.49986C38.6718 8.49986 38.2991 8.12711 38.2991 7.66741V0.832453C38.2991 0.372641 38.6718 0 39.1316 0C39.5914 0 39.9641 0.37275 39.9641 0.832453V7.6673C39.9642 8.12711 39.5914 8.49986 39.1316 8.49986Z" fill="#B7AEB8"/>
<path d="M16.1486 8.49986C15.6888 8.49986 15.3162 8.12711 15.3162 7.66741V0.832453C15.3162 0.372641 15.6889 0 16.1486 0C16.6084 0 16.9812 0.37275 16.9812 0.832453V7.6673C16.9812 8.12711 16.6084 8.49986 16.1486 8.49986Z" fill="#B7AEB8"/>
<path d="M22.9281 11.7896H21.5636C21.3263 11.7896 21.1217 11.964 21.074 12.2069L18.7955 23.8161C18.732 24.1399 18.9687 24.4432 19.2851 24.4432H22.9281C23.2041 24.4432 23.4279 24.2094 23.4279 23.921V12.3118C23.4279 12.0234 23.2041 11.7896 22.9281 11.7896Z" fill="#DFEBFA"/>
<path d="M30.9356 23.8161L28.6571 12.2069C28.6094 11.964 28.4049 11.7896 28.1675 11.7896H26.803C26.527 11.7896 26.3032 12.0235 26.3032 12.3119V23.9211C26.3032 24.2095 26.527 24.4433 26.803 24.4433H30.446C30.7625 24.4433 30.9991 24.1399 30.9356 23.8161Z" fill="#DFEBFA"/>
<path d="M21.1169 23.8161L23.3954 12.2069C23.398 12.1935 23.4028 12.1813 23.4063 12.1684C23.3464 11.9502 23.1562 11.7896 22.9281 11.7896H21.5636C21.3264 11.7896 21.1217 11.964 21.074 12.2069L18.7955 23.8161C18.732 24.1399 18.9687 24.4432 19.285 24.4432H21.6062C21.29 24.4433 21.0534 24.1399 21.1169 23.8161Z" fill="#B1DBFC"/>
<path d="M28.6247 23.9211V12.3118C28.6247 12.2617 28.6337 12.2142 28.6463 12.1683C28.5852 11.9461 28.392 11.7895 28.1678 11.7895H26.8032C26.5272 11.7895 26.3035 12.0234 26.3035 12.3118V23.921C26.3035 24.2094 26.5272 24.4432 26.8032 24.4432H29.1246C28.8485 24.4433 28.6247 24.2095 28.6247 23.9211Z" fill="#B1DBFC"/>
<path d="M50.1934 17.6741L44.0821 11.4408C43.9852 11.3421 43.8526 11.2864 43.7143 11.2864H40.054C39.5976 11.2864 39.3667 11.8361 39.6862 12.1621L45.0904 17.6741C45.3313 17.9198 45.3313 18.3131 45.0904 18.5587L39.6862 24.0708C39.3666 24.3968 39.5975 24.9465 40.054 24.9465H43.7143C43.8526 24.9465 43.9852 24.8908 44.0821 24.792L50.1934 18.5587C50.4344 18.3131 50.4344 17.9198 50.1934 17.6741Z" fill="#DFEBFA"/>
<path d="M42.4059 24.0708L47.8102 18.5587C48.0511 18.3131 48.0511 17.9198 47.8102 17.6741L42.4059 12.1621C42.0863 11.8361 42.3173 11.2864 42.7737 11.2864H40.0542C39.5978 11.2864 39.3669 11.8362 39.6864 12.1621L45.0907 17.6741C45.3316 17.9198 45.3316 18.3131 45.0907 18.5587L39.6864 24.0708C39.3668 24.3968 39.5978 24.9465 40.0542 24.9465H42.7737C42.3173 24.9466 42.0863 24.3968 42.4059 24.0708Z" fill="#B1DBFC"/>
<path d="M9.41934 18.949H2.39178C1.93197 18.949 1.55933 18.5763 1.55933 18.1165C1.55933 17.6567 1.93208 17.2841 2.39178 17.2841H9.41934C9.87916 17.2841 10.2518 17.6568 10.2518 18.1165C10.2519 18.5763 9.87916 18.949 9.41934 18.949Z" fill="#B7AEB8"/>
<path d="M16.673 21.0301C16.6012 21.0301 16.5282 21.0207 16.4556 21.0011C16.0117 20.8812 15.749 20.4243 15.8688 19.9804L16.5415 17.4886C16.6612 17.0448 17.1184 16.7821 17.5621 16.9018C18.006 17.0217 18.2687 17.4787 18.1489 17.9225L17.4763 20.4143C17.3761 20.7855 17.04 21.0301 16.673 21.0301Z" fill="#8BCAFF"/>
<path d="M33.0584 21.0301C32.6913 21.0301 32.3553 20.7856 32.2551 20.4143L31.5825 17.9225C31.4626 17.4787 31.7253 17.0217 32.1693 16.9018C32.6133 16.7818 33.0701 17.0448 33.1899 17.4886L33.8626 19.9804C33.9825 20.4243 33.7198 20.8812 33.2758 21.0011C33.2032 21.0207 33.1301 21.0301 33.0584 21.0301Z" fill="#8BCAFF"/>
<path d="M33.4159 18.538H16.3151C15.8553 18.538 15.4827 18.1652 15.4827 17.7055C15.4827 17.2457 15.8554 16.8731 16.3151 16.8731H33.4159C33.8757 16.8731 34.2484 17.2458 34.2484 17.7055C34.2485 18.1652 33.8757 18.538 33.4159 18.538Z" fill="#B1DBFC"/>
</g>
<defs>
<clipPath id="clip0">
<rect width="56" height="56" fill="white"/>
</clipPath>
</defs>
</svg>
