<svg width="34" height="40" viewBox="0 0 34 40" fill="none" xmlns="http://www.w3.org/2000/svg">
<path d="M22.4252 9.64535H8.862V16.427C8.862 16.6575 8.86878 16.8813 8.88913 17.1051C8.90947 17.3289 8.9366 17.5459 8.97051 17.7629C9.24746 19.4379 10.0419 20.9841 11.2423 22.1845C12.3296 23.2705 13.7021 24.0264 15.2011 24.3649C16.7 24.7033 18.2642 24.6104 19.7126 24.097C21.0837 23.6122 22.3 22.7691 23.235 21.6552C24.17 20.5413 24.7896 19.1973 25.0294 17.7629C25.0633 17.5459 25.0904 17.3289 25.1107 17.1051C25.1311 16.8813 25.1379 16.6575 25.1379 16.427V8.91293C24.3155 9.39556 23.3787 9.64851 22.4252 9.64535Z" fill="#FFC477"/>
<path d="M25.1379 8.91293V16.427C25.1379 16.6575 25.1311 16.8813 25.1108 17.1051C25.0905 17.3289 25.0633 17.5459 25.0294 17.7629C24.7896 19.1973 24.1701 20.5413 23.2351 21.6552C22.3001 22.7691 21.0838 23.6122 19.7126 24.097C18.8422 24.4085 17.9245 24.5668 17 24.5649C16.5455 24.5644 16.0918 24.5258 15.6437 24.4496C16.1058 24.3746 16.5599 24.2565 17 24.097C18.3711 23.6122 19.5874 22.7691 20.5224 21.6552C21.4574 20.5413 22.077 19.1973 22.3168 17.7629C22.3507 17.5459 22.3778 17.3289 22.3982 17.1051C22.4185 16.8813 22.4253 16.6575 22.4253 16.427V9.64535C23.3788 9.64851 24.3156 9.39556 25.1379 8.91293Z" fill="#FFA733"/>
<path d="M32.5977 34.8526V40.8407H1.40228V34.8526C1.40161 33.6541 1.79781 32.4891 2.52901 31.5396C3.26021 30.59 4.28526 29.9092 5.44412 29.6036L11.6086 27.9828L17 32.0247L22.3914 27.9828L28.5558 29.6036C29.7147 29.9092 30.7398 30.59 31.471 31.5396C32.2022 32.4891 32.5984 33.6541 32.5977 34.8526Z" fill="#C0AB91"/>
<path d="M32.5977 34.8526V40.8407H29.8851V34.8526C29.8857 33.6541 29.4895 32.4891 28.7583 31.5396C28.0271 30.59 27.0021 29.9092 25.8432 29.6036L21.6861 28.5118L22.3914 27.9828L28.5559 29.6036C29.7147 29.9092 30.7398 30.59 31.471 31.5396C32.2022 32.4891 32.5984 33.6541 32.5977 34.8526Z" fill="#A78966"/>
<path d="M27.8505 1.50742V4.22006C27.8517 5.17188 27.6014 6.10712 27.1251 6.93118C26.6488 7.75524 25.9632 8.43887 25.1379 8.91293C24.3155 9.39556 23.3787 9.64851 22.4252 9.64535H8.862V6.9327C8.862 5.49383 9.43359 4.11388 10.451 3.09645C11.4685 2.07901 12.8484 1.50742 14.2873 1.50742H19.7126L19.0344 4.22006L23.7815 1.50742V4.22006L27.8505 1.50742Z" fill="#FFD422"/>
<path d="M27.8505 1.50742V4.22006C27.8517 5.17188 27.6014 6.10712 27.1251 6.93118C26.6488 7.75524 25.9632 8.43887 25.1379 8.91293C24.3156 9.39556 23.3787 9.64851 22.4252 9.64535H19.7126C20.6661 9.64851 21.6029 9.39556 22.4252 8.91293C23.2506 8.43887 23.9361 7.75524 24.4125 6.93118C24.8888 6.10712 25.139 5.17188 25.1379 4.22006V3.31811L27.8505 1.50742Z" fill="#EBBF00"/>
<path d="M25.138 11.6799C25.8574 11.6799 26.5474 11.9657 27.0561 12.4744C27.5648 12.9831 27.8506 13.6731 27.8506 14.3925C27.8506 15.112 27.5648 15.8019 27.0561 16.3106C26.5474 16.8194 25.8574 17.1052 25.138 17.1052H25.1108C25.1312 16.8814 25.138 16.6576 25.138 16.427V11.6799Z" fill="#FFC477"/>
<path d="M25.8161 34.0592V36.7718L23.7816 38.1281L21.7471 36.7718V34.0592H25.8161Z" fill="#957856"/>
<path d="M25.8161 34.0592V36.7718L23.7816 38.1281V34.0592H25.8161Z" fill="#806749"/>
<path d="M22.3913 27.9828L17 32.0247L11.6086 27.9828L14.2873 27.2775V24.097C16.0419 24.7209 17.958 24.7209 19.7126 24.097V27.2775L22.3913 27.9828Z" fill="#FFC477"/>
<path d="M8.88925 17.1052H8.86212C8.14268 17.1052 7.45271 16.8194 6.94399 16.3106C6.43527 15.8019 6.14948 15.112 6.14948 14.3925C6.14948 13.6731 6.43527 12.9831 6.94399 12.4744C7.45271 11.9657 8.14268 11.6799 8.86212 11.6799V16.427C8.86212 16.6576 8.8689 16.8814 8.88925 17.1052Z" fill="#FFC477"/>
<path d="M14.9655 15.0707C14.9655 14.5311 14.7512 14.0136 14.3696 13.6321C13.9881 13.2505 13.4706 13.0362 12.931 13.0362C12.3914 13.0362 11.874 13.2505 11.4924 13.6321C11.1109 14.0136 10.8965 14.5311 10.8965 15.0707H12.2529C12.2529 14.8908 12.3243 14.7183 12.4515 14.5911C12.5787 14.464 12.7512 14.3925 12.931 14.3925C13.1109 14.3925 13.2834 14.464 13.4106 14.5911C13.5377 14.7183 13.6092 14.8908 13.6092 15.0707H14.9655Z" fill="black"/>
<path d="M21.069 14.3925C21.2489 14.3925 21.4214 14.464 21.5486 14.5911C21.6757 14.7183 21.7472 14.8908 21.7472 15.0707H23.1035C23.1035 14.5311 22.8892 14.0136 22.5076 13.6321C22.1261 13.2505 21.6086 13.0362 21.069 13.0362C20.5295 13.0362 20.012 13.2505 19.6304 13.6321C19.2489 14.0136 19.0345 14.5311 19.0345 15.0707H20.3909C20.3909 14.8908 20.4623 14.7183 20.5895 14.5911C20.7167 14.464 20.8892 14.3925 21.069 14.3925Z" fill="black"/>
<path d="M28.7254 28.9458L20.3908 26.7554V24.5649C21.7895 23.978 23.0134 23.0407 23.9446 21.8434C24.8759 20.6461 25.483 19.2292 25.7076 17.729C26.4968 17.597 27.2135 17.1892 27.7301 16.5782C28.2467 15.9672 28.5297 15.1926 28.5287 14.3925C28.5267 13.6114 28.256 12.8547 27.7621 12.2496C27.2681 11.6445 26.581 11.2278 25.8161 11.0695V9.29272C26.6499 8.73487 27.3336 7.98028 27.8067 7.09558C28.2798 6.21089 28.5278 5.22332 28.5287 4.22007V1.50743C28.5296 1.3845 28.4965 1.26372 28.4331 1.15841C28.3696 1.05311 28.2784 0.967364 28.1693 0.910648C28.0624 0.850878 27.9409 0.822363 27.8186 0.828359C27.6963 0.834355 27.5781 0.874619 27.4776 0.944556L24.4598 2.95191V1.50743C24.4607 1.38875 24.4297 1.27199 24.3701 1.16938C24.3104 1.06677 24.2243 0.982093 24.1207 0.924212C24.0183 0.863256 23.9016 0.830516 23.7825 0.829325C23.6634 0.828134 23.5461 0.858534 23.4425 0.91743L20.0788 2.84341L20.3704 1.67019C20.3947 1.57002 20.3964 1.46568 20.3753 1.36479C20.3542 1.2639 20.3108 1.16899 20.2484 1.08697C20.1845 1.00615 20.1031 0.940936 20.0102 0.896284C19.9174 0.851632 19.8156 0.828714 19.7126 0.829269H14.2873C12.6694 0.83178 11.1184 1.47563 9.97432 2.6197C8.83025 3.76378 8.1864 5.31475 8.18389 6.93272V11.0695C7.41183 11.2298 6.71977 11.6541 6.22677 12.2695C5.73377 12.8849 5.47066 13.6529 5.48271 14.4413C5.49475 15.2297 5.78119 15.9893 6.29276 16.5894C6.80432 17.1894 7.50902 17.5924 8.28561 17.729C8.50488 19.2328 9.11072 20.6539 10.0439 21.8533C10.977 23.0527 12.2055 23.9894 13.6092 24.5717V26.7554L5.2678 28.9458C3.96616 29.2935 2.81548 30.0606 1.99404 31.1285C1.1726 32.1964 0.726243 33.5053 0.724121 34.8526V40.8408C0.724121 41.0206 0.79557 41.1931 0.92275 41.3203C1.04993 41.4475 1.22242 41.5189 1.40228 41.5189H32.5977C32.7775 41.5189 32.95 41.4475 33.0772 41.3203C33.2044 41.1931 33.2758 41.0206 33.2758 40.8408V34.8526C33.2736 33.5044 32.8263 32.1946 32.0035 31.1266C31.1807 30.0586 30.0284 29.292 28.7254 28.9458ZM8.18389 16.3049C7.90086 16.2036 7.64214 16.0442 7.42435 15.837C7.18128 15.594 7.00371 15.2935 6.90822 14.9633C6.81273 14.6332 6.80242 14.2842 6.87826 13.949C6.95411 13.6138 7.11363 13.3033 7.34194 13.0464C7.57025 12.7896 7.85991 12.5947 8.18389 12.4801V16.3049ZM27.1724 14.3925C27.1737 14.9309 26.9616 15.4479 26.5824 15.8302C26.3657 16.0422 26.1037 16.2022 25.8161 16.2981V12.4801C26.2113 12.6208 26.5535 12.8799 26.7962 13.2221C27.0389 13.5643 27.1702 13.973 27.1724 14.3925ZM9.54021 6.93272C9.54165 5.67414 10.0423 4.46753 10.9322 3.57758C11.8221 2.68763 13.0288 2.18703 14.2873 2.18559H18.8446L18.3766 4.05732C18.3441 4.18655 18.3504 4.32251 18.3947 4.4482C18.4389 4.5739 18.5193 4.68376 18.6256 4.76407C18.732 4.84438 18.8596 4.89157 18.9927 4.89975C19.1257 4.90793 19.2582 4.87674 19.3735 4.81007L23.1034 2.67387V4.22007C23.1026 4.343 23.1357 4.46378 23.1991 4.56909C23.2625 4.6744 23.3538 4.76014 23.4629 4.81686C23.5697 4.87663 23.6913 4.90514 23.8136 4.89915C23.9359 4.89315 24.0541 4.85288 24.1546 4.78295L27.1724 2.77559V4.22007C27.171 5.47865 26.6704 6.68527 25.7804 7.57521C24.8905 8.46516 23.6838 8.96576 22.4253 8.9672H9.54021V6.93272ZM11.7239 21.7031C11.0282 21.0124 10.4769 20.1902 10.102 19.2844C9.72714 18.3786 9.53616 17.4073 9.54021 16.427V10.3235H22.4253C23.1192 10.3228 23.8076 10.2012 24.4598 9.9641V16.427C24.4602 17.9027 24.023 19.3455 23.2033 20.5727C22.3837 21.7999 21.2184 22.7564 19.855 23.3212C18.4916 23.8861 16.9914 24.0338 15.544 23.7458C14.0966 23.4577 12.7672 22.7468 11.7239 21.7031ZM14.4569 27.9354C14.6018 27.8963 14.73 27.8108 14.8219 27.692C14.9137 27.5733 14.9642 27.4277 14.9655 27.2775V24.9989C15.6319 25.1589 16.3146 25.2409 17 25.2431C17.6854 25.2417 18.3682 25.1597 19.0345 24.9989V27.2775C19.0358 27.4277 19.0862 27.5733 19.1781 27.692C19.2699 27.8108 19.3981 27.8963 19.5431 27.9354L20.8655 28.2812L17 31.177L13.1345 28.2812L14.4569 27.9354ZM31.9195 40.1626H2.08044V34.8526C2.08222 33.8052 2.42939 32.7877 3.06817 31.9576C3.70695 31.1276 4.60166 30.5314 5.61366 30.2615L11.4662 28.722L16.5931 32.5672C16.7105 32.6552 16.8532 32.7028 17 32.7028C17.1467 32.7028 17.2895 32.6552 17.4069 32.5672L22.5338 28.722L28.3795 30.2615C29.3929 30.5299 30.2893 31.1255 30.9294 31.9557C31.5695 32.7859 31.9176 33.8043 31.9195 34.8526V40.1626Z" fill="black"/>
<path d="M10.8965 6.93274H12.2529C12.2529 6.39316 12.4672 5.87568 12.8488 5.49414C13.2303 5.1126 13.7478 4.89825 14.2874 4.89825V3.54193C13.3884 3.54301 12.5265 3.9006 11.8909 4.53626C11.2552 5.17193 10.8976 6.03377 10.8965 6.93274Z" fill="black"/>
<path d="M25.8161 33.381H21.7471C21.5673 33.381 21.3948 33.4524 21.2676 33.5796C21.1404 33.7068 21.069 33.8793 21.069 34.0592V36.7718C21.069 36.8834 21.0965 36.9933 21.1491 37.0918C21.2018 37.1902 21.2779 37.2741 21.3708 37.336L23.4052 38.6924C23.5167 38.7667 23.6476 38.8064 23.7816 38.8064C23.9156 38.8064 24.0466 38.7667 24.158 38.6924L26.1925 37.336C26.2853 37.2741 26.3615 37.1902 26.4141 37.0918C26.4667 36.9933 26.4943 36.8834 26.4943 36.7718V34.0592C26.4943 33.8793 26.4228 33.7068 26.2956 33.5796C26.1684 33.4524 25.996 33.381 25.8161 33.381ZM25.1379 36.409L23.7816 37.3143L22.4253 36.4103V34.7373H25.1379V36.409Z" fill="black"/>
<path d="M20.3908 19.1396H19.0345C19.0345 19.3085 18.3129 19.8178 17 19.8178C15.6871 19.8178 14.9655 19.3085 14.9655 19.1396H13.6092C13.6092 20.2993 15.0666 21.1741 17 21.1741C18.9334 21.1741 20.3908 20.2993 20.3908 19.1396Z" fill="black"/>
</svg>
