<svg width="25" height="25" viewBox="0 0 25 25" fill="none" xmlns="http://www.w3.org/2000/svg">
<g clip-path="url(#clip0)">
<path d="M22.1051 7.71178L15.5747 7.10612L12.9807 1.08252C12.799 0.660745 12.201 0.660745 12.0195 1.08252L9.4254 7.10607L2.89507 7.71178C2.43779 7.75417 2.25303 8.32292 2.598 8.626L7.52516 12.9544L6.08321 19.3523C5.98223 19.8003 6.46607 20.1518 6.8609 19.9174L12.5001 16.5689L18.1392 19.9174C18.5341 20.1518 19.0179 19.8003 18.9169 19.3523L17.4749 12.9544L22.4021 8.626C22.7471 8.32292 22.5623 7.75417 22.1051 7.71178Z" fill="#FFDC64"/>
<path d="M5.82412 0.875172C6.15703 1.33758 7.09668 3.32342 7.63389 4.48075C7.71836 4.66268 7.49009 4.82704 7.34434 4.68919C6.41724 3.81263 4.83203 2.29153 4.49912 1.82908C4.23569 1.46321 4.31875 0.953053 4.68467 0.689625C5.05054 0.426197 5.56069 0.509303 5.82412 0.875172Z" fill="#FFF082"/>
<path d="M19.1759 0.875172C18.843 1.33758 17.9033 3.32342 17.3661 4.48075C17.2817 4.66268 17.5099 4.82704 17.6557 4.68919C18.5828 3.81263 20.1679 2.29148 20.5009 1.82908C20.7643 1.46321 20.6813 0.953053 20.3154 0.689625C19.9495 0.426197 19.4393 0.509303 19.1759 0.875172Z" fill="#FFF082"/>
<path d="M24.4366 14.4351C23.8949 14.2584 21.7174 13.9666 20.4516 13.8064C20.2527 13.7812 20.1655 14.0486 20.341 14.1456C21.4578 14.7625 23.3887 15.8106 23.9304 15.9873C24.359 16.127 24.8198 15.8929 24.9596 15.4643C25.0994 15.0356 24.8652 14.5749 24.4366 14.4351Z" fill="#FFF082"/>
<path d="M0.563407 14.4351C1.10511 14.2584 3.2826 13.9666 4.54838 13.8064C4.74735 13.7812 4.83456 14.0486 4.65902 14.1456C3.54217 14.7625 1.61136 15.8106 1.06966 15.9873C0.641043 16.127 0.180252 15.8929 0.0404564 15.4643C-0.0993387 15.0356 0.134793 14.5749 0.563407 14.4351Z" fill="#FFF082"/>
<path d="M11.7087 23.648C11.7087 23.0782 12.1064 20.9176 12.3466 19.6645C12.3844 19.4675 12.6657 19.4675 12.7034 19.6645C12.9436 20.9176 13.3413 23.0782 13.3413 23.648C13.3413 24.0988 12.9759 24.4643 12.525 24.4643C12.0742 24.4644 11.7087 24.0988 11.7087 23.648Z" fill="#FFF082"/>
<path d="M13.9239 3.27296L12.9806 1.08252C12.799 0.660745 12.201 0.660745 12.0194 1.08252L9.42534 7.10607L2.89507 7.71178C2.43779 7.75417 2.25303 8.32292 2.598 8.62599L7.52515 12.9544L6.0832 19.3523C5.98223 19.8003 6.46607 20.1518 6.86089 19.9174L7.61143 19.4717C8.84185 11.5069 12.3009 5.66007 13.9239 3.27296Z" fill="#FFC850"/>
</g>
<defs>
<clipPath id="clip0">
<rect width="25" height="25" fill="white"/>
</clipPath>
</defs>
</svg>
