<svg width="116" height="139" viewBox="0 0 116 139" fill="none" xmlns="http://www.w3.org/2000/svg">
<path d="M77.2136 31.494H29.1772V55.5122C29.1772 56.3288 29.2013 57.1214 29.2733 57.914C29.3454 58.7066 29.4414 59.4752 29.5615 60.2437C30.5424 66.1759 33.3561 71.652 37.6076 75.9036C41.4583 79.7498 46.3193 82.427 51.6281 83.6257C56.937 84.8243 62.4767 84.4953 67.6064 82.6767C72.4625 80.96 76.7701 77.9739 80.0816 74.0289C83.3931 70.0839 85.5874 65.3239 86.4366 60.2437C86.5567 59.4752 86.6528 58.7066 86.7248 57.914C86.7969 57.1214 86.8209 56.3288 86.8209 55.5122V28.9C83.9085 30.6093 80.5906 31.5052 77.2136 31.494Z" fill="#FFC477"/>
<path d="M86.8218 28.9V55.5122C86.8218 56.3288 86.7977 57.1214 86.7257 57.914C86.6536 58.7066 86.5576 59.4752 86.4375 60.2438C85.5883 65.3239 83.3939 70.0839 80.0824 74.0289C76.771 77.9739 72.4633 80.96 67.6072 82.6768C64.5245 83.78 61.274 84.3407 57.9999 84.334C56.3901 84.3323 54.7833 84.1957 53.1963 83.9257C54.8329 83.6599 56.4411 83.2418 57.9999 82.6768C62.856 80.96 67.1637 77.9739 70.4752 74.0289C73.7866 70.0839 75.981 65.3239 76.8302 60.2438C76.9503 59.4752 77.0464 58.7066 77.1184 57.914C77.1905 57.1214 77.2145 56.3288 77.2145 55.5122V31.494C80.5914 31.5052 83.9094 30.6093 86.8218 28.9Z" fill="#FFA733"/>
<path d="M113.242 120.77V141.978H2.7583V120.77C2.75593 116.525 4.15912 112.399 6.74879 109.036C9.33846 105.673 12.9689 103.262 17.0731 102.179L38.9057 96.4391L58.0002 110.754L77.0946 96.4391L98.9272 102.179C103.031 103.262 106.662 105.673 109.252 109.036C111.841 112.399 113.244 116.525 113.242 120.77Z" fill="#C0AB91"/>
<path d="M113.242 120.77V141.978H103.635V120.77C103.637 116.525 102.234 112.399 99.6442 109.036C97.0545 105.673 93.4241 103.262 89.3198 102.179L74.5967 98.3125L77.0946 96.4391L98.9271 102.179C103.031 103.262 106.662 105.673 109.251 109.036C111.841 112.399 113.244 116.525 113.242 120.77Z" fill="#A78966"/>
<path d="M96.4282 2.67213V12.2794C96.4323 15.6504 95.546 18.9628 93.859 21.8813C92.172 24.7998 89.7441 27.221 86.8209 28.9C83.9085 30.6093 80.5906 31.5052 77.2136 31.494H29.1772V21.8867C29.1772 16.7907 31.2016 11.9034 34.8051 8.29994C38.4085 4.69651 43.2958 2.67213 48.3918 2.67213H67.6064L65.2045 12.2794L82.0173 2.67213V12.2794L96.4282 2.67213Z" fill="#FFD422"/>
<path d="M96.4283 2.67213V12.2794C96.4324 15.6504 95.5461 18.9628 93.8591 21.8813C92.1721 24.7998 89.7442 27.221 86.821 28.9C83.9086 30.6093 80.5906 31.5052 77.2137 31.494H67.6064C70.9834 31.5052 74.3013 30.6093 77.2137 28.9C80.1369 27.221 82.5648 24.7998 84.2518 21.8813C85.9388 18.9628 86.8251 15.6504 86.821 12.2794V9.08499L96.4283 2.67213Z" fill="#EBBF00"/>
<path d="M86.8217 38.6995C89.3697 38.6995 91.8133 39.7117 93.615 41.5134C95.4167 43.3151 96.4289 45.7588 96.4289 48.3068C96.4289 50.8548 95.4167 53.2984 93.615 55.1001C91.8133 56.9018 89.3697 57.914 86.8217 57.914H86.7256C86.7976 57.1214 86.8217 56.3288 86.8217 55.5122V38.6995Z" fill="#FFC477"/>
<path d="M89.2234 117.96V127.567L82.018 132.37L74.8125 127.567V117.96H89.2234Z" fill="#957856"/>
<path d="M89.224 117.96V127.567L82.0186 132.37V117.96H89.224Z" fill="#806749"/>
<path d="M77.0937 96.4392L57.9993 110.754L38.9048 96.4392L48.392 93.9413V82.6768C54.6062 84.8865 61.3923 84.8865 67.6065 82.6768V93.9413L77.0937 96.4392Z" fill="#FFC477"/>
<path d="M29.2742 57.914H29.1781C26.6301 57.914 24.1864 56.9018 22.3847 55.1001C20.583 53.2984 19.5708 50.8548 19.5708 48.3068C19.5708 45.7588 20.583 43.3151 22.3847 41.5134C24.1864 39.7117 26.6301 38.6995 29.1781 38.6995V55.5122C29.1781 56.3288 29.2021 57.1214 29.2742 57.914Z" fill="#FFC477"/>
<path d="M50.7942 50.7086C50.7942 48.7976 50.0351 46.9649 48.6838 45.6136C47.3325 44.2623 45.4998 43.5032 43.5888 43.5032C41.6778 43.5032 39.845 44.2623 38.4937 45.6136C37.1424 46.9649 36.3833 48.7976 36.3833 50.7086H41.1869C41.1869 50.0716 41.44 49.4607 41.8904 49.0103C42.3408 48.5599 42.9518 48.3068 43.5888 48.3068C44.2258 48.3068 44.8367 48.5599 45.2871 49.0103C45.7375 49.4607 45.9906 50.0716 45.9906 50.7086H50.7942Z" fill="black"/>
<path d="M72.4115 48.3068C73.0485 48.3068 73.6594 48.5599 74.1099 49.0103C74.5603 49.4607 74.8133 50.0716 74.8133 50.7086H79.617C79.617 48.7976 78.8578 46.9649 77.5065 45.6136C76.1553 44.2623 74.3225 43.5032 72.4115 43.5032C70.5005 43.5032 68.6678 44.2623 67.3165 45.6136C65.9652 46.9649 65.2061 48.7976 65.2061 50.7086H70.0097C70.0097 50.0716 70.2627 49.4607 70.7132 49.0103C71.1636 48.5599 71.7745 48.3068 72.4115 48.3068Z" fill="black"/>
<path d="M99.5276 99.8498L70.0092 92.0919V84.334C74.9629 82.2554 79.2976 78.936 82.5958 74.6955C85.8939 70.455 88.0442 65.4365 88.8395 60.1237C91.6345 59.6561 94.1729 58.2117 96.0026 56.0477C97.8323 53.8837 98.8346 51.1406 98.8311 48.3067C98.824 45.5403 97.8652 42.8605 96.1158 40.7175C94.3663 38.5744 91.9328 37.0986 89.2238 36.5378V30.245C92.177 28.2693 94.5983 25.5968 96.2738 22.4635C97.9494 19.3302 98.8276 15.8326 98.8311 12.2794V2.67212C98.8342 2.23675 98.7169 1.80898 98.4923 1.43602C98.2677 1.06305 97.9444 0.759388 97.5581 0.55852C97.1796 0.346834 96.7491 0.245845 96.3159 0.26708C95.8828 0.288314 95.4643 0.430918 95.1082 0.678612L84.4201 7.788V2.67212C84.4236 2.25178 84.3139 1.83826 84.1026 1.47486C83.8913 1.11146 83.5862 0.811552 83.2192 0.606557C82.8567 0.390674 82.4435 0.274719 82.0216 0.2705C81.5997 0.266281 81.1842 0.373949 80.8174 0.582539L68.9044 7.40371L69.9372 3.24856C70.0232 2.89378 70.0291 2.52427 69.9543 2.16695C69.8795 1.80962 69.726 1.47347 69.5048 1.18299C69.2787 0.896747 68.9902 0.665788 68.6615 0.507647C68.3327 0.349505 67.9722 0.268337 67.6074 0.270302H48.3928C42.6626 0.279195 37.1695 2.55948 33.1176 6.61142C29.0656 10.6633 26.7854 16.1564 26.7765 21.8867V36.5378C24.0421 37.1054 21.591 38.6083 19.845 40.7878C18.099 42.9674 17.1671 45.6873 17.2098 48.4796C17.2524 51.2719 18.2669 53.9621 20.0787 56.0873C21.8905 58.2125 24.3863 59.6398 27.1367 60.1237C27.9133 65.4495 30.059 70.4825 33.3639 74.7304C36.6688 78.9784 41.0197 82.2958 45.991 84.358V92.0919L16.4486 99.8498C11.8387 101.081 7.76335 103.798 4.85408 107.58C1.94481 111.362 0.36396 115.998 0.356445 120.77V141.978C0.356445 142.615 0.609494 143.226 1.05992 143.676C1.51035 144.126 2.12126 144.38 2.75827 144.38H113.242C113.879 144.38 114.49 144.126 114.94 143.676C115.391 143.226 115.644 142.615 115.644 141.978V120.77C115.636 115.995 114.052 111.356 111.138 107.573C108.224 103.791 104.142 101.076 99.5276 99.8498ZM26.7765 55.0798C25.774 54.721 24.8577 54.1565 24.0864 53.4226C23.2255 52.5621 22.5967 51.4976 22.2585 50.3284C21.9203 49.1592 21.8838 47.9233 22.1524 46.7361C22.421 45.549 22.9859 44.4492 23.7945 43.5395C24.6031 42.6297 25.629 41.9396 26.7765 41.5336V55.0798ZM94.0274 48.3067C94.0321 50.2136 93.2807 52.0447 91.9378 53.3986C91.1704 54.1494 90.2423 54.7161 89.2238 55.0558V41.5336C90.6234 42.0321 91.8355 42.9498 92.695 44.1617C93.5545 45.3736 94.0198 46.8209 94.0274 48.3067ZM31.5801 21.8867C31.5852 17.4292 33.3582 13.1558 36.5101 10.0039C39.662 6.852 43.9354 5.07903 48.3928 5.07394H64.5331L62.8758 11.703C62.7606 12.1607 62.7828 12.6422 62.9396 13.0874C63.0964 13.5325 63.381 13.9216 63.7576 14.2061C64.1343 14.4905 64.5864 14.6576 65.0575 14.6866C65.5286 14.7156 65.9978 14.6051 66.4065 14.369L79.6165 6.80325V12.2794C79.6134 12.7148 79.7307 13.1425 79.9553 13.5155C80.1799 13.8885 80.5032 14.1921 80.8895 14.393C81.268 14.6047 81.6984 14.7057 82.1316 14.6844C82.5648 14.6632 82.9833 14.5206 83.3393 14.2729L94.0274 7.16353V12.2794C94.0223 16.7369 92.2494 21.0103 89.0975 24.1622C85.9456 27.3141 81.6721 29.0871 77.2147 29.0921H31.5801V21.8867ZM39.314 74.1983C36.8502 71.7521 34.8976 68.8402 33.5699 65.6322C32.2421 62.4241 31.5657 58.9841 31.5801 55.5122V33.8958H77.2147C79.6722 33.8933 82.1105 33.4626 84.4201 32.6228V55.5122C84.4219 60.7388 82.8733 65.8486 79.9704 70.1949C77.0674 74.5413 72.9405 77.929 68.1118 79.9294C63.2831 81.9298 57.9696 82.453 52.8434 81.4328C47.7173 80.4127 43.0089 77.895 39.314 74.1983ZM48.9933 96.2711C49.5067 96.1326 49.9607 95.83 50.286 95.4093C50.6113 94.9886 50.7899 94.473 50.7947 93.9413V85.8712C53.1548 86.4378 55.5729 86.728 58.0001 86.7358C60.4275 86.7309 62.8459 86.4407 65.2056 85.8712V93.9413C65.2103 94.473 65.389 94.9886 65.7142 95.4093C66.0395 95.83 66.4935 96.1326 67.007 96.2711L71.6905 97.496L58.0001 107.752L44.3097 97.496L48.9933 96.2711ZM110.84 139.576H5.16009V120.77C5.16636 117.06 6.39595 113.456 8.65829 110.517C10.9206 107.577 14.0894 105.465 17.6736 104.509L38.4013 99.0572L56.559 112.675C56.9748 112.987 57.4804 113.156 58.0001 113.156C58.5198 113.156 59.0255 112.987 59.4412 112.675L77.599 99.0572L98.3027 104.509C101.892 105.46 105.066 107.57 107.333 110.51C109.601 113.45 110.833 117.057 110.84 120.77V139.576Z" fill="black"/>
<path d="M36.3833 21.8867H41.1869C41.1869 19.9757 41.9461 18.143 43.2974 16.7917C44.6487 15.4404 46.4814 14.6813 48.3924 14.6813V9.87762C45.2086 9.88143 42.1562 11.1479 39.9049 13.3992C37.6536 15.6505 36.3871 18.7029 36.3833 21.8867Z" fill="black"/>
<path d="M89.2229 115.558H74.812C74.175 115.558 73.5641 115.811 73.1136 116.261C72.6632 116.712 72.4102 117.323 72.4102 117.96V127.567C72.4101 127.962 72.5076 128.351 72.6941 128.7C72.8805 129.049 73.1501 129.346 73.479 129.565L80.6844 134.369C81.0791 134.632 81.543 134.773 82.0174 134.773C82.4919 134.773 82.9558 134.632 83.3504 134.369L90.5559 129.565C90.8848 129.346 91.1544 129.049 91.3408 128.7C91.5273 128.351 91.6248 127.962 91.6247 127.567V117.96C91.6247 117.323 91.3717 116.712 90.9212 116.261C90.4708 115.811 89.8599 115.558 89.2229 115.558ZM86.8211 126.282L82.0174 129.488L77.2138 126.287V120.361H86.8211V126.282Z" fill="black"/>
<path d="M70.0099 65.1194H65.2063C65.2063 65.7175 62.6507 67.5213 58.0008 67.5213C53.3509 67.5213 50.7953 65.7175 50.7953 65.1194H45.9917C45.9917 69.2266 51.1532 72.3249 58.0008 72.3249C64.8484 72.3249 70.0099 69.2266 70.0099 65.1194Z" fill="black"/>
</svg>
