<svg width="147" height="87" viewBox="0 0 147 87" fill="none" xmlns="http://www.w3.org/2000/svg">
<path d="M9.828 62.972C10.388 62.9347 10.8267 63.0653 11.144 63.364C11.48 63.644 11.648 64.0733 11.648 64.652C11.648 65.268 11.4987 65.7253 11.2 66.024C10.9013 66.3227 10.3693 66.5093 9.604 66.584L8.764 66.668C7.73733 66.78 6.99067 67.116 6.524 67.676C6.076 68.236 5.852 68.9547 5.852 69.832V75.18C5.852 75.8333 5.64667 76.328 5.236 76.664C4.844 77 4.34933 77.168 3.752 77.168C3.136 77.168 2.62267 77 2.212 76.664C1.82 76.328 1.624 75.8333 1.624 75.18V64.904C1.624 64.288 1.82933 63.812 2.24 63.476C2.65067 63.14 3.14533 62.972 3.724 62.972C4.284 62.972 4.75067 63.14 5.124 63.476C5.49733 63.7933 5.684 64.2413 5.684 64.82V65.576C6.02 64.7733 6.524 64.1573 7.196 63.728C7.88667 63.2987 8.63333 63.056 9.436 63L9.828 62.972ZM19.1968 77.224C17.7408 77.224 16.4622 76.9347 15.3608 76.356C14.2595 75.7587 13.4102 74.928 12.8128 73.864C12.2155 72.7813 11.9168 71.512 11.9168 70.056C11.9168 68.6 12.2155 67.34 12.8128 66.276C13.4102 65.1933 14.2595 64.3627 15.3608 63.784C16.4622 63.2053 17.7408 62.916 19.1968 62.916C20.6528 62.916 21.9315 63.2053 23.0328 63.784C24.1342 64.3627 24.9835 65.1933 25.5808 66.276C26.1782 67.34 26.4768 68.6 26.4768 70.056C26.4768 71.512 26.1782 72.7813 25.5808 73.864C24.9835 74.928 24.1342 75.7587 23.0328 76.356C21.9315 76.9347 20.6528 77.224 19.1968 77.224ZM19.1968 74.004C21.2502 74.004 22.2768 72.688 22.2768 70.056C22.2768 68.7307 22.0062 67.7413 21.4648 67.088C20.9422 66.4347 20.1862 66.108 19.1968 66.108C17.1435 66.108 16.1168 67.424 16.1168 70.056C16.1168 72.688 17.1435 74.004 19.1968 74.004ZM47.2563 64.204C47.4243 63.812 47.6577 63.5133 47.9563 63.308C48.255 63.1027 48.5723 63 48.9083 63C49.431 63 49.8977 63.1773 50.3083 63.532C50.719 63.8867 50.9243 64.3253 50.9243 64.848C50.9243 65.072 50.8683 65.324 50.7563 65.604L46.1643 75.908C45.9963 76.3187 45.7257 76.636 45.3523 76.86C44.979 77.0653 44.587 77.168 44.1763 77.168C43.747 77.168 43.3457 77.0653 42.9723 76.86C42.6177 76.636 42.3563 76.3187 42.1883 75.908L39.1923 68.936L36.3083 75.908C36.1403 76.3187 35.879 76.636 35.5243 76.86C35.1697 77.0653 34.7683 77.168 34.3203 77.168C33.891 77.168 33.4897 77.0653 33.1163 76.86C32.743 76.636 32.4723 76.3187 32.3043 75.908L27.7403 65.604C27.6283 65.3427 27.5723 65.0907 27.5723 64.848C27.5723 64.3253 27.787 63.8867 28.2163 63.532C28.6643 63.1773 29.1683 63 29.7283 63C30.1017 63 30.4377 63.1027 30.7363 63.308C31.0537 63.5133 31.2963 63.812 31.4643 64.204L34.4603 71.736L37.5123 64.26C37.6803 63.868 37.923 63.5693 38.2403 63.364C38.5763 63.14 38.9403 63.028 39.3323 63.028C39.7243 63.028 40.0883 63.1307 40.4243 63.336C40.7603 63.5413 41.0123 63.8493 41.1803 64.26L44.2883 71.736L47.2563 64.204ZM63.7068 72.912C64.0801 72.912 64.3788 73.0613 64.6028 73.36C64.8454 73.6587 64.9668 74.0413 64.9668 74.508C64.9668 74.8253 64.8734 75.124 64.6868 75.404C64.5001 75.6653 64.2388 75.8893 63.9028 76.076C63.2681 76.412 62.5308 76.692 61.6908 76.916C60.8508 77.1213 60.0761 77.224 59.3668 77.224C57.8734 77.224 56.5668 76.9347 55.4468 76.356C54.3454 75.7773 53.4961 74.956 52.8988 73.892C52.3014 72.8093 52.0028 71.54 52.0028 70.084C52.0028 68.684 52.2921 67.4427 52.8708 66.36C53.4494 65.2773 54.2521 64.4373 55.2788 63.84C56.3054 63.224 57.4721 62.916 58.7788 62.916C60.0294 62.916 61.1214 63.196 62.0548 63.756C63.0068 64.2973 63.7441 65.0813 64.2668 66.108C64.7894 67.116 65.0508 68.3013 65.0508 69.664C65.0508 70.0747 64.9481 70.392 64.7428 70.616C64.5561 70.8213 64.2854 70.924 63.9308 70.924H56.0908C56.2214 72.0253 56.5574 72.828 57.0988 73.332C57.6401 73.8173 58.4148 74.06 59.4228 74.06C59.9641 74.06 60.4494 73.9947 60.8788 73.864C61.3081 73.7333 61.7841 73.556 62.3068 73.332C62.5681 73.22 62.8201 73.1267 63.0628 73.052C63.3054 72.9587 63.5201 72.912 63.7068 72.912ZM58.8908 65.828C58.0881 65.828 57.4441 66.0893 56.9588 66.612C56.4734 67.116 56.1841 67.8533 56.0908 68.824H61.4948C61.4388 67.8347 61.1868 67.088 60.7388 66.584C60.3094 66.08 59.6934 65.828 58.8908 65.828ZM75.8085 62.972C76.3685 62.9347 76.8071 63.0653 77.1245 63.364C77.4605 63.644 77.6285 64.0733 77.6285 64.652C77.6285 65.268 77.4791 65.7253 77.1805 66.024C76.8818 66.3227 76.3498 66.5093 75.5845 66.584L74.7445 66.668C73.7178 66.78 72.9711 67.116 72.5045 67.676C72.0565 68.236 71.8325 68.9547 71.8325 69.832V75.18C71.8325 75.8333 71.6271 76.328 71.2165 76.664C70.8245 77 70.3298 77.168 69.7325 77.168C69.1165 77.168 68.6031 77 68.1925 76.664C67.8005 76.328 67.6045 75.8333 67.6045 75.18V64.904C67.6045 64.288 67.8098 63.812 68.2205 63.476C68.6311 63.14 69.1258 62.972 69.7045 62.972C70.2645 62.972 70.7311 63.14 71.1045 63.476C71.4778 63.7933 71.6645 64.2413 71.6645 64.82V65.576C72.0005 64.7733 72.5045 64.1573 73.1765 63.728C73.8671 63.2987 74.6138 63.056 75.4165 63L75.8085 62.972ZM89.4482 73.836C90.7175 73.836 91.3522 74.368 91.3522 75.432C91.3522 76.4773 90.7175 77 89.4482 77H80.3762C79.8162 77 79.3589 76.8227 79.0042 76.468C78.6495 76.1133 78.4722 75.6933 78.4722 75.208C78.4722 74.648 78.6682 74.1627 79.0602 73.752L85.6122 66.416H80.2362C78.9669 66.416 78.3322 65.8933 78.3322 64.848C78.3322 63.784 78.9669 63.252 80.2362 63.252H88.9722C89.5509 63.252 90.0082 63.4293 90.3442 63.784C90.6989 64.1387 90.8762 64.568 90.8762 65.072C90.8762 65.632 90.6802 66.1173 90.2882 66.528L83.7642 73.836H89.4482ZM102.606 64.176C102.774 63.784 103.007 63.4947 103.306 63.308C103.623 63.1213 103.959 63.028 104.314 63.028C104.855 63.028 105.331 63.2053 105.742 63.56C106.152 63.896 106.358 64.3067 106.358 64.792C106.358 65.0533 106.292 65.3147 106.162 65.576L98.6296 81.032C98.4429 81.424 98.1909 81.7133 97.8736 81.9C97.5562 82.1053 97.2202 82.208 96.8656 82.208C96.3429 82.208 95.8856 82.04 95.4936 81.704C95.1016 81.368 94.9056 80.9573 94.9056 80.472C94.9056 80.1733 94.9709 79.8933 95.1016 79.632L96.9496 75.796L91.9656 65.576C91.8536 65.3147 91.7976 65.0627 91.7976 64.82C91.7976 64.316 92.0122 63.8867 92.4416 63.532C92.8896 63.1773 93.3936 63 93.9536 63C94.3269 63 94.6722 63.1027 94.9896 63.308C95.3069 63.4947 95.5589 63.784 95.7456 64.176L99.2176 71.736L102.606 64.176ZM113.254 77.224C112.115 77.224 111.126 77.1307 110.286 76.944C109.446 76.7573 108.709 76.4587 108.074 76.048C107.794 75.88 107.579 75.656 107.43 75.376C107.281 75.096 107.206 74.7787 107.206 74.424C107.206 73.9947 107.327 73.64 107.57 73.36C107.813 73.0613 108.111 72.912 108.466 72.912C108.709 72.912 108.951 72.9587 109.194 73.052C109.437 73.1267 109.689 73.22 109.95 73.332C110.473 73.5747 110.986 73.7707 111.49 73.92C111.994 74.0507 112.619 74.116 113.366 74.116C114.019 74.116 114.523 74.0133 114.878 73.808C115.251 73.6027 115.438 73.3227 115.438 72.968C115.438 72.7067 115.354 72.5013 115.186 72.352C115.037 72.184 114.747 72.0347 114.318 71.904C113.889 71.7733 113.207 71.6147 112.274 71.428C110.613 71.1107 109.418 70.6347 108.69 70C107.962 69.3653 107.598 68.4787 107.598 67.34C107.598 66.5 107.85 65.744 108.354 65.072C108.877 64.4 109.586 63.8773 110.482 63.504C111.378 63.112 112.386 62.916 113.506 62.916C114.309 62.916 115.093 63.0187 115.858 63.224C116.623 63.4293 117.305 63.7187 117.902 64.092C118.481 64.4467 118.77 64.9693 118.77 65.66C118.77 66.108 118.649 66.4813 118.406 66.78C118.163 67.0787 117.865 67.228 117.51 67.228C117.081 67.228 116.567 67.06 115.97 66.724C115.503 66.4813 115.074 66.304 114.682 66.192C114.309 66.0613 113.861 65.996 113.338 65.996C112.759 65.996 112.302 66.108 111.966 66.332C111.63 66.5373 111.462 66.8267 111.462 67.2C111.462 67.592 111.658 67.8907 112.05 68.096C112.442 68.3013 113.198 68.5067 114.318 68.712C115.569 68.9547 116.549 69.2533 117.258 69.608C117.967 69.944 118.481 70.3733 118.798 70.896C119.115 71.4187 119.274 72.0813 119.274 72.884C119.274 74.2093 118.723 75.264 117.622 76.048C116.539 76.832 115.083 77.224 113.254 77.224ZM129.198 74.088C129.758 74.1253 130.168 74.2653 130.43 74.508C130.691 74.7507 130.822 75.1053 130.822 75.572C130.822 76.1133 130.607 76.524 130.178 76.804C129.748 77.084 129.132 77.196 128.33 77.14L127.546 77.084C124.279 76.8227 122.646 75.1147 122.646 71.96V66.416H121.526C120.91 66.416 120.443 66.2853 120.126 66.024C119.808 65.744 119.65 65.352 119.65 64.848C119.65 64.3253 119.808 63.9333 120.126 63.672C120.443 63.392 120.91 63.252 121.526 63.252H122.646V61.068C122.646 60.452 122.832 59.9667 123.206 59.612C123.598 59.2573 124.12 59.08 124.774 59.08C125.427 59.08 125.94 59.2573 126.314 59.612C126.687 59.9667 126.874 60.452 126.874 61.068V63.252H128.834C130.103 63.252 130.738 63.784 130.738 64.848C130.738 65.352 130.579 65.744 130.262 66.024C129.944 66.2853 129.468 66.416 128.834 66.416H126.874V72.268C126.874 72.828 127.004 73.2573 127.266 73.556C127.527 73.836 127.91 73.9947 128.414 74.032L129.198 74.088ZM138.57 62.916C140.586 62.916 142.079 63.4107 143.05 64.4C144.02 65.3707 144.506 66.864 144.506 68.88V75.208C144.506 75.824 144.328 76.3093 143.974 76.664C143.619 77 143.124 77.168 142.49 77.168C141.892 77.168 141.407 76.9907 141.034 76.636C140.679 76.2627 140.502 75.7867 140.502 75.208V75.012C140.222 75.7027 139.755 76.244 139.102 76.636C138.448 77.028 137.683 77.224 136.806 77.224C135.872 77.224 135.023 77.0373 134.258 76.664C133.511 76.2907 132.914 75.768 132.466 75.096C132.036 74.424 131.822 73.6773 131.822 72.856C131.822 71.848 132.074 71.0547 132.578 70.476C133.1 69.8973 133.931 69.4773 135.07 69.216C136.208 68.9547 137.767 68.824 139.746 68.824H140.474V68.32C140.474 67.536 140.296 66.9667 139.942 66.612C139.606 66.2573 139.036 66.08 138.234 66.08C137.431 66.08 136.274 66.36 134.762 66.92C134.332 67.1253 133.968 67.228 133.67 67.228C133.259 67.228 132.932 67.088 132.69 66.808C132.447 66.5093 132.326 66.1267 132.326 65.66C132.326 65.2867 132.41 64.9787 132.578 64.736C132.746 64.4933 133.016 64.2693 133.39 64.064C134.043 63.7093 134.836 63.4293 135.77 63.224C136.722 63.0187 137.655 62.916 138.57 62.916ZM137.73 74.312C138.551 74.312 139.214 74.0413 139.718 73.5C140.222 72.94 140.474 72.2213 140.474 71.344V70.868H139.998C138.486 70.868 137.422 70.9893 136.806 71.232C136.208 71.4747 135.91 71.9133 135.91 72.548C135.91 73.0707 136.078 73.5 136.414 73.836C136.768 74.1533 137.207 74.312 137.73 74.312Z" fill="#0068FF"/>
<path d="M30.24 24C35.488 24 38.112 27.152 38.112 33.456V45.936C38.112 46.672 37.888 47.248 37.44 47.664C36.992 48.048 36.4 48.24 35.664 48.24C34.96 48.24 34.384 48.048 33.936 47.664C33.488 47.248 33.264 46.672 33.264 45.936V33.504C33.264 31.552 32.912 30.144 32.208 29.28C31.504 28.384 30.4 27.936 28.896 27.936C27.136 27.936 25.744 28.544 24.72 29.76C23.696 30.944 23.184 32.576 23.184 34.656V45.936C23.184 46.672 22.96 47.248 22.512 47.664C22.064 48.048 21.472 48.24 20.736 48.24C20.032 48.24 19.456 48.048 19.008 47.664C18.56 47.248 18.336 46.672 18.336 45.936V33.504C18.336 31.552 17.984 30.144 17.28 29.28C16.576 28.384 15.472 27.936 13.968 27.936C12.208 27.936 10.8 28.544 9.744 29.76C8.72 30.944 8.208 32.576 8.208 34.656V45.936C8.208 46.672 7.984 47.248 7.536 47.664C7.088 48.048 6.512 48.24 5.808 48.24C5.104 48.24 4.512 48.048 4.032 47.664C3.584 47.248 3.36 46.672 3.36 45.936V26.4C3.36 25.696 3.6 25.136 4.08 24.72C4.56 24.304 5.136 24.096 5.808 24.096C6.48 24.096 7.024 24.304 7.44 24.72C7.888 25.104 8.112 25.648 8.112 26.352V28.128C8.816 26.784 9.792 25.76 11.04 25.056C12.288 24.352 13.728 24 15.36 24C17.152 24 18.624 24.368 19.776 25.104C20.96 25.84 21.84 26.976 22.416 28.512C23.12 27.136 24.16 26.048 25.536 25.248C26.912 24.416 28.48 24 30.24 24ZM52.8146 26.256C53.2306 26.032 53.6306 25.92 54.0146 25.92C54.5266 25.92 54.9586 26.112 55.3106 26.496C55.6946 26.88 55.8866 27.328 55.8866 27.84C55.8866 28.576 55.5026 29.168 54.7346 29.616L51.0866 31.728V45.936C51.0866 46.672 50.8466 47.248 50.3666 47.664C49.9186 48.048 49.3426 48.24 48.6386 48.24C47.9346 48.24 47.3586 48.048 46.9106 47.664C46.4626 47.28 46.2386 46.704 46.2386 45.936V34.512L44.4626 35.52C44.0146 35.776 43.6146 35.904 43.2626 35.904C42.7186 35.904 42.2706 35.728 41.9186 35.376C41.5986 34.992 41.4386 34.544 41.4386 34.032C41.4386 33.264 41.8066 32.656 42.5426 32.208L46.2386 30.048V16.272C46.2386 15.504 46.4626 14.928 46.9106 14.544C47.3586 14.128 47.9346 13.92 48.6386 13.92C49.3426 13.92 49.9186 14.128 50.3666 14.544C50.8466 14.928 51.0866 15.504 51.0866 16.272V27.264L52.8146 26.256ZM139.172 25.536C139.364 25.056 139.636 24.704 139.988 24.48C140.372 24.256 140.772 24.144 141.188 24.144C141.796 24.144 142.324 24.352 142.772 24.768C143.252 25.184 143.492 25.68 143.492 26.256C143.492 26.576 143.428 26.88 143.3 27.168L129.956 55.488C129.764 55.936 129.476 56.272 129.092 56.496C128.74 56.752 128.356 56.88 127.94 56.88C127.364 56.88 126.836 56.688 126.356 56.304C125.908 55.92 125.684 55.44 125.684 54.864C125.684 54.608 125.764 54.288 125.924 53.904L129.236 46.848L119.972 27.168C119.844 26.912 119.78 26.624 119.78 26.304C119.78 25.696 120.036 25.184 120.548 24.768C121.06 24.352 121.636 24.144 122.276 24.144C123.236 24.144 123.924 24.592 124.34 25.488L131.78 42L139.172 25.536Z" fill="#0068FF"/>
<path d="M67.7304 27.6777C61.2622 27.6777 56 32.9399 56 39.4081C56 45.8763 61.2622 51.1385 67.7304 51.1385C74.1986 51.1385 79.4609 45.8762 79.4609 39.4081C79.4609 32.94 74.1986 27.6777 67.7304 27.6777ZM67.7304 47.4472C63.2977 47.4472 59.6914 43.8409 59.6914 39.4081C59.6914 34.9753 63.2977 31.3691 67.7304 31.3691C72.1632 31.3691 75.7694 34.9755 75.7694 39.4081C75.7694 43.8407 72.1632 47.4472 67.7304 47.4472Z" fill="#0068FF"/>
<path d="M79.593 27.4156C78.877 27.4156 78.1956 26.9964 77.8957 26.2966L74.5062 18.3887C74.1046 17.4517 74.5386 16.3667 75.4756 15.9651C76.4123 15.5636 77.4975 15.9974 77.8991 16.9343L81.2885 24.8422C81.6902 25.7792 81.2562 26.8642 80.3193 27.2658C80.0822 27.3675 79.8356 27.4156 79.593 27.4156Z" fill="#F7785A"/>
<path d="M107.27 27.6777C100.801 27.6777 95.5392 32.94 95.5392 39.4081C95.5392 45.8762 100.801 51.1385 107.27 51.1385C113.738 51.1385 119 45.8763 119 39.4081C119 32.9399 113.738 27.6777 107.27 27.6777ZM107.27 47.4472C102.837 47.4472 99.2306 43.8409 99.2306 39.4082C99.2306 34.9756 102.837 31.3692 107.27 31.3692C111.702 31.3692 115.309 34.9753 115.309 39.4081C115.309 43.8409 111.702 47.4472 107.27 47.4472Z" fill="#0068FF"/>
<path d="M100.888 19.3908C100.449 18.746 99.6518 18.4465 98.8972 18.6429L79.1277 23.783C78.7629 23.8778 78.4359 24.082 78.1908 24.3681L66.3291 38.2068C65.8599 38.7541 65.7523 39.5244 66.0536 40.1792C66.3548 40.8341 67.0096 41.2537 67.7304 41.2537H85.523C86.1127 41.2537 86.6669 40.9719 87.0143 40.4953L100.853 21.5166C101.313 20.8866 101.326 20.0356 100.888 19.3908ZM71.7435 37.5624L79.0638 29.0219L82.7239 37.5624H71.7435ZM85.9421 35.7006L82.1343 26.8155L94.8272 23.5152L85.9421 35.7006Z" fill="#F7785A"/>
<path d="M81.5691 19.5073H73.6613C72.6419 19.5073 71.8156 18.6809 71.8156 17.6616C71.8156 16.6423 72.6419 15.8159 73.6613 15.8159H81.5691C82.5884 15.8159 83.4148 16.6423 83.4148 17.6616C83.4148 18.6809 82.5884 19.5073 81.5691 19.5073Z" fill="#F7785A"/>
<path d="M108.973 38.6982L99.0886 14.9748C98.6965 14.0339 97.6158 13.5889 96.675 13.9809C95.734 14.3731 95.2891 15.4536 95.6811 16.3945L105.566 40.1179C105.958 41.0589 107.039 41.5038 107.979 41.1118C108.92 40.7198 109.365 39.6392 108.973 38.6982Z" fill="#0068FF"/>
<path d="M105.067 13.124C104.744 12.1571 103.7 11.6341 102.732 11.9568L96.801 13.9336C95.834 14.2559 95.3114 15.3012 95.6338 16.2683C95.9562 17.2352 97.0009 17.7582 97.9685 17.4355L103.899 15.4587C104.866 15.1363 105.389 14.0911 105.067 13.124Z" fill="#0068FF"/>
</svg>
